<svg width="24" height="24" viewBox="0 0 24 24" fill="none" xmlns="http://www.w3.org/2000/svg">
<circle cx="12" cy="12" r="12" fill="#D4D4D4"/>
<path d="M12 23.25C18.2132 23.25 23.25 18.2132 23.25 12C23.25 5.7868 18.2132 0.75 12 0.75C5.7868 0.75 0.75 5.7868 0.75 12C0.75 18.2132 5.7868 23.25 12 23.25Z" fill="#F0F0F0"/>
<path d="M7.11133 15.9111L8.08959 22.5485C9.30829 23.0007 10.6265 23.2481 12.0026 23.2481C16.8397 23.2481 20.9633 20.1951 22.5528 15.9111H7.11133Z" fill="black"/>
<path d="M7.11133 8.08698L8.08959 1.44965C9.30829 0.997412 10.6265 0.75 12.0026 0.75C16.8397 0.75 20.9633 3.80297 22.5528 8.08698H7.11133Z" fill="#6DA544"/>
<path d="M0.75 11.9975C0.75 16.8346 3.80301 20.9582 8.08698 22.5478V1.44727C3.80301 3.03681 0.75 7.16042 0.75 11.9975Z" fill="#A2001D"/>
</svg>
