<svg xmlns="http://www.w3.org/2000/svg" viewBox="0 0 900 600">
  <!-- White background -->
  <rect width="900" height="600" fill="#FFFFFF"/>
  
  <!-- Taegeuk (Yin-Yang symbol) -->
  <g transform="translate(450,300)">
    <!-- Blue semicircle -->
    <path d="M -60,0 A 60,60 0 0,1 60,0 A 30,30 0 0,1 0,0 A 30,30 0 0,0 -60,0 Z" fill="#003478"/>
    <!-- Red semicircle -->
    <path d="M -60,0 A 60,60 0 0,0 60,0 A 30,30 0 0,0 0,0 A 30,30 0 0,1 -60,0 Z" fill="#CD2E3A"/>
    <!-- Small blue circle -->
    <circle cx="0" cy="-30" r="30" fill="#003478"/>
    <!-- Small red circle -->
    <circle cx="0" cy="30" r="30" fill="#CD2E3A"/>
  </g>
  
  <!-- Four trigrams -->
  <!-- Top-left: geon (heaven) -->
  <g transform="translate(225,150)" fill="#000000">
    <rect x="-40" y="-20" width="80" height="8"/>
    <rect x="-40" y="-4" width="80" height="8"/>
    <rect x="-40" y="12" width="80" height="8"/>
  </g>
  
  <!-- Top-right: ri (fire) -->
  <g transform="translate(675,150)" fill="#000000">
    <rect x="-40" y="-20" width="80" height="8"/>
    <rect x="-40" y="-4" width="35" height="8"/>
    <rect x="5" y="-4" width="35" height="8"/>
    <rect x="-40" y="12" width="80" height="8"/>
  </g>
  
  <!-- Bottom-left: gam (water) -->
  <g transform="translate(225,450)" fill="#000000">
    <rect x="-40" y="-20" width="35" height="8"/>
    <rect x="5" y="-20" width="35" height="8"/>
    <rect x="-40" y="-4" width="80" height="8"/>
    <rect x="-40" y="12" width="35" height="8"/>
    <rect x="5" y="12" width="35" height="8"/>
  </g>
  
  <!-- Bottom-right: gon (earth) -->
  <g transform="translate(675,450)" fill="#000000">
    <rect x="-40" y="-20" width="35" height="8"/>
    <rect x="5" y="-20" width="35" height="8"/>
    <rect x="-40" y="-4" width="35" height="8"/>
    <rect x="5" y="-4" width="35" height="8"/>
    <rect x="-40" y="12" width="35" height="8"/>
    <rect x="5" y="12" width="35" height="8"/>
  </g>
</svg>
