<svg width="24" height="24" viewBox="0 0 24 24" fill="none" xmlns="http://www.w3.org/2000/svg">
<g clip-path="url(#clip0_2_21753)">
<circle cx="12" cy="12" r="12" fill="#D4D4D4"/>
<path d="M12 23.25C18.2132 23.25 23.25 18.2132 23.25 12C23.25 5.7868 18.2132 0.75 12 0.75C5.7868 0.75 0.75 5.7868 0.75 12C0.75 18.2132 5.7868 23.25 12 23.25Z" fill="#F0F0F0"/>
<path d="M23.2474 11.9989C23.2474 7.53875 20.6518 3.68492 16.8887 1.86523V22.1326C20.6518 20.3129 23.2474 16.4591 23.2474 11.9989Z" fill="#D80027"/>
<path d="M0.75 11.9989C0.75 16.4591 3.34563 20.3129 7.10871 22.1326V1.86523C3.34563 3.68492 0.75 7.53875 0.75 11.9989Z" fill="#D80027"/>
<path d="M13.9584 13.4636L15.9149 12.4853L14.9367 11.9962V11.0179L12.9802 11.9962L13.9584 10.0396H12.9802L12.0019 8.57227L11.0236 10.0396H10.0454L11.0236 11.9962L9.06709 11.0179V11.9962L8.08887 12.4853L10.0454 13.4636L9.55625 14.4418H11.5128V15.9092H12.491V14.4418H14.4475L13.9584 13.4636Z" fill="#D80027"/>
</g>
<defs>
<clipPath id="clip0_2_21753">
<rect width="24" height="24" fill="white"/>
</clipPath>
</defs>
</svg>
