<svg width="24" height="24" viewBox="0 0 24 24" fill="none" xmlns="http://www.w3.org/2000/svg">
<circle cx="12" cy="12" r="12" fill="#D4D4D4"/>
<path d="M12.0002 23.2943C18.2377 23.2943 23.2943 18.2377 23.2943 12.0002C23.2943 5.7626 18.2377 0.706055 12.0002 0.706055C5.7626 0.706055 0.706055 5.7626 0.706055 12.0002C0.706055 18.2377 5.7626 23.2943 12.0002 23.2943Z" fill="#F0F0F0"/>
<path d="M11.5098 12.001H23.2949C23.2949 10.9816 23.159 9.99408 22.9058 9.05469H11.5098V12.001Z" fill="#D80027"/>
<path d="M11.5098 6.10646H21.6372C20.9459 4.97829 20.0619 3.9811 19.0312 3.16016H11.5098V6.10646Z" fill="#D80027"/>
<path d="M12.005 23.2951C14.6631 23.2951 17.1062 22.3764 19.0354 20.8398H4.97461C6.90387 22.3764 9.34698 23.2951 12.005 23.2951Z" fill="#D80027"/>
<path d="M2.36626 17.8916H21.6391C22.1942 16.9859 22.6246 15.9959 22.9077 14.9453H1.09766C1.38076 15.9959 1.81122 16.9859 2.36626 17.8916Z" fill="#D80027"/>
<path d="M5.9377 2.46979H6.96692L6.00957 3.1653L6.37526 4.2907L5.41795 3.59519L4.46064 4.2907L4.77653 3.31848C3.93361 4.02061 3.19482 4.84323 2.586 5.75982H2.91578L2.30638 6.20254C2.21144 6.36092 2.12038 6.52182 2.03311 6.6851L2.32411 7.58073L1.7812 7.18628C1.64625 7.4722 1.5228 7.76457 1.41185 8.06303L1.73245 9.04985H2.91578L1.95842 9.74536L2.32411 10.8708L1.3668 10.1752L0.793364 10.5919C0.735966 11.0533 0.706055 11.5232 0.706055 12.0002H12.0002C12.0002 5.76264 12.0002 5.02729 12.0002 0.706055C9.76906 0.706055 7.68922 1.35326 5.9377 2.46979ZM6.37526 10.8708L5.41795 10.1752L4.46064 10.8708L4.82633 9.74536L3.86898 9.04985H5.0523L5.41795 7.92445L5.7836 9.04985H6.96692L6.00957 9.74536L6.37526 10.8708ZM6.00957 6.45533L6.37526 7.58073L5.41795 6.88522L4.46064 7.58073L4.82633 6.45533L3.86898 5.75982H5.0523L5.41795 4.63442L5.7836 5.75982H6.96692L6.00957 6.45533ZM10.4264 10.8708L9.4691 10.1752L8.51179 10.8708L8.87748 9.74536L7.92013 9.04985H9.10345L9.4691 7.92445L9.83475 9.04985H11.0181L10.0607 9.74536L10.4264 10.8708ZM10.0607 6.45533L10.4264 7.58073L9.4691 6.88522L8.51179 7.58073L8.87748 6.45533L7.92013 5.75982H9.10345L9.4691 4.63442L9.83475 5.75982H11.0181L10.0607 6.45533ZM10.0607 3.1653L10.4264 4.2907L9.4691 3.59519L8.51179 4.2907L8.87748 3.1653L7.92013 2.46979H9.10345L9.4691 1.34439L9.83475 2.46979H11.0181L10.0607 3.1653Z" fill="#0052B4"/>
</svg>
