<svg width="24" height="24" viewBox="0 0 24 24" fill="none" xmlns="http://www.w3.org/2000/svg">
<circle cx="12" cy="12" r="12" fill="#D4D4D4"/>
<mask id="mask0_2_21530" style="mask-type:luminance" maskUnits="userSpaceOnUse" x="1" y="1" width="22" height="22">
<path d="M12 23C18.0751 23 23 18.0751 23 12C23 5.92487 18.0751 1 12 1C5.92487 1 1 5.92487 1 12C1 18.0751 5.92487 23 12 23Z" fill="white"/>
</mask>
<g mask="url(#mask0_2_21530)">
<path d="M-11.144 1H32.944V23.044H-11.144V1Z" fill="#05AFCA"/>
</g>
<mask id="mask1_2_21530" style="mask-type:luminance" maskUnits="userSpaceOnUse" x="1" y="1" width="22" height="22">
<path d="M12 23C18.0751 23 23 18.0751 23 12C23 5.92487 18.0751 1 12 1C5.92487 1 1 5.92487 1 12C1 18.0751 5.92487 23 12 23Z" fill="white"/>
</mask>
<g mask="url(#mask1_2_21530)">
<path d="M16.7399 10.2586C16.7399 11.8965 15.412 13.2247 13.7738 13.2247C12.1359 13.2247 10.8077 11.8965 10.8077 10.2586C10.8077 8.62036 12.1359 7.29248 13.7738 7.29248C15.412 7.29248 16.7399 8.62036 16.7399 10.2586Z" fill="#FEC613"/>
</g>
<mask id="mask2_2_21530" style="mask-type:luminance" maskUnits="userSpaceOnUse" x="1" y="1" width="22" height="22">
<path d="M12 23C18.0751 23 23 18.0751 23 12C23 5.92487 18.0751 1 12 1C5.92487 1 1 5.92487 1 12C1 18.0751 5.92487 23 12 23Z" fill="white"/>
</mask>
<g mask="url(#mask2_2_21530)">
<path d="M13.7739 6.88806C13.9504 6.8856 14.0164 6.77544 14.0164 6.64335C14.0164 6.46691 13.7739 5.62695 13.7739 5.62695C13.7739 5.62695 13.5314 6.46694 13.5314 6.64335C13.5314 6.77546 13.5977 6.88806 13.7739 6.88806Z" fill="#FEC613"/>
</g>
<mask id="mask3_2_21530" style="mask-type:luminance" maskUnits="userSpaceOnUse" x="1" y="1" width="22" height="22">
<path d="M12 23C18.0751 23 23 18.0751 23 12C23 5.92487 18.0751 1 12 1C5.92487 1 1 5.92487 1 12C1 18.0751 5.92487 23 12 23Z" fill="white"/>
</mask>
<g mask="url(#mask3_2_21530)">
<path d="M17.1443 10.2586C17.1464 10.4348 17.2569 10.5011 17.389 10.5011C17.5655 10.5011 18.4054 10.2586 18.4054 10.2586C18.4054 10.2586 17.5655 10.0161 17.389 10.0161C17.2569 10.0161 17.1443 10.0821 17.1443 10.2586Z" fill="#FEC613"/>
</g>
<mask id="mask4_2_21530" style="mask-type:luminance" maskUnits="userSpaceOnUse" x="1" y="1" width="22" height="22">
<path d="M12 23C18.0751 23 23 18.0751 23 12C23 5.92487 18.0751 1 12 1C5.92487 1 1 5.92487 1 12C1 18.0751 5.92487 23 12 23Z" fill="white"/>
</mask>
<g mask="url(#mask4_2_21530)">
<path d="M13.7739 13.6289C13.5977 13.6311 13.5314 13.7412 13.5314 13.8736C13.5314 14.0498 13.7739 14.8897 13.7739 14.8897C13.7739 14.8897 14.0164 14.0498 14.0164 13.8736C14.0164 13.7412 13.9504 13.6289 13.7739 13.6289Z" fill="#FEC613"/>
</g>
<mask id="mask5_2_21530" style="mask-type:luminance" maskUnits="userSpaceOnUse" x="1" y="1" width="22" height="22">
<path d="M12 23C18.0751 23 23 18.0751 23 12C23 5.92487 18.0751 1 12 1C5.92487 1 1 5.92487 1 12C1 18.0751 5.92487 23 12 23Z" fill="white"/>
</mask>
<g mask="url(#mask5_2_21530)">
<path d="M10.4034 10.2586C10.4013 10.0821 10.2912 10.0161 10.1587 10.0161C9.98222 10.0161 9.1427 10.2586 9.1427 10.2586C9.1427 10.2586 9.98222 10.5011 10.1587 10.5011C10.2912 10.5011 10.4034 10.4348 10.4034 10.2586Z" fill="#FEC613"/>
</g>
<mask id="mask6_2_21530" style="mask-type:luminance" maskUnits="userSpaceOnUse" x="1" y="1" width="22" height="22">
<path d="M12 23C18.0751 23 23 18.0751 23 12C23 5.92487 18.0751 1 12 1C5.92487 1 1 5.92487 1 12C1 18.0751 5.92487 23 12 23Z" fill="white"/>
</mask>
<g mask="url(#mask6_2_21530)">
<path d="M15.0637 7.14466C15.2277 7.20995 15.3307 7.13355 15.3816 7.01121C15.449 6.84836 15.5463 5.97974 15.5463 5.97974C15.5463 5.97974 15.0009 6.66281 14.9335 6.82577C14.8829 6.94809 14.9008 7.07725 15.0637 7.14466Z" fill="#FEC613"/>
</g>
<mask id="mask7_2_21530" style="mask-type:luminance" maskUnits="userSpaceOnUse" x="1" y="1" width="22" height="22">
<path d="M12 23C18.0751 23 23 18.0751 23 12C23 5.92487 18.0751 1 12 1C5.92487 1 1 5.92487 1 12C1 18.0751 5.92487 23 12 23Z" fill="white"/>
</mask>
<g mask="url(#mask7_2_21530)">
<path d="M16.8878 11.5484C16.8225 11.712 16.8989 11.8153 17.0212 11.8659C17.1841 11.9334 18.0528 12.0309 18.0528 12.0309C18.0528 12.0309 17.3696 11.4852 17.2067 11.4178C17.0844 11.3672 16.9552 11.3854 16.8878 11.5484Z" fill="#FEC613"/>
</g>
<mask id="mask8_2_21530" style="mask-type:luminance" maskUnits="userSpaceOnUse" x="1" y="1" width="22" height="22">
<path d="M12 23C18.0751 23 23 18.0751 23 12C23 5.92487 18.0751 1 12 1C5.92487 1 1 5.92487 1 12C1 18.0751 5.92487 23 12 23Z" fill="white"/>
</mask>
<g mask="url(#mask8_2_21530)">
<path d="M12.484 13.3724C12.3204 13.3068 12.2171 13.3836 12.1664 13.5055C12.0991 13.6684 12.0015 14.5374 12.0015 14.5374C12.0015 14.5374 12.5468 13.8543 12.6146 13.6914C12.6652 13.569 12.6469 13.44 12.484 13.3724Z" fill="#FEC613"/>
</g>
<mask id="mask9_2_21530" style="mask-type:luminance" maskUnits="userSpaceOnUse" x="1" y="1" width="22" height="22">
<path d="M12 23C18.0751 23 23 18.0751 23 12C23 5.92487 18.0751 1 12 1C5.92487 1 1 5.92487 1 12C1 18.0751 5.92487 23 12 23Z" fill="white"/>
</mask>
<g mask="url(#mask9_2_21530)">
<path d="M10.6599 8.96865C10.7256 8.80473 10.6488 8.7014 10.5268 8.65078C10.364 8.58328 9.495 8.48608 9.495 8.48608C9.495 8.48608 10.1781 9.0314 10.341 9.09889C10.4633 9.14954 10.5925 9.13154 10.6599 8.96865Z" fill="#FEC613"/>
</g>
<mask id="mask10_2_21530" style="mask-type:luminance" maskUnits="userSpaceOnUse" x="1" y="1" width="22" height="22">
<path d="M12 23C18.0751 23 23 18.0751 23 12C23 5.92487 18.0751 1 12 1C5.92487 1 1 5.92487 1 12C1 18.0751 5.92487 23 12 23Z" fill="white"/>
</mask>
<g mask="url(#mask10_2_21530)">
<path d="M16.1573 7.87521C16.2836 7.99819 16.408 7.96706 16.5017 7.87374C16.6266 7.74893 17.0488 6.98364 17.0488 6.98364C17.0488 6.98364 16.2836 7.40589 16.1587 7.5308C16.0654 7.62437 16.0324 7.75067 16.1573 7.87521Z" fill="#FEC613"/>
</g>
<mask id="mask11_2_21530" style="mask-type:luminance" maskUnits="userSpaceOnUse" x="1" y="1" width="22" height="22">
<path d="M12 23C18.0751 23 23 18.0751 23 12C23 5.92487 18.0751 1 12 1C5.92487 1 1 5.92487 1 12C1 18.0751 5.92487 23 12 23Z" fill="white"/>
</mask>
<g mask="url(#mask11_2_21530)">
<path d="M16.1573 12.6417C16.0342 12.768 16.0654 12.8929 16.1587 12.9865C16.2836 13.111 17.0489 13.5337 17.0489 13.5337C17.0489 13.5337 16.6266 12.768 16.5017 12.6435C16.4081 12.5499 16.2818 12.5172 16.1573 12.6417Z" fill="#FEC613"/>
</g>
<mask id="mask12_2_21530" style="mask-type:luminance" maskUnits="userSpaceOnUse" x="1" y="1" width="22" height="22">
<path d="M12 23C18.0751 23 23 18.0751 23 12C23 5.92487 18.0751 1 12 1C5.92487 1 1 5.92487 1 12C1 18.0751 5.92487 23 12 23Z" fill="white"/>
</mask>
<g mask="url(#mask12_2_21530)">
<path d="M11.3903 12.6416C11.2644 12.5186 11.1396 12.5498 11.0459 12.6434C10.9214 12.7679 10.4988 13.5336 10.4988 13.5336C10.4988 13.5336 11.2644 13.1109 11.389 12.9864C11.4826 12.8928 11.5153 12.7665 11.3903 12.6416Z" fill="#FEC613"/>
</g>
<mask id="mask13_2_21530" style="mask-type:luminance" maskUnits="userSpaceOnUse" x="1" y="1" width="22" height="22">
<path d="M12 23C18.0751 23 23 18.0751 23 12C23 5.92487 18.0751 1 12 1C5.92487 1 1 5.92487 1 12C1 18.0751 5.92487 23 12 23Z" fill="white"/>
</mask>
<g mask="url(#mask13_2_21530)">
<path d="M11.3904 7.87524C11.5138 7.74893 11.4826 7.62439 11.389 7.5308C11.2644 7.40591 10.4988 6.98364 10.4988 6.98364C10.4988 6.98364 10.9214 7.74893 11.0459 7.87374C11.1396 7.96711 11.2659 8.00006 11.3904 7.87524Z" fill="#FEC613"/>
</g>
<mask id="mask14_2_21530" style="mask-type:luminance" maskUnits="userSpaceOnUse" x="1" y="1" width="22" height="22">
<path d="M12 23C18.0751 23 23 18.0751 23 12C23 5.92487 18.0751 1 12 1C5.92487 1 1 5.92487 1 12C1 18.0751 5.92487 23 12 23Z" fill="white"/>
</mask>
<g mask="url(#mask14_2_21530)">
<path d="M16.8877 8.96865C16.9573 9.13079 17.0844 9.14954 17.2067 9.09889C17.3696 9.0314 18.0527 8.48608 18.0527 8.48608C18.0527 8.48608 17.1841 8.58326 17.0212 8.65078C16.8989 8.7014 16.8203 8.80572 16.8877 8.96865Z" fill="#FEC613"/>
</g>
<mask id="mask15_2_21530" style="mask-type:luminance" maskUnits="userSpaceOnUse" x="1" y="1" width="22" height="22">
<path d="M12 23C18.0751 23 23 18.0751 23 12C23 5.92487 18.0751 1 12 1C5.92487 1 1 5.92487 1 12C1 18.0751 5.92487 23 12 23Z" fill="white"/>
</mask>
<g mask="url(#mask15_2_21530)">
<path d="M15.0637 13.3725C14.9015 13.4421 14.8828 13.5691 14.9334 13.6914C15.0009 13.8543 15.5463 14.5375 15.5463 14.5375C15.5463 14.5375 15.449 13.6685 15.3816 13.5056C15.3306 13.3836 15.2266 13.305 15.0637 13.3725Z" fill="#FEC613"/>
</g>
<mask id="mask16_2_21530" style="mask-type:luminance" maskUnits="userSpaceOnUse" x="1" y="1" width="22" height="22">
<path d="M12 23C18.0751 23 23 18.0751 23 12C23 5.92487 18.0751 1 12 1C5.92487 1 1 5.92487 1 12C1 18.0751 5.92487 23 12 23Z" fill="white"/>
</mask>
<g mask="url(#mask16_2_21530)">
<path d="M10.6599 11.5485C10.5903 11.3863 10.4634 11.3673 10.341 11.4179C10.1781 11.4853 9.495 12.031 9.495 12.031C9.495 12.031 10.364 11.9334 10.5268 11.866C10.6488 11.8154 10.7274 11.7113 10.6599 11.5485Z" fill="#FEC613"/>
</g>
<mask id="mask17_2_21530" style="mask-type:luminance" maskUnits="userSpaceOnUse" x="1" y="1" width="22" height="22">
<path d="M12 23C18.0751 23 23 18.0751 23 12C23 5.92487 18.0751 1 12 1C5.92487 1 1 5.92487 1 12C1 18.0751 5.92487 23 12 23Z" fill="white"/>
</mask>
<g mask="url(#mask17_2_21530)">
<path d="M12.484 7.14468C12.6462 7.07516 12.6652 6.94811 12.6146 6.82577C12.5468 6.66284 12.0015 5.97974 12.0015 5.97974C12.0015 5.97974 12.0991 6.84836 12.1664 7.01121C12.2171 7.13355 12.3211 7.21218 12.484 7.14468Z" fill="#FEC613"/>
</g>
<mask id="mask18_2_21530" style="mask-type:luminance" maskUnits="userSpaceOnUse" x="1" y="1" width="22" height="22">
<path d="M12 23C18.0751 23 23 18.0751 23 12C23 5.92487 18.0751 1 12 1C5.92487 1 1 5.92487 1 12C1 18.0751 5.92487 23 12 23Z" fill="white"/>
</mask>
<g mask="url(#mask18_2_21530)">
<path d="M14.4314 6.95262C14.6047 6.98487 14.6912 6.88978 14.717 6.7599C14.7515 6.58695 14.6776 5.71582 14.6776 5.71582C14.6776 5.71582 14.2757 6.49224 14.2413 6.66521C14.2155 6.79507 14.2585 6.91816 14.4314 6.95262Z" fill="#FEC613"/>
</g>
<mask id="mask19_2_21530" style="mask-type:luminance" maskUnits="userSpaceOnUse" x="1" y="1" width="22" height="22">
<path d="M12 23C18.0751 23 23 18.0751 23 12C23 5.92487 18.0751 1 12 1C5.92487 1 1 5.92487 1 12C1 18.0751 5.92487 23 12 23Z" fill="white"/>
</mask>
<g mask="url(#mask19_2_21530)">
<path d="M17.0797 10.9163C17.0474 11.0897 17.1425 11.1757 17.2724 11.2015C17.4453 11.2359 18.3165 11.1621 18.3165 11.1621C18.3165 11.1621 17.54 10.7606 17.3671 10.7262C17.2372 10.7003 17.1142 10.743 17.0797 10.9163Z" fill="#FEC613"/>
</g>
<mask id="mask20_2_21530" style="mask-type:luminance" maskUnits="userSpaceOnUse" x="1" y="1" width="22" height="22">
<path d="M12 23C18.0751 23 23 18.0751 23 12C23 5.92487 18.0751 1 12 1C5.92487 1 1 5.92487 1 12C1 18.0751 5.92487 23 12 23Z" fill="white"/>
</mask>
<g mask="url(#mask20_2_21530)">
<path d="M13.1162 13.5641C12.9429 13.5321 12.8564 13.6272 12.8309 13.7571C12.7965 13.93 12.8704 14.8008 12.8704 14.8008C12.8704 14.8008 13.2719 14.0244 13.3063 13.8514C13.3322 13.722 13.2895 13.5985 13.1162 13.5641Z" fill="#FEC613"/>
</g>
<mask id="mask21_2_21530" style="mask-type:luminance" maskUnits="userSpaceOnUse" x="1" y="1" width="22" height="22">
<path d="M12 23C18.0751 23 23 18.0751 23 12C23 5.92487 18.0751 1 12 1C5.92487 1 1 5.92487 1 12C1 18.0751 5.92487 23 12 23Z" fill="white"/>
</mask>
<g mask="url(#mask21_2_21530)">
<path d="M10.4683 9.60094C10.5003 9.42761 10.4052 9.34108 10.2754 9.3153C10.1024 9.28087 9.23157 9.35476 9.23157 9.35476C9.23157 9.35476 10.008 9.75662 10.1809 9.79107C10.3104 9.8169 10.4339 9.7738 10.4683 9.60094Z" fill="#FEC613"/>
</g>
<mask id="mask22_2_21530" style="mask-type:luminance" maskUnits="userSpaceOnUse" x="1" y="1" width="22" height="22">
<path d="M12 23C18.0751 23 23 18.0751 23 12C23 5.92487 18.0751 1 12 1C5.92487 1 1 5.92487 1 12C1 18.0751 5.92487 23 12 23Z" fill="white"/>
</mask>
<g mask="url(#mask22_2_21530)">
<path d="M15.6463 7.45608C15.7942 7.55224 15.9104 7.49729 15.984 7.3872C16.0819 7.24077 16.3471 6.40771 16.3471 6.40771C16.3471 6.40771 15.6786 6.97142 15.5807 7.1177C15.5071 7.22794 15.4999 7.35818 15.6463 7.45608Z" fill="#FEC613"/>
</g>
<mask id="mask23_2_21530" style="mask-type:luminance" maskUnits="userSpaceOnUse" x="1" y="1" width="22" height="22">
<path d="M12 23C18.0751 23 23 18.0751 23 12C23 5.92487 18.0751 1 12 1C5.92487 1 1 5.92487 1 12C1 18.0751 5.92487 23 12 23Z" fill="white"/>
</mask>
<g mask="url(#mask23_2_21530)">
<path d="M16.5763 12.1311C16.4802 12.2789 16.5351 12.395 16.6452 12.4687C16.7916 12.5666 17.6247 12.8313 17.6247 12.8313C17.6247 12.8313 17.061 12.1634 16.9147 12.0654C16.8045 11.9918 16.6743 11.9843 16.5763 12.1311Z" fill="#FEC613"/>
</g>
<mask id="mask24_2_21530" style="mask-type:luminance" maskUnits="userSpaceOnUse" x="1" y="1" width="22" height="22">
<path d="M12 23C18.0751 23 23 18.0751 23 12C23 5.92487 18.0751 1 12 1C5.92487 1 1 5.92487 1 12C1 18.0751 5.92487 23 12 23Z" fill="white"/>
</mask>
<g mask="url(#mask24_2_21530)">
<path d="M11.9013 13.061C11.7534 12.965 11.6372 13.0198 11.5637 13.1296C11.4658 13.2764 11.2009 14.1095 11.2009 14.1095C11.2009 14.1095 11.869 13.5458 11.967 13.3991C12.0405 13.2893 12.048 13.159 11.9013 13.061Z" fill="#FEC613"/>
</g>
<mask id="mask25_2_21530" style="mask-type:luminance" maskUnits="userSpaceOnUse" x="1" y="1" width="22" height="22">
<path d="M12 23C18.0751 23 23 18.0751 23 12C23 5.92487 18.0751 1 12 1C5.92487 1 1 5.92487 1 12C1 18.0751 5.92487 23 12 23Z" fill="white"/>
</mask>
<g mask="url(#mask25_2_21530)">
<path d="M10.9713 8.386C11.0675 8.23823 11.0126 8.12194 10.9028 8.04835C10.756 7.95045 9.92297 7.6853 9.92297 7.6853C9.92297 7.6853 10.4865 8.35368 10.6333 8.45167C10.7431 8.52526 10.8733 8.53239 10.9713 8.386Z" fill="#FEC613"/>
</g>
<mask id="mask26_2_21530" style="mask-type:luminance" maskUnits="userSpaceOnUse" x="1" y="1" width="22" height="22">
<path d="M12 23C18.0751 23 23 18.0751 23 12C23 5.92487 18.0751 1 12 1C5.92487 1 1 5.92487 1 12C1 18.0751 5.92487 23 12 23Z" fill="white"/>
</mask>
<g mask="url(#mask26_2_21530)">
<path d="M16.5764 8.386C16.6761 8.53131 16.8046 8.52526 16.9147 8.45167C17.0611 8.35366 17.6248 7.6853 17.6248 7.6853C17.6248 7.6853 16.7916 7.95045 16.6453 8.04835C16.5351 8.12194 16.4784 8.23922 16.5764 8.386Z" fill="#FEC613"/>
</g>
<mask id="mask27_2_21530" style="mask-type:luminance" maskUnits="userSpaceOnUse" x="1" y="1" width="22" height="22">
<path d="M12 23C18.0751 23 23 18.0751 23 12C23 5.92487 18.0751 1 12 1C5.92487 1 1 5.92487 1 12C1 18.0751 5.92487 23 12 23Z" fill="white"/>
</mask>
<g mask="url(#mask27_2_21530)">
<path d="M15.6464 13.0611C15.5011 13.1609 15.5071 13.2894 15.5807 13.3992C15.6786 13.5459 16.3471 14.1096 16.3471 14.1096C16.3471 14.1096 16.0819 13.2764 15.984 13.1297C15.9104 13.0199 15.7931 12.9632 15.6464 13.0611Z" fill="#FEC613"/>
</g>
<mask id="mask28_2_21530" style="mask-type:luminance" maskUnits="userSpaceOnUse" x="1" y="1" width="22" height="22">
<path d="M12 23C18.0751 23 23 18.0751 23 12C23 5.92487 18.0751 1 12 1C5.92487 1 1 5.92487 1 12C1 18.0751 5.92487 23 12 23Z" fill="white"/>
</mask>
<g mask="url(#mask28_2_21530)">
<path d="M10.9713 12.1312C10.8715 11.9858 10.7431 11.9919 10.6333 12.0655C10.4865 12.1634 9.92297 12.8314 9.92297 12.8314C9.92297 12.8314 10.756 12.5667 10.9028 12.4687C11.0126 12.3951 11.0692 12.2778 10.9713 12.1312Z" fill="#FEC613"/>
</g>
<mask id="mask29_2_21530" style="mask-type:luminance" maskUnits="userSpaceOnUse" x="1" y="1" width="22" height="22">
<path d="M12 23C18.0751 23 23 18.0751 23 12C23 5.92487 18.0751 1 12 1C5.92487 1 1 5.92487 1 12C1 18.0751 5.92487 23 12 23Z" fill="white"/>
</mask>
<g mask="url(#mask29_2_21530)">
<path d="M11.9013 7.45608C12.0466 7.35633 12.0405 7.22794 11.967 7.1177C11.869 6.9714 11.2009 6.40771 11.2009 6.40771C11.2009 6.40771 11.4658 7.24079 11.5637 7.3872C11.6372 7.49729 11.7545 7.55398 11.9013 7.45608Z" fill="#FEC613"/>
</g>
<mask id="mask30_2_21530" style="mask-type:luminance" maskUnits="userSpaceOnUse" x="1" y="1" width="22" height="22">
<path d="M12 23C18.0751 23 23 18.0751 23 12C23 5.92487 18.0751 1 12 1C5.92487 1 1 5.92487 1 12C1 18.0751 5.92487 23 12 23Z" fill="white"/>
</mask>
<g mask="url(#mask30_2_21530)">
<path d="M17.0797 9.60094C17.1163 9.77351 17.2372 9.8169 17.3671 9.79107C17.5401 9.75662 18.3165 9.35476 18.3165 9.35476C18.3165 9.35476 17.4453 9.28087 17.2724 9.3153C17.1425 9.34108 17.0453 9.42796 17.0797 9.60094Z" fill="#FEC613"/>
</g>
<mask id="mask31_2_21530" style="mask-type:luminance" maskUnits="userSpaceOnUse" x="1" y="1" width="22" height="22">
<path d="M12 23C18.0751 23 23 18.0751 23 12C23 5.92487 18.0751 1 12 1C5.92487 1 1 5.92487 1 12C1 18.0751 5.92487 23 12 23Z" fill="white"/>
</mask>
<g mask="url(#mask31_2_21530)">
<path d="M14.4315 13.564C14.259 13.6007 14.2155 13.7219 14.2414 13.8514C14.2758 14.0243 14.6777 14.8007 14.6777 14.8007C14.6777 14.8007 14.7516 13.93 14.7171 13.757C14.6913 13.6271 14.6045 13.5299 14.4315 13.564Z" fill="#FEC613"/>
</g>
<mask id="mask32_2_21530" style="mask-type:luminance" maskUnits="userSpaceOnUse" x="1" y="1" width="22" height="22">
<path d="M12 23C18.0751 23 23 18.0751 23 12C23 5.92487 18.0751 1 12 1C5.92487 1 1 5.92487 1 12C1 18.0751 5.92487 23 12 23Z" fill="white"/>
</mask>
<g mask="url(#mask32_2_21530)">
<path d="M10.4683 10.9163C10.4317 10.7437 10.3104 10.7002 10.1809 10.7262C10.008 10.7606 9.23157 11.1621 9.23157 11.1621C9.23157 11.1621 10.1024 11.2359 10.2754 11.2014C10.4052 11.1757 10.5024 11.0892 10.4683 10.9163Z" fill="#FEC613"/>
</g>
<mask id="mask33_2_21530" style="mask-type:luminance" maskUnits="userSpaceOnUse" x="1" y="1" width="22" height="22">
<path d="M12 23C18.0751 23 23 18.0751 23 12C23 5.92487 18.0751 1 12 1C5.92487 1 1 5.92487 1 12C1 18.0751 5.92487 23 12 23Z" fill="white"/>
</mask>
<g mask="url(#mask33_2_21530)">
<path d="M13.1162 6.95259C13.2887 6.91594 13.3321 6.79503 13.3063 6.66521C13.2719 6.49222 12.8704 5.71582 12.8704 5.71582C12.8704 5.71582 12.7965 6.58695 12.8309 6.7599C12.8564 6.88976 12.9432 6.98705 13.1162 6.95259Z" fill="#FEC613"/>
</g>
<mask id="mask34_2_21530" style="mask-type:luminance" maskUnits="userSpaceOnUse" x="1" y="1" width="22" height="22">
<path d="M12 23C18.0751 23 23 18.0751 23 12C23 5.92487 18.0751 1 12 1C5.92487 1 1 5.92487 1 12C1 18.0751 5.92487 23 12 23Z" fill="white"/>
</mask>
<g mask="url(#mask34_2_21530)">
<path d="M13.2447 16.6838C13.1655 16.6881 13.0883 16.6982 13.0125 16.7226C12.9088 16.7366 12.8098 16.7725 12.7068 16.7893L12.6656 16.7961L12.5967 16.8026C12.601 16.822 12.6039 16.841 12.6039 16.86C12.6039 16.8797 12.6017 16.8991 12.5967 16.9153C12.5924 16.9307 12.5784 16.9497 12.5673 16.9616C12.5526 16.9777 12.5371 16.9917 12.5188 17.0003C12.5012 17.0093 12.4812 17.0129 12.4614 17.0143C12.4417 17.015 12.4213 17.0143 12.4019 17.0072C12.3822 17.0003 12.3638 16.9877 12.347 16.9731C12.3262 16.9784 12.305 16.982 12.2853 16.9842C12.2645 16.9863 12.2454 16.9863 12.2271 16.9842C12.2063 16.9784 12.1852 16.9716 12.1654 16.9637C12.1457 16.9555 12.1263 16.9454 12.108 16.9336C12.033 16.9777 11.9494 17.0193 11.9039 17.0965C11.878 17.132 11.873 17.1722 11.8669 17.2142C11.8634 17.2658 11.8766 17.32 11.8985 17.3677C11.9067 17.3817 11.9133 17.3171 11.9383 17.3082C11.9803 17.2737 12.0323 17.2486 12.0854 17.235C12.1299 17.212 12.1242 17.2364 12.1059 17.2716C12.1016 17.2899 12.0765 17.3598 12.1102 17.3243C12.2594 17.2583 12.4249 17.245 12.5856 17.2325C12.8195 17.2084 13.0538 17.203 13.2881 17.2001C13.5088 17.203 13.7291 17.2062 13.9494 17.2141C14.0545 17.217 14.1603 17.2407 14.264 17.2231C14.2891 17.2163 14.3279 17.2149 14.3426 17.2001C14.2956 17.1729 14.2403 17.1722 14.1883 17.1657H13.7678C13.6512 17.1539 13.5292 17.1524 13.419 17.1083C13.3896 17.0965 13.3624 17.0688 13.3344 17.099C13.2924 17.1137 13.2479 17.1237 13.2038 17.1266C13.1266 17.1327 13.0495 17.1166 12.9781 17.0878C13.0294 17.0165 13.0911 16.954 13.1478 16.888C13.1022 16.8805 13.0581 16.8711 13.0125 16.86C13.0926 16.8048 13.1668 16.7423 13.2447 16.6838Z" fill="#FEC613"/>
</g>
<mask id="mask35_2_21530" style="mask-type:luminance" maskUnits="userSpaceOnUse" x="1" y="1" width="22" height="22">
<path d="M12 23C18.0751 23 23 18.0751 23 12C23 5.92487 18.0751 1 12 1C5.92487 1 1 5.92487 1 12C1 18.0751 5.92487 23 12 23Z" fill="white"/>
</mask>
<g mask="url(#mask35_2_21530)">
<path d="M12.1058 16.9105C12.2303 17.0246 12.3175 16.889 12.4337 16.8398C12.8238 16.7056 13.1639 16.4711 13.4994 16.2371C13.7028 16.0688 13.879 15.8507 14.152 15.7961C14.6844 15.635 15.2503 15.6548 15.7848 15.5059C16.1921 14.9487 16.8831 14.7499 17.4626 14.4295C17.5924 14.3893 17.6427 14.282 17.6843 14.164C17.9053 13.8149 18.2063 13.506 18.5626 13.2946C18.7309 13.2024 18.9322 13.1497 19.1227 13.1917C19.109 13.4188 18.9788 13.6201 18.8213 13.7772C18.9501 13.7743 19.061 13.6933 19.1912 13.6975C19.2357 13.9308 18.9838 14.0531 18.85 14.1981C18.9246 14.2156 19.2102 14.2372 19.0545 14.3118C18.8561 14.4496 18.6293 14.5443 18.446 14.7043C18.6153 14.7344 18.6344 14.7707 18.4625 14.8317C18.3696 14.8948 18.1905 14.9167 18.1733 15.0398C18.3011 15.1183 18.1145 15.1962 18.0424 15.2217C17.9049 15.2536 17.7603 15.3136 17.943 15.418C17.8741 15.5224 17.7255 15.5446 17.6046 15.5346C17.6412 15.653 17.6943 15.7853 17.5408 15.8374C17.1963 16.0979 16.7923 16.2874 16.3593 16.3304C16.9 16.372 17.4572 16.2719 17.9193 15.9777C17.9803 15.9056 18.3003 15.8282 18.1213 15.7674C18.037 15.7323 17.8565 15.6931 17.8443 15.6289C18.0944 15.4746 18.4101 15.5296 18.6792 15.4378C18.6864 15.3505 18.4743 15.3749 18.3954 15.3548C18.207 15.3394 18.2182 15.2917 18.3997 15.2737C18.6297 15.2128 18.8898 15.2009 19.0828 15.0509C18.9257 14.9781 18.7276 15.0423 18.5597 14.9827C18.8446 14.8583 19.1801 14.8457 19.4355 14.6587C19.5518 14.5292 19.2866 14.5698 19.2091 14.573C19.0516 14.6003 18.9788 14.5249 19.1578 14.4593C19.4636 14.234 19.8507 14.0876 20.0656 13.7607C20.1165 13.6875 20.1854 13.4672 20.0229 13.5465C19.8098 13.6172 19.6218 13.8572 19.3789 13.783C19.8579 13.4116 20.3135 12.9889 20.6411 12.4752C20.658 12.327 20.4255 12.3109 20.3648 12.4271C20.057 12.7238 19.7786 13.074 19.3843 13.2599C19.7617 12.8957 20.0739 12.4644 20.3462 12.0174C20.4047 11.8842 20.5615 11.7242 20.4761 11.5767C20.339 11.463 20.1675 11.5671 20.0961 11.703C19.8568 12.0152 19.6752 12.3801 19.3674 12.6345C19.6368 12.1203 19.9156 11.5728 19.9224 10.9801C19.9217 10.8581 19.897 10.678 19.7312 10.701C19.5999 10.7247 19.6311 10.9213 19.5769 11.0207C19.4574 11.4257 19.4014 11.8645 19.1571 12.2194C19.212 11.8899 19.3082 11.547 19.2343 11.2144C19.1998 11.0659 18.9598 11.1297 18.991 11.2769C18.7043 12.7288 17.7302 13.9982 16.4562 14.733C15.8728 15.0631 15.2209 15.2759 14.5582 15.3724C14.3799 15.4111 14.1868 15.3882 14.0164 15.4491C13.6034 15.766 13.3533 16.2959 12.8302 16.4617C12.596 16.5783 12.2903 16.602 12.1227 16.8197C12.1083 16.8474 12.1051 16.8796 12.1058 16.9105ZM16.6779 17.4451C16.5178 17.5409 16.3962 17.3708 16.2628 17.3199C16.1673 17.3716 16.1583 17.5449 16.0694 17.627C15.9628 17.7483 15.8322 17.5933 15.8419 17.4735C15.7145 17.5811 15.6499 17.8243 15.4436 17.7921C15.346 17.7124 15.2736 17.5449 15.1989 17.7354C15.1379 17.8287 14.9761 17.9611 14.8922 17.8204C14.8663 17.6962 14.8039 17.5503 14.7365 17.7476C14.6902 17.8868 14.5413 17.9894 14.3974 17.9284C14.3188 17.8642 14.4606 17.6259 14.3605 17.6428C14.2105 17.7418 14.1233 17.988 13.9141 17.9682C13.833 17.8771 13.9632 17.7224 13.8743 17.6213C13.7692 17.7562 13.6525 17.9539 13.4706 17.9682C13.3827 17.8968 13.4739 17.6927 13.418 17.6625C13.2313 17.7745 13.0343 17.9739 12.7997 17.9115C12.8912 17.5613 13.2733 17.4386 13.5948 17.4114C14.1477 17.3437 14.7296 17.4684 15.2617 17.2689C15.3478 17.2166 15.5559 17.1423 15.482 17.021C15.4164 16.9252 15.6528 16.9625 15.6754 16.8506C15.6614 16.7089 15.7841 16.7286 15.904 16.716C16.4415 16.6927 16.9721 16.8061 17.5078 16.8251C17.5483 17.0863 17.2588 17.2696 17.0255 17.1889C16.9143 17.2069 16.7475 16.9331 16.7801 17.1322C16.7575 17.237 16.7733 17.3751 16.6779 17.4451Z" fill="#FEC613"/>
</g>
<mask id="mask36_2_21530" style="mask-type:luminance" maskUnits="userSpaceOnUse" x="1" y="1" width="22" height="22">
<path d="M12 23C18.0751 23 23 18.0751 23 12C23 5.92487 18.0751 1 12 1C5.92487 1 1 5.92487 1 12C1 18.0751 5.92487 23 12 23Z" fill="white"/>
</mask>
<g mask="url(#mask36_2_21530)">
<path d="M13.6709 15.4377C13.5937 15.5779 13.5485 15.7387 13.4492 15.8642C13.1506 15.5926 12.7179 15.6016 12.3394 15.5833C12.0269 15.5668 11.6868 15.5381 11.4453 15.3149C11.1909 15.1068 10.9832 14.8363 10.699 14.667C10.4397 14.5966 10.1781 14.5084 9.96928 14.3304C9.52363 13.9673 9.26856 13.428 8.833 13.0535C8.74969 12.9717 8.65179 12.9082 8.55886 12.8389C8.4706 12.8605 8.51042 13.0513 8.40242 12.9541C8.34353 12.9121 8.19613 12.9082 8.18282 12.9666C8.316 13.1421 8.44943 13.3423 8.46774 13.5669C8.37701 13.5762 8.21551 13.5475 8.17072 13.5816C8.29123 13.7621 8.44591 13.9225 8.6213 14.0502C8.53735 14.0638 8.37122 14.0563 8.33897 14.0904C8.5133 14.2325 8.70021 14.3777 8.92846 14.414C8.97501 14.4757 8.8602 14.5948 8.95678 14.6472C9.01305 14.6702 9.19825 14.7086 9.07045 14.7724C8.98291 14.8313 9.0156 14.9687 9.12758 14.9658C9.19823 15.0017 9.35722 15.0107 9.36967 15.0731C9.30697 15.137 9.11179 15.2127 9.27782 15.2726C9.43286 15.3587 9.6098 15.4148 9.78699 15.4207C9.69807 15.4954 9.58857 15.5381 9.4971 15.6084C9.90612 15.8481 10.3593 16.0056 10.8074 16.1577C10.9857 16.2172 11.1658 16.2729 11.351 16.3077C10.8139 16.2768 10.2944 16.1175 9.80525 15.9001C9.55163 15.7888 9.2965 15.6812 9.03637 15.5854C9.15055 15.5262 9.28218 15.5119 9.40058 15.4606C9.15513 15.4114 8.88712 15.3953 8.67157 15.2604C8.70455 15.2015 8.8297 15.1987 8.89896 15.1685C9.0296 15.1373 9.11031 15.0996 8.92664 15.0881C8.74118 15.0379 8.52874 15.0605 8.36553 14.9486C8.37589 14.8815 8.54703 14.9051 8.61663 14.8761C8.70417 14.861 8.80141 14.8485 8.8717 14.7893C8.58502 14.6705 8.21049 14.7548 7.98625 14.5019C7.93417 14.4054 8.14663 14.4832 8.20726 14.4671C8.36082 14.4671 8.52626 14.5159 8.67256 14.4538C8.25528 14.2708 7.80824 14.099 7.48973 13.7603C7.45457 13.7058 7.34862 13.5569 7.43407 13.5386C7.68159 13.5712 7.86107 13.8416 8.12617 13.7994C8.16134 13.752 7.97221 13.6742 7.92489 13.6064C7.53848 13.2748 7.16353 12.915 6.89269 12.4808C6.87395 12.3359 7.10218 12.314 7.1621 12.4259C7.45774 12.7105 7.72469 13.0427 8.09246 13.2372C8.22305 13.3003 8.01751 13.1622 7.99021 13.112C7.65013 12.7169 7.32644 12.3 7.08854 11.835C7.04619 11.7511 6.97554 11.5993 7.10297 11.5548C7.23024 11.491 7.35654 11.5778 7.42111 11.6872C7.67088 12.0026 7.85493 12.3772 8.1664 12.6402C7.90122 12.1249 7.61777 11.5832 7.61095 10.9905C7.61704 10.8757 7.62454 10.702 7.78035 10.7067C7.91123 10.6869 7.89044 10.8541 7.93356 10.9341C8.06232 11.3694 8.11825 11.8404 8.37701 12.2247C8.31996 11.9017 8.23566 11.5695 8.29158 11.2412C8.30454 11.1332 8.42578 11.1006 8.50507 11.1659C8.56898 11.3227 8.58256 11.5161 8.6407 11.6836C8.97257 12.8192 9.71815 13.8184 10.6893 14.4886C11.4894 15.0372 12.4388 15.3648 13.4079 15.4218C13.4954 15.4294 13.5833 15.4323 13.6709 15.4377Z" fill="#FEC613"/>
</g>
<mask id="mask37_2_21530" style="mask-type:luminance" maskUnits="userSpaceOnUse" x="1" y="1" width="22" height="22">
<path d="M12 23C18.0751 23 23 18.0751 23 12C23 5.92487 18.0751 1 12 1C5.92487 1 1 5.92487 1 12C1 18.0751 5.92487 23 12 23Z" fill="white"/>
</mask>
<g mask="url(#mask37_2_21530)">
<path d="M12.493 16.8911C12.493 16.9202 12.4696 16.9435 12.4409 16.9435C12.4119 16.9435 12.3885 16.9202 12.3885 16.8911C12.3885 16.8624 12.4119 16.8391 12.4409 16.8391C12.4696 16.8391 12.493 16.8625 12.493 16.8911Z" fill="#FEC613"/>
</g>
<mask id="mask38_2_21530" style="mask-type:luminance" maskUnits="userSpaceOnUse" x="1" y="1" width="22" height="22">
<path d="M12 23C18.0751 23 23 18.0751 23 12C23 5.92487 18.0751 1 12 1C5.92487 1 1 5.92487 1 12C1 18.0751 5.92487 23 12 23Z" fill="white"/>
</mask>
<g mask="url(#mask38_2_21530)">
<path d="M12.4579 16.8828C12.4579 16.8946 12.4482 16.9039 12.4367 16.9039C12.4249 16.9039 12.4152 16.8946 12.4152 16.8828C12.4152 16.8709 12.4248 16.8616 12.4367 16.8616C12.4482 16.8616 12.4579 16.8709 12.4579 16.8828Z" fill="#FEC613"/>
</g>
<mask id="mask39_2_21530" style="mask-type:luminance" maskUnits="userSpaceOnUse" x="1" y="1" width="22" height="22">
<path d="M12 23C18.0751 23 23 18.0751 23 12C23 5.92487 18.0751 1 12 1C5.92487 1 1 5.92487 1 12C1 18.0751 5.92487 23 12 23Z" fill="white"/>
</mask>
<g mask="url(#mask39_2_21530)">
<path d="M12.4366 16.9082C12.4224 16.9082 12.4109 16.8968 12.4109 16.8828C12.4109 16.8688 12.4224 16.8574 12.4366 16.8574C12.4506 16.8574 12.462 16.8688 12.462 16.8828C12.462 16.8968 12.4506 16.9082 12.4366 16.9082ZM12.4366 16.8658C12.4271 16.8658 12.4193 16.8735 12.4193 16.8828C12.4193 16.8921 12.4271 16.8997 12.4366 16.8997C12.446 16.8997 12.4536 16.8921 12.4536 16.8828C12.4536 16.8735 12.4459 16.8658 12.4366 16.8658Z" fill="#05AFCA"/>
</g>
<mask id="mask40_2_21530" style="mask-type:luminance" maskUnits="userSpaceOnUse" x="1" y="1" width="22" height="22">
<path d="M12 23C18.0751 23 23 18.0751 23 12C23 5.92487 18.0751 1 12 1C5.92487 1 1 5.92487 1 12C1 18.0751 5.92487 23 12 23Z" fill="white"/>
</mask>
<g mask="url(#mask40_2_21530)">
<path d="M3.64295 2.60741C3.64295 2.60741 3.43091 2.42941 3.35915 2.5188C3.24325 2.66235 3.71471 3.37779 3.71471 3.62962C3.71471 4.04331 3.43881 4.15555 3.09831 4.2148C2.86976 4.25431 2.49734 4.19825 2.49734 4.19825C2.5673 4.10394 2.61286 4.07631 2.73127 4.06876C2.59955 4.00058 2.46573 3.85246 2.46573 3.62172C2.46573 3.26581 2.61216 3.119 2.61216 2.71829C2.61216 2.49548 2.42993 2.2124 2.42993 2.2124C2.75212 2.2447 2.91215 2.54322 2.821 2.78174C2.87226 2.78929 2.9189 2.7778 2.95905 2.73976C2.98273 2.80583 2.94546 2.88261 2.89558 2.94898C2.93582 2.97052 2.96519 2.95754 3.02906 2.94432C3.02336 3.0125 2.98237 3.08497 2.88236 3.15308C3.17223 3.07779 3.35054 3.27973 3.35054 3.49111C3.35054 3.65107 3.23856 3.76554 3.12918 3.76554C3.094 3.76554 3.04199 3.75086 3.01262 3.72897C2.99212 3.77306 3.00253 3.83195 3.02402 3.87604C2.94374 3.85455 2.89275 3.80716 2.92894 3.70779C2.86758 3.70244 2.81847 3.68123 2.7851 3.64185C2.81883 3.5984 2.87017 3.57367 2.92894 3.57581C2.88412 3.48323 2.93437 3.4312 3.00721 3.38927C3.00721 3.38927 2.96057 3.57581 3.07898 3.57581C3.13202 3.57581 3.1809 3.55827 3.1809 3.48002C3.1809 3.41184 3.12093 3.31718 2.98317 3.32323C2.84498 3.32892 2.73314 3.41831 2.73314 3.63864C2.73314 3.8417 2.8971 3.94286 3.11301 3.94926C3.30782 3.95504 3.45463 3.84951 3.45463 3.649C3.45463 3.38135 3.06892 2.77213 3.06892 2.53389C3.06892 2.3552 3.22968 2.25548 3.38687 2.25548C3.59092 2.25548 3.76278 2.45706 3.76278 2.45706L3.64295 2.60741Z" fill="#FEC613"/>
</g>
<mask id="mask41_2_21530" style="mask-type:luminance" maskUnits="userSpaceOnUse" x="1" y="1" width="22" height="22">
<path d="M12 23C18.0751 23 23 18.0751 23 12C23 5.92487 18.0751 1 12 1C5.92487 1 1 5.92487 1 12C1 18.0751 5.92487 23 12 23Z" fill="white"/>
</mask>
<g mask="url(#mask41_2_21530)">
<path d="M3.68733 7.43984C3.68733 7.88663 3.28621 8.11651 2.97079 8.11651C2.54635 8.11651 2.31995 7.86254 2.31995 7.52993C2.31995 7.34156 2.3544 7.22351 2.44167 7.04304C2.44167 7.04304 3.14202 5.58605 3.41462 5.02272C3.44879 4.95238 3.45992 4.87239 3.45992 4.75504C3.45992 4.57387 3.28412 4.42603 3.10007 4.42137C2.93207 4.41708 2.74908 4.57781 2.74908 4.76114C2.74908 4.98358 2.86429 5.08262 2.98305 5.08262C3.12871 5.08262 3.18683 5.0227 3.18683 4.92048C3.18683 4.84903 3.15238 4.81814 3.10288 4.81814C2.97772 4.81814 3.01279 4.9864 3.01279 4.9864C2.95082 4.9728 2.89982 4.90962 2.92884 4.83037C2.88367 4.81997 2.84093 4.79629 2.80762 4.7579C2.84095 4.72556 2.87934 4.70051 2.92884 4.69184C2.89982 4.59541 2.93898 4.548 3.02366 4.52792C3.00639 4.56518 3.00564 4.59964 3.01141 4.63195C3.14453 4.59392 3.34871 4.6542 3.34871 4.88418C3.34871 5.1127 3.19044 5.30504 2.89305 5.25702C2.96364 5.29105 2.99957 5.36035 3.00674 5.4374C2.95293 5.41663 2.89305 5.41342 2.89305 5.41342C2.92785 5.47477 2.9759 5.52751 2.97414 5.64802C2.91883 5.62294 2.86748 5.57666 2.79684 5.60605C2.90772 5.8242 2.77167 6.12419 2.42513 6.19519C2.55178 6.04664 2.61389 5.88591 2.61389 5.7263C2.61389 5.20816 2.46994 5.12101 2.46994 4.76116C2.46994 4.6105 2.54747 4.44759 2.70103 4.33709V4.34314C2.59946 4.31597 2.53451 4.26609 2.49724 4.1982C2.72908 4.13253 3.06597 4.13365 3.2467 4.20474C3.45484 4.22909 3.5998 4.38844 3.64285 4.46944C3.6856 4.55058 3.76843 4.84335 3.64285 5.10669C3.50509 5.3952 2.85536 6.7726 2.65292 7.20529C2.60995 7.29714 2.58403 7.39469 2.58403 7.50023C2.58403 7.76533 2.82698 7.8579 2.96474 7.8579C3.12979 7.8579 3.29771 7.73195 3.29771 7.57516C3.29771 7.47578 3.2439 7.4159 3.166 7.4159C2.97946 7.4159 2.99059 7.57445 3.02786 7.67453C2.91208 7.62219 2.84454 7.52922 2.86291 7.43097C2.79726 7.42195 2.73478 7.39073 2.67701 7.32581C2.72252 7.26841 2.77783 7.22494 2.86291 7.22355C2.82586 7.07112 2.92785 7.00655 3.02786 6.97097C2.99638 7.0826 2.97552 7.21137 3.166 7.21137C3.30489 7.21137 3.41401 7.23546 3.47783 7.32583C3.48141 7.20532 3.4929 6.73029 3.4929 6.73029C3.5008 6.55189 3.25389 6.55695 3.09674 6.61004C3.15599 6.40445 3.27763 6.29324 3.55896 6.32162C3.49043 6.29287 3.41797 6.22865 3.41797 6.10485C3.41797 5.93765 3.55355 5.75213 3.64287 5.69733L3.68733 7.43984Z" fill="#FEC613"/>
</g>
<mask id="mask42_2_21530" style="mask-type:luminance" maskUnits="userSpaceOnUse" x="1" y="1" width="22" height="22">
<path d="M12 23C18.0751 23 23 18.0751 23 12C23 5.92487 18.0751 1 12 1C5.92487 1 1 5.92487 1 12C1 18.0751 5.92487 23 12 23Z" fill="white"/>
</mask>
<g mask="url(#mask42_2_21530)">
<path d="M3.68733 8.78044C3.68733 8.3334 3.28621 8.10376 2.97079 8.10376C2.54635 8.10376 2.31995 8.35773 2.31995 8.69006C2.31995 8.87869 2.3544 8.99674 2.44167 9.17721C2.44167 9.17721 3.14202 10.634 3.41462 11.1975C3.44879 11.2679 3.45992 11.3479 3.45992 11.4653C3.45992 11.646 3.28412 11.7943 3.10007 11.7989C2.93207 11.8028 2.74908 11.6421 2.74908 11.4592C2.74908 11.2367 2.86429 11.1373 2.98305 11.1373C3.12871 11.1373 3.18683 11.1973 3.18683 11.2999C3.18683 11.3712 3.15238 11.4021 3.10288 11.4021C2.97772 11.4021 3.01279 11.2335 3.01279 11.2335C2.95082 11.2471 2.89982 11.3106 2.92884 11.3899C2.88367 11.4 2.84093 11.424 2.80762 11.462C2.84095 11.4947 2.87934 11.5197 2.92884 11.5284C2.89982 11.6249 2.93898 11.6722 3.02366 11.692C3.00639 11.6551 3.00564 11.6206 3.01141 11.5883C3.14453 11.6263 3.34871 11.5661 3.34871 11.3357C3.34871 11.1072 3.19044 10.9149 2.89305 10.963C2.96364 10.9293 2.99957 10.8601 3.00674 10.7825C2.95293 10.8036 2.89305 10.8066 2.89305 10.8066C2.92785 10.7456 2.9759 10.6924 2.97414 10.5723C2.91883 10.5973 2.86748 10.6437 2.79684 10.6142C2.90772 10.3961 2.77167 10.0962 2.42513 10.0251C2.55178 10.1737 2.61389 10.3344 2.61389 10.494C2.61389 11.0122 2.46994 11.099 2.46994 11.4592C2.46994 11.61 2.54747 11.7724 2.70103 11.8829V11.8772C2.59946 11.9041 2.53451 11.9544 2.49724 12.0222C2.72908 12.0878 3.06597 12.0867 3.2467 12.0153C3.45484 11.9913 3.5998 11.8316 3.64285 11.7509C3.6856 11.6698 3.76843 11.3771 3.64285 11.1133C3.50509 10.8249 2.85536 9.44787 2.65292 9.01478C2.60995 8.92293 2.58403 8.82571 2.58403 8.72022C2.58403 8.45508 2.82698 8.3625 2.96474 8.3625C3.12979 8.3625 3.29771 8.48803 3.29771 8.64518C3.29771 8.74458 3.2439 8.80453 3.166 8.80453C2.97946 8.80453 2.99059 8.64595 3.02786 8.54578C2.91208 8.59825 2.84454 8.69109 2.86291 8.7895C2.79726 8.79839 2.73478 8.82965 2.67701 8.89457C2.72252 8.95197 2.77783 8.9954 2.86291 8.99678C2.82586 9.14935 2.92785 9.21355 3.02786 9.24937C2.99638 9.13747 2.97552 9.00897 3.166 9.00897C3.30489 9.00897 3.41401 8.98501 3.47783 8.89455C3.48141 9.01474 3.4929 9.48983 3.4929 9.48983C3.5008 9.66847 3.25389 9.66338 3.09674 9.61034C3.15599 9.81589 3.27763 9.92683 3.55896 9.89881C3.49043 9.92747 3.41797 9.99178 3.41797 10.1151C3.41797 10.2827 3.55355 10.4682 3.64287 10.5227L3.68733 8.78044Z" fill="#FEC613"/>
</g>
<mask id="mask43_2_21530" style="mask-type:luminance" maskUnits="userSpaceOnUse" x="1" y="1" width="22" height="22">
<path d="M12 23C18.0751 23 23 18.0751 23 12C23 5.92487 18.0751 1 12 1C5.92487 1 1 5.92487 1 12C1 18.0751 5.92487 23 12 23Z" fill="white"/>
</mask>
<g mask="url(#mask43_2_21530)">
<path d="M3.64289 2.60741C3.64289 2.60741 3.85453 2.42941 3.92674 2.5188C4.04217 2.66235 3.57082 3.37779 3.57082 3.62962C3.57082 4.04331 3.84674 4.15555 4.18748 4.2148C4.41613 4.25431 4.78845 4.19825 4.78845 4.19825C4.71819 4.10394 4.67265 4.07631 4.55462 4.06876C4.68585 4.00058 4.82007 3.85246 4.82007 3.62172C4.82007 3.26581 4.67337 3.119 4.67337 2.71829C4.67337 2.49548 4.85595 2.2124 4.85595 2.2124C4.53339 2.2447 4.37373 2.54322 4.4645 2.78174C4.41324 2.78929 4.3666 2.7778 4.32674 2.73976C4.303 2.80583 4.34042 2.88261 4.3903 2.94898C4.35006 2.97052 4.32069 2.95754 4.25638 2.94432C4.26252 3.0125 4.30344 3.08497 4.40317 3.15308C4.11327 3.07779 3.9349 3.27973 3.9349 3.49111C3.9349 3.65107 4.04688 3.76554 4.15635 3.76554C4.19177 3.76554 4.24389 3.75086 4.27291 3.72897C4.29376 3.77306 4.28298 3.83195 4.26177 3.87604C4.34179 3.85455 4.39274 3.80716 4.35646 3.70779C4.41822 3.70244 4.46732 3.68123 4.50078 3.64185C4.4667 3.5984 4.41571 3.57367 4.35646 3.57581C4.40139 3.48323 4.35153 3.4312 4.27869 3.38927C4.27869 3.38927 4.32498 3.57581 4.20658 3.57581C4.15338 3.57581 4.105 3.55827 4.105 3.48002C4.105 3.41184 4.16451 3.31718 4.30265 3.32323C4.44041 3.32892 4.55242 3.41831 4.55242 3.63864C4.55242 3.8417 4.38845 3.94286 4.17278 3.94926C3.978 3.95504 3.83095 3.84951 3.83095 3.649C3.83095 3.38135 4.21696 2.77213 4.21696 2.53389C4.21696 2.3552 4.05623 2.25548 3.89871 2.25548C3.69492 2.25548 3.52271 2.45706 3.52271 2.45706L3.64254 2.60743H3.64289V2.60741Z" fill="#FEC613"/>
</g>
<mask id="mask44_2_21530" style="mask-type:luminance" maskUnits="userSpaceOnUse" x="1" y="1" width="22" height="22">
<path d="M12 23C18.0751 23 23 18.0751 23 12C23 5.92487 18.0751 1 12 1C5.92487 1 1 5.92487 1 12C1 18.0751 5.92487 23 12 23Z" fill="white"/>
</mask>
<g mask="url(#mask44_2_21530)">
<path d="M3.59835 7.43984C3.59835 7.88663 3.99957 8.11651 4.3145 8.11651C4.7393 8.11651 4.96539 7.86254 4.96539 7.52993C4.96539 7.34156 4.93094 7.22351 4.84413 7.04304C4.84413 7.04304 4.1434 5.58605 3.87067 5.02272C3.83664 4.95238 3.82586 4.87239 3.82586 4.75504C3.82586 4.57387 4.00131 4.42603 4.18571 4.42137C4.35364 4.41708 4.53657 4.57781 4.53657 4.76114C4.53657 4.98358 4.42104 5.08262 4.30264 5.08262C4.15669 5.08262 4.09894 5.0227 4.09894 4.92048C4.09894 4.84903 4.13337 4.81814 4.18289 4.81814C4.3077 4.81814 4.2725 4.9864 4.2725 4.9864C4.33463 4.9728 4.38598 4.90962 4.35645 4.83037C4.40201 4.81997 4.44472 4.79629 4.47818 4.7579C4.44436 4.72556 4.40597 4.70051 4.35645 4.69184C4.38595 4.59541 4.34682 4.548 4.26214 4.52792C4.27932 4.56518 4.27967 4.59964 4.27433 4.63195C4.14092 4.59392 3.93671 4.6542 3.93671 4.88418C3.93671 5.1127 4.09533 5.30504 4.39273 5.25702C4.322 5.29105 4.28581 5.36035 4.27868 5.4374C4.33276 5.41663 4.39273 5.41342 4.39273 5.41342C4.35793 5.47477 4.30955 5.52751 4.31164 5.64802C4.36695 5.62294 4.41779 5.57666 4.48852 5.60605C4.37766 5.8242 4.51399 6.12419 4.86063 6.19519C4.73358 6.04664 4.67149 5.88591 4.67149 5.7263C4.67149 5.20816 4.81533 5.12101 4.81533 4.76116C4.81533 4.6105 4.73828 4.44759 4.58472 4.33709V4.34314C4.68621 4.31597 4.75115 4.26609 4.78842 4.1982C4.5567 4.13253 4.21979 4.13365 4.03855 4.20474C3.83092 4.22909 3.68561 4.38844 3.64286 4.46944C3.60018 4.55058 3.51698 4.84335 3.64286 5.10669C3.78065 5.3952 4.43004 6.7726 4.63277 7.20529C4.67547 7.29714 4.70165 7.39469 4.70165 7.50023C4.70165 7.76533 4.4588 7.8579 4.32066 7.8579C4.15557 7.8579 3.98771 7.73195 3.98771 7.57516C3.98771 7.47578 4.04187 7.4159 4.11971 7.4159C4.30625 7.4159 4.29476 7.57445 4.25785 7.67453C4.37374 7.62219 4.44117 7.52922 4.42252 7.43097C4.48819 7.42195 4.55102 7.39073 4.60868 7.32581C4.56312 7.26841 4.50794 7.22494 4.42252 7.22355C4.45979 7.07112 4.35793 7.00655 4.25785 6.97097C4.28942 7.0826 4.31019 7.21137 4.11971 7.21137C3.98082 7.21137 3.87142 7.23546 3.80797 7.32583C3.80403 7.20532 3.7929 6.73029 3.7929 6.73029C3.785 6.55189 4.0318 6.55695 4.18859 6.61004C4.12943 6.40445 4.00806 6.29324 3.72683 6.32162C3.79501 6.29287 3.86783 6.22865 3.86783 6.10485C3.86783 5.93765 3.73189 5.75213 3.64286 5.69733L3.59835 7.43984Z" fill="#FEC613"/>
</g>
<mask id="mask45_2_21530" style="mask-type:luminance" maskUnits="userSpaceOnUse" x="1" y="1" width="22" height="22">
<path d="M12 23C18.0751 23 23 18.0751 23 12C23 5.92487 18.0751 1 12 1C5.92487 1 1 5.92487 1 12C1 18.0751 5.92487 23 12 23Z" fill="white"/>
</mask>
<g mask="url(#mask45_2_21530)">
<path d="M3.59835 8.78044C3.59835 8.3334 3.99957 8.10376 4.3145 8.10376C4.7393 8.10376 4.96539 8.35773 4.96539 8.69006C4.96539 8.87869 4.93094 8.99674 4.84413 9.17721C4.84413 9.17721 4.1434 10.634 3.87067 11.1975C3.83664 11.2679 3.82586 11.3479 3.82586 11.4653C3.82586 11.646 4.00131 11.7943 4.18571 11.7989C4.35364 11.8028 4.53657 11.6421 4.53657 11.4592C4.53657 11.2367 4.42104 11.1373 4.30264 11.1373C4.15669 11.1373 4.09894 11.1973 4.09894 11.2999C4.09894 11.3712 4.13337 11.4021 4.18289 11.4021C4.3077 11.4021 4.2725 11.2335 4.2725 11.2335C4.33463 11.2471 4.38598 11.3106 4.35645 11.3899C4.40201 11.4 4.44472 11.424 4.47818 11.462C4.44436 11.4947 4.40597 11.5197 4.35645 11.5284C4.38595 11.6249 4.34682 11.6722 4.26214 11.692C4.27932 11.6551 4.27967 11.6206 4.27433 11.5883C4.14092 11.6263 3.93671 11.5661 3.93671 11.3357C3.93671 11.1072 4.09533 10.9149 4.39273 10.963C4.322 10.9293 4.28581 10.8601 4.27868 10.7825C4.33276 10.8036 4.39273 10.8066 4.39273 10.8066C4.35793 10.7456 4.30955 10.6924 4.31164 10.5723C4.36695 10.5973 4.41779 10.6437 4.48852 10.6142C4.37766 10.3961 4.51399 10.0962 4.86063 10.0251C4.73358 10.1737 4.67149 10.3344 4.67149 10.494C4.67149 11.0122 4.81533 11.099 4.81533 11.4592C4.81533 11.61 4.73828 11.7724 4.58472 11.8829V11.8772C4.68621 11.9041 4.75115 11.9544 4.78842 12.0222C4.5567 12.0878 4.21979 12.0867 4.03855 12.0153C3.83092 11.9913 3.68561 11.8316 3.64286 11.7509C3.60018 11.6698 3.51698 11.3771 3.64286 11.1133C3.78065 10.8249 4.43004 9.44787 4.63277 9.01478C4.67547 8.92293 4.70165 8.82571 4.70165 8.72022C4.70165 8.45508 4.4588 8.3625 4.32066 8.3625C4.15557 8.3625 3.98771 8.48803 3.98771 8.64518C3.98771 8.74458 4.04187 8.80453 4.11971 8.80453C4.30625 8.80453 4.29476 8.64595 4.25785 8.54578C4.37374 8.59825 4.44117 8.69109 4.42252 8.7895C4.48819 8.79839 4.55102 8.82965 4.60868 8.89457C4.56312 8.95197 4.50794 8.9954 4.42252 8.99678C4.45979 9.14935 4.35793 9.21355 4.25785 9.24937C4.28942 9.13747 4.31019 9.00897 4.11971 9.00897C3.98082 9.00897 3.87142 8.98501 3.80797 8.89455C3.80403 9.01474 3.7929 9.48983 3.7929 9.48983C3.785 9.66847 4.0318 9.66338 4.18859 9.61034C4.12943 9.81589 4.00806 9.92683 3.72683 9.89881C3.79501 9.92747 3.86783 9.99178 3.86783 10.1151C3.86783 10.2827 3.73189 10.4682 3.64286 10.5227L3.59835 8.78044Z" fill="#FEC613"/>
</g>
<mask id="mask46_2_21530" style="mask-type:luminance" maskUnits="userSpaceOnUse" x="1" y="1" width="22" height="22">
<path d="M12 23C18.0751 23 23 18.0751 23 12C23 5.92487 18.0751 1 12 1C5.92487 1 1 5.92487 1 12C1 18.0751 5.92487 23 12 23Z" fill="white"/>
</mask>
<g mask="url(#mask46_2_21530)">
<path d="M3.64295 21.4367C3.64295 21.4367 3.43091 21.6147 3.35915 21.5253C3.24325 21.3818 3.71471 20.6663 3.71471 20.4145C3.71471 20.0008 3.43881 19.8885 3.09831 19.8293C2.86976 19.7898 2.49734 19.8458 2.49734 19.8458C2.5673 19.9401 2.61286 19.9678 2.73127 19.9753C2.59955 20.0435 2.46573 20.1917 2.46573 20.4224C2.46573 20.7783 2.61216 20.925 2.61216 21.3258C2.61216 21.5486 2.42993 21.8317 2.42993 21.8317C2.75212 21.7994 2.91215 21.5009 2.821 21.2623C2.87226 21.2547 2.9189 21.2662 2.95905 21.3042C2.98273 21.2382 2.94546 21.1614 2.89558 21.0951C2.93582 21.0735 2.96519 21.0865 3.02906 21.0997C3.02336 21.0316 2.98237 20.9591 2.88236 20.8909C3.17223 20.9663 3.35054 20.7643 3.35054 20.5529C3.35054 20.3929 3.23856 20.2785 3.12918 20.2785C3.094 20.2785 3.04199 20.2932 3.01262 20.3151C2.99212 20.2709 3.00253 20.2121 3.02402 20.168C2.94374 20.1895 2.89275 20.2369 2.92894 20.3362C2.86758 20.342 2.81847 20.3628 2.7851 20.4022C2.81883 20.4457 2.87017 20.4704 2.92894 20.4683C2.88412 20.5608 2.93437 20.6129 3.00721 20.6548C3.00721 20.6548 2.96057 20.4683 3.07898 20.4683C3.13202 20.4683 3.1809 20.4858 3.1809 20.5641C3.1809 20.6322 3.12093 20.7269 2.98317 20.7208C2.84498 20.7151 2.73314 20.6258 2.73314 20.4055C2.73314 20.2023 2.8971 20.1012 3.11301 20.0948C3.30782 20.089 3.45463 20.1945 3.45463 20.3951C3.45463 20.6627 3.06892 21.2719 3.06892 21.5102C3.06892 21.6888 3.22968 21.7886 3.38687 21.7886C3.59092 21.7886 3.76278 21.5869 3.76278 21.5869L3.64295 21.4367Z" fill="#FEC613"/>
</g>
<mask id="mask47_2_21530" style="mask-type:luminance" maskUnits="userSpaceOnUse" x="1" y="1" width="22" height="22">
<path d="M12 23C18.0751 23 23 18.0751 23 12C23 5.92487 18.0751 1 12 1C5.92487 1 1 5.92487 1 12C1 18.0751 5.92487 23 12 23Z" fill="white"/>
</mask>
<g mask="url(#mask47_2_21530)">
<path d="M3.68733 16.6042C3.68733 16.1575 3.28621 15.9275 2.97079 15.9275C2.54635 15.9275 2.31995 16.1815 2.31995 16.5141C2.31995 16.7025 2.3544 16.8205 2.44167 17.001C2.44167 17.001 3.14202 18.458 3.41462 19.0214C3.44879 19.0917 3.45992 19.1717 3.45992 19.289C3.45992 19.4702 3.28412 19.618 3.10007 19.6227C2.93207 19.627 2.74908 19.4663 2.74908 19.2829C2.74908 19.0605 2.86429 18.9614 2.98305 18.9614C3.12871 18.9614 3.18683 19.0214 3.18683 19.1236C3.18683 19.195 3.15238 19.2259 3.10288 19.2259C2.97772 19.2259 3.01279 19.0576 3.01279 19.0576C2.95082 19.0712 2.89982 19.1344 2.92884 19.2137C2.88367 19.2241 2.84093 19.2478 2.80762 19.2861C2.84095 19.3185 2.87934 19.3435 2.92884 19.3522C2.89982 19.4487 2.93898 19.496 3.02366 19.5161C3.00639 19.4788 3.00564 19.4444 3.01141 19.4121C3.14453 19.4501 3.34871 19.3898 3.34871 19.1599C3.34871 18.9313 3.19044 18.739 2.89305 18.7871C2.96364 18.753 2.99957 18.6838 3.00674 18.6067C2.95293 18.6274 2.89305 18.6307 2.89305 18.6307C2.92785 18.5693 2.9759 18.5166 2.97414 18.396C2.91883 18.4211 2.86748 18.4674 2.79684 18.438C2.90772 18.2198 2.77167 17.9199 2.42513 17.8489C2.55178 17.9974 2.61389 18.1582 2.61389 18.3178C2.61389 18.8359 2.46994 18.9231 2.46994 19.283C2.46994 19.4337 2.54747 19.5965 2.70103 19.707V19.701C2.59946 19.7282 2.53451 19.7781 2.49724 19.8459C2.72908 19.9115 3.06597 19.9105 3.2467 19.8394C3.45484 19.815 3.5998 19.6557 3.64285 19.5747C3.6856 19.4936 3.76843 19.2008 3.64285 18.9374C3.50509 18.649 2.85536 17.2716 2.65292 16.8389C2.60995 16.747 2.58403 16.6494 2.58403 16.544C2.58403 16.2788 2.82698 16.1862 2.96474 16.1862C3.12979 16.1862 3.29771 16.3122 3.29771 16.469C3.29771 16.5684 3.2439 16.6283 3.166 16.6283C2.97946 16.6283 2.99059 16.4697 3.02786 16.3696C2.91208 16.422 2.84454 16.5149 2.86291 16.6132C2.79726 16.6222 2.73478 16.6534 2.67701 16.7183C2.72252 16.7757 2.77783 16.8191 2.86291 16.8206C2.82586 16.973 2.92785 17.0376 3.02786 17.0731C2.99638 16.9616 2.97552 16.8327 3.166 16.8327C3.30489 16.8327 3.41401 16.8087 3.47783 16.7183C3.48141 16.8388 3.4929 17.3139 3.4929 17.3139C3.5008 17.4922 3.25389 17.4872 3.09674 17.4341C3.15599 17.6397 3.27763 17.7509 3.55896 17.7224C3.49043 17.7512 3.41797 17.8155 3.41797 17.9392C3.41797 18.1065 3.55355 18.2919 3.64287 18.3468L3.68733 16.6042Z" fill="#FEC613"/>
</g>
<mask id="mask48_2_21530" style="mask-type:luminance" maskUnits="userSpaceOnUse" x="1" y="1" width="22" height="22">
<path d="M12 23C18.0751 23 23 18.0751 23 12C23 5.92487 18.0751 1 12 1C5.92487 1 1 5.92487 1 12C1 18.0751 5.92487 23 12 23Z" fill="white"/>
</mask>
<g mask="url(#mask48_2_21530)">
<path d="M3.68733 15.2636C3.68733 15.7106 3.28621 15.9403 2.97079 15.9403C2.54635 15.9403 2.31995 15.6862 2.31995 15.354C2.31995 15.1653 2.3544 15.0473 2.44167 14.8668C2.44167 14.8668 3.14202 13.4101 3.41462 12.8464C3.44879 12.7761 3.45992 12.6961 3.45992 12.5787C3.45992 12.398 3.28412 12.2498 3.10007 12.2451C2.93207 12.2412 2.74908 12.4019 2.74908 12.5849C2.74908 12.8073 2.86429 12.9067 2.98305 12.9067C3.12871 12.9067 3.18683 12.8468 3.18683 12.7442C3.18683 12.6728 3.15238 12.6419 3.10288 12.6419C2.97772 12.6419 3.01279 12.8106 3.01279 12.8106C2.95082 12.797 2.89982 12.7334 2.92884 12.6541C2.88367 12.6441 2.84093 12.62 2.80762 12.582C2.84095 12.5494 2.87934 12.5243 2.92884 12.5156C2.89982 12.4191 2.93898 12.3718 3.02366 12.352C3.00639 12.389 3.00564 12.4234 3.01141 12.4557C3.14453 12.4177 3.34871 12.478 3.34871 12.7083C3.34871 12.9368 3.19044 13.1291 2.89305 13.0811C2.96364 13.1148 2.99957 13.184 3.00674 13.2615C2.95293 13.2404 2.89305 13.2375 2.89305 13.2375C2.92785 13.2985 2.9759 13.3516 2.97414 13.4718C2.91883 13.4466 2.86748 13.4004 2.79684 13.4298C2.90772 13.6479 2.77167 13.9479 2.42513 14.0189C2.55178 13.8704 2.61389 13.7096 2.61389 13.55C2.61389 13.0319 2.46994 12.9451 2.46994 12.5848C2.46994 12.4341 2.54747 12.2716 2.70103 12.1611V12.1669C2.59946 12.1399 2.53451 12.0897 2.49724 12.0219C2.72908 11.9563 3.06597 11.9573 3.2467 12.0287C3.45484 12.0528 3.5998 12.2124 3.64285 12.2932C3.6856 12.3743 3.76843 12.667 3.64285 12.9307C3.50509 13.2192 2.85536 14.5962 2.65292 15.0293C2.60995 15.1212 2.58403 15.2184 2.58403 15.3239C2.58403 15.589 2.82698 15.6816 2.96474 15.6816C3.12979 15.6816 3.29771 15.556 3.29771 15.3988C3.29771 15.2994 3.2439 15.2396 3.166 15.2396C2.97946 15.2396 2.99059 15.3981 3.02786 15.4982C2.91208 15.4459 2.84454 15.3529 2.86291 15.2546C2.79726 15.2457 2.73478 15.2145 2.67701 15.1495C2.72252 15.0921 2.77783 15.0487 2.86291 15.0473C2.82586 14.8948 2.92785 14.8306 3.02786 14.7948C2.99638 14.9066 2.97552 15.0351 3.166 15.0351C3.30489 15.0351 3.41401 15.0591 3.47783 15.1495C3.48141 15.0293 3.4929 14.5543 3.4929 14.5543C3.5008 14.3756 3.25389 14.3806 3.09674 14.4337C3.15599 14.2281 3.27763 14.1172 3.55896 14.1453C3.49043 14.1166 3.41797 14.0523 3.41797 13.9289C3.41797 13.7615 3.55355 13.5759 3.64287 13.5213L3.68733 15.2636Z" fill="#FEC613"/>
</g>
<mask id="mask49_2_21530" style="mask-type:luminance" maskUnits="userSpaceOnUse" x="1" y="1" width="22" height="22">
<path d="M12 23C18.0751 23 23 18.0751 23 12C23 5.92487 18.0751 1 12 1C5.92487 1 1 5.92487 1 12C1 18.0751 5.92487 23 12 23Z" fill="white"/>
</mask>
<g mask="url(#mask49_2_21530)">
<path d="M3.64289 21.4367C3.64289 21.4367 3.85453 21.6147 3.92674 21.5253C4.04217 21.3818 3.57082 20.6663 3.57082 20.4145C3.57082 20.0008 3.84674 19.8885 4.18748 19.8293C4.41613 19.7898 4.78845 19.8458 4.78845 19.8458C4.71819 19.9401 4.67265 19.9678 4.55462 19.9753C4.68585 20.0435 4.82007 20.1917 4.82007 20.4224C4.82007 20.7783 4.67337 20.925 4.67337 21.3258C4.67337 21.5486 4.85595 21.8317 4.85595 21.8317C4.53339 21.7994 4.37373 21.5009 4.4645 21.2623C4.41324 21.2547 4.3666 21.2662 4.32674 21.3042C4.303 21.2382 4.34042 21.1614 4.3903 21.0951C4.35006 21.0735 4.32069 21.0865 4.25638 21.0997C4.26252 21.0316 4.30344 20.9591 4.40317 20.8909C4.11327 20.9663 3.9349 20.7643 3.9349 20.5529C3.9349 20.3929 4.04688 20.2785 4.15635 20.2785C4.19177 20.2785 4.24389 20.2932 4.27291 20.3151C4.29376 20.2709 4.28298 20.2121 4.26177 20.168C4.34179 20.1895 4.39274 20.2369 4.35646 20.3362C4.41822 20.342 4.46732 20.3628 4.50078 20.4022C4.4667 20.4457 4.41571 20.4704 4.35646 20.4683C4.40139 20.5608 4.35153 20.6129 4.27869 20.6548C4.27869 20.6548 4.32498 20.4683 4.20658 20.4683C4.15338 20.4683 4.105 20.4858 4.105 20.5641C4.105 20.6322 4.16451 20.7269 4.30265 20.7208C4.44041 20.7151 4.55242 20.6258 4.55242 20.4055C4.55242 20.2023 4.38845 20.1012 4.17278 20.0948C3.978 20.089 3.83095 20.1945 3.83095 20.3951C3.83095 20.6627 4.21696 21.2719 4.21696 21.5102C4.21696 21.6888 4.05623 21.7886 3.89871 21.7886C3.69492 21.7886 3.52271 21.5869 3.52271 21.5869L3.64254 21.4366H3.64289V21.4367Z" fill="#FEC613"/>
</g>
<mask id="mask50_2_21530" style="mask-type:luminance" maskUnits="userSpaceOnUse" x="1" y="1" width="22" height="22">
<path d="M12 23C18.0751 23 23 18.0751 23 12C23 5.92487 18.0751 1 12 1C5.92487 1 1 5.92487 1 12C1 18.0751 5.92487 23 12 23Z" fill="white"/>
</mask>
<g mask="url(#mask50_2_21530)">
<path d="M3.59835 16.6042C3.59835 16.1575 3.99957 15.9275 4.3145 15.9275C4.7393 15.9275 4.96539 16.1815 4.96539 16.5141C4.96539 16.7025 4.93094 16.8205 4.84413 17.001C4.84413 17.001 4.1434 18.458 3.87067 19.0213C3.83664 19.0916 3.82586 19.1717 3.82586 19.289C3.82586 19.4702 4.00131 19.618 4.18571 19.6227C4.35364 19.6269 4.53657 19.4662 4.53657 19.2829C4.53657 19.0604 4.42104 18.9614 4.30264 18.9614C4.15669 18.9614 4.09894 19.0214 4.09894 19.1236C4.09894 19.195 4.13337 19.2258 4.18289 19.2258C4.3077 19.2258 4.2725 19.0576 4.2725 19.0576C4.33463 19.0712 4.38598 19.1343 4.35645 19.2137C4.40201 19.2241 4.44472 19.2477 4.47818 19.2861C4.44436 19.3185 4.40597 19.3435 4.35645 19.3521C4.38595 19.4487 4.34682 19.496 4.26214 19.5161C4.27932 19.4788 4.27967 19.4443 4.27433 19.4121C4.14092 19.4501 3.93671 19.3898 3.93671 19.1598C3.93671 18.9313 4.09533 18.739 4.39273 18.7871C4.322 18.753 4.28581 18.6837 4.27868 18.6067C4.33276 18.6274 4.39273 18.6306 4.39273 18.6306C4.35793 18.5693 4.30955 18.5165 4.31164 18.396C4.36695 18.4211 4.41779 18.4674 4.48852 18.438C4.37766 18.2198 4.51399 17.9199 4.86063 17.8489C4.73358 17.9974 4.67149 18.1581 4.67149 18.3178C4.67149 18.8359 4.81533 18.9231 4.81533 19.2829C4.81533 19.4336 4.73828 19.5965 4.58472 19.707V19.7009C4.68621 19.7282 4.75115 19.7781 4.78842 19.8459C4.5567 19.9115 4.21979 19.9105 4.03855 19.8394C3.83092 19.815 3.68561 19.6557 3.64286 19.5746C3.60018 19.4935 3.51698 19.2008 3.64286 18.9374C3.78065 18.649 4.43004 17.2716 4.63277 16.8389C4.67547 16.747 4.70165 16.6494 4.70165 16.5439C4.70165 16.2788 4.4588 16.1862 4.32066 16.1862C4.15557 16.1862 3.98771 16.3122 3.98771 16.469C3.98771 16.5684 4.04187 16.6283 4.11971 16.6283C4.30625 16.6283 4.29476 16.4697 4.25785 16.3696C4.37374 16.4219 4.44117 16.5149 4.42252 16.6132C4.48819 16.6221 4.55102 16.6534 4.60868 16.7183C4.56312 16.7757 4.50794 16.8191 4.42252 16.8205C4.45979 16.973 4.35793 17.0376 4.25785 17.0731C4.28942 16.9615 4.31019 16.8327 4.11971 16.8327C3.98082 16.8327 3.87142 16.8087 3.80797 16.7183C3.80403 16.8388 3.7929 17.3138 3.7929 17.3138C3.785 17.4922 4.0318 17.4871 4.18859 17.4341C4.12943 17.6396 4.00806 17.7509 3.72683 17.7224C3.79501 17.7512 3.86783 17.8154 3.86783 17.9392C3.86783 18.1064 3.73189 18.2919 3.64286 18.3468L3.59835 16.6042Z" fill="#FEC613"/>
</g>
<mask id="mask51_2_21530" style="mask-type:luminance" maskUnits="userSpaceOnUse" x="1" y="1" width="22" height="22">
<path d="M12 23C18.0751 23 23 18.0751 23 12C23 5.92487 18.0751 1 12 1C5.92487 1 1 5.92487 1 12C1 18.0751 5.92487 23 12 23Z" fill="white"/>
</mask>
<g mask="url(#mask51_2_21530)">
<path d="M3.59835 15.2636C3.59835 15.7106 3.99957 15.9403 4.3145 15.9403C4.7393 15.9403 4.96539 15.6862 4.96539 15.354C4.96539 15.1653 4.93094 15.0473 4.84413 14.8668C4.84413 14.8668 4.1434 13.4101 3.87067 12.8464C3.83664 12.7761 3.82586 12.6961 3.82586 12.5787C3.82586 12.398 4.00131 12.2498 4.18571 12.2451C4.35364 12.2412 4.53657 12.4019 4.53657 12.5849C4.53657 12.8073 4.42104 12.9067 4.30264 12.9067C4.15669 12.9067 4.09894 12.8468 4.09894 12.7442C4.09894 12.6728 4.13337 12.6419 4.18289 12.6419C4.3077 12.6419 4.2725 12.8106 4.2725 12.8106C4.33463 12.797 4.38598 12.7334 4.35645 12.6541C4.40201 12.6441 4.44472 12.62 4.47818 12.582C4.44436 12.5494 4.40597 12.5243 4.35645 12.5156C4.38595 12.4191 4.34682 12.3718 4.26214 12.352C4.27932 12.389 4.27967 12.4234 4.27433 12.4557C4.14092 12.4177 3.93671 12.478 3.93671 12.7083C3.93671 12.9368 4.09533 13.1291 4.39273 13.0811C4.322 13.1148 4.28581 13.184 4.27868 13.2615C4.33276 13.2404 4.39273 13.2375 4.39273 13.2375C4.35793 13.2985 4.30955 13.3516 4.31164 13.4718C4.36695 13.4466 4.41779 13.4004 4.48852 13.4298C4.37766 13.6479 4.51399 13.9479 4.86063 14.0189C4.73358 13.8704 4.67149 13.7096 4.67149 13.55C4.67149 13.0319 4.81533 12.9451 4.81533 12.5848C4.81533 12.4341 4.73828 12.2716 4.58472 12.1611V12.1669C4.68621 12.1399 4.75115 12.0897 4.78842 12.0219C4.5567 11.9563 4.21979 11.9573 4.03855 12.0287C3.83092 12.0528 3.68561 12.2124 3.64286 12.2932C3.60018 12.3743 3.51698 12.667 3.64286 12.9307C3.78065 13.2192 4.43004 14.5962 4.63277 15.0293C4.67547 15.1212 4.70165 15.2184 4.70165 15.3239C4.70165 15.589 4.4588 15.6816 4.32066 15.6816C4.15557 15.6816 3.98771 15.556 3.98771 15.3988C3.98771 15.2994 4.04187 15.2396 4.11971 15.2396C4.30625 15.2396 4.29476 15.3981 4.25785 15.4982C4.37374 15.4459 4.44117 15.3529 4.42252 15.2546C4.48819 15.2457 4.55102 15.2145 4.60868 15.1495C4.56312 15.0921 4.50794 15.0487 4.42252 15.0473C4.45979 14.8948 4.35793 14.8306 4.25785 14.7948C4.28942 14.9066 4.31019 15.0351 4.11971 15.0351C3.98082 15.0351 3.87142 15.0591 3.80797 15.1495C3.80403 15.0293 3.7929 14.5543 3.7929 14.5543C3.785 14.3756 4.0318 14.3806 4.18859 14.4337C4.12943 14.2281 4.00806 14.1172 3.72683 14.1453C3.79501 14.1166 3.86783 14.0523 3.86783 13.9289C3.86783 13.7615 3.73189 13.5759 3.64286 13.5213L3.59835 15.2636Z" fill="#FEC613"/>
</g>
</svg>
