<svg width="24" height="24" viewBox="0 0 24 24" fill="none" xmlns="http://www.w3.org/2000/svg">
<circle cx="12" cy="12" r="12" fill="#D4D4D4"/>
<path d="M23.25 12C23.25 18.2132 18.2132 23.25 12 23.25C5.78684 23.25 0.75 18.2132 0.75 12C0.75 12.0027 12 0.75123 12 0.75C18.2132 0.75 23.25 5.78684 23.25 12Z" fill="#0052B4"/>
<path d="M11.9727 12.0028H12.0028C12.0028 11.9927 12.0028 11.9828 12.0028 11.9727C11.9927 11.9827 11.9827 11.9927 11.9727 12.0028Z" fill="#F0F0F0"/>
<path d="M12 6.61956C12 4.64004 12 3.34299 12 0.75H11.9981C5.78578 0.751055 0.75 5.78741 0.75 12H6.61956V8.69483L9.92477 12H11.9699C11.98 11.99 11.99 11.98 12 11.9699C12 11.212 12 10.5357 12 9.92481L8.69479 6.61956H12Z" fill="#F0F0F0"/>
<path d="M6.441 2.2168C4.68147 3.21871 3.21871 4.68147 2.2168 6.441V11.9994H5.1516V5.15168V5.1516H11.9994C11.9994 4.22598 11.9994 3.34417 11.9994 2.2168H6.441Z" fill="#D80027"/>
<path d="M11.9976 10.6141L8.00063 6.61719C8.00063 6.61719 6.61719 6.61728 6.61719 6.61719V6.61728L11.9975 11.9976H11.9976C11.9976 11.9976 11.9976 11.0437 11.9976 10.6141Z" fill="#D80027"/>
<path d="M20.2298 9.09961L20.4726 9.84694H21.2584L20.6227 10.3088L20.8656 11.0561L20.2298 10.5943L19.5941 11.0561L19.8369 10.3088L19.2012 9.84694H19.987L20.2298 9.09961Z" fill="#D80027"/>
<path d="M17.4209 14.4766L17.7851 15.5976H18.9638L18.0102 16.2904L18.3745 17.4114L17.4209 16.7186L16.4672 17.4114L16.8315 16.2904L15.8779 15.5976H17.0566L17.4209 14.4766Z" fill="#D80027"/>
<path d="M17.5259 5.67188L17.8295 6.60611H18.8117L18.017 7.18333L18.3206 8.11752L17.5259 7.54012L16.7313 8.11752L17.0349 7.18333L16.2402 6.60611H17.2224L17.5259 5.67188Z" fill="#D80027"/>
<path d="M14.8281 9.06641L15.1923 10.1875H16.371L15.4174 10.8802L15.7817 12.0012L14.8281 11.3084L13.8745 12.0012L14.2388 10.8802L13.2852 10.1875H14.4638L14.8281 9.06641Z" fill="#D80027"/>
</svg>
