<svg width="24" height="24" viewBox="0 0 24 24" fill="none" xmlns="http://www.w3.org/2000/svg">
<circle cx="12" cy="12" r="12" fill="#D4D4D4"/>
<path d="M12 23.25C18.2132 23.25 23.25 18.2132 23.25 12C23.25 5.7868 18.2132 0.75 12 0.75C5.7868 0.75 0.75 5.7868 0.75 12C0.75 18.2132 5.7868 23.25 12 23.25Z" fill="#F0F0F0"/>
<path d="M23.2481 11.9975C23.2481 7.16042 20.1951 3.03681 15.9111 1.44727V22.5478C20.1951 20.9582 23.2481 16.8346 23.2481 11.9975Z" fill="#D80027"/>
<path d="M0.75 11.9975C0.75 16.8346 3.80297 20.9582 8.08698 22.5478V1.44727C3.80297 3.03681 0.75 7.16042 0.75 11.9975Z" fill="#6DA544"/>
</svg>
