<svg width="24" height="24" viewBox="0 0 24 24" fill="none" xmlns="http://www.w3.org/2000/svg">
<circle cx="12" cy="12" r="12" fill="#D4D4D4"/>
<path d="M23.25 12C23.25 18.2132 18.2132 23.25 12 23.25C5.78684 23.25 0.75 18.2132 0.75 12C0.75 12.0026 12 0.751274 12 0.75C18.2132 0.75 23.25 5.78684 23.25 12Z" fill="#0052B4"/>
<path d="M11.9727 12.0028H12.0028C12.0028 11.9926 12.0028 11.9828 12.0028 11.9727C11.9927 11.9827 11.9827 11.9927 11.9727 12.0028Z" fill="#F0F0F0"/>
<path d="M12 6.61955C12 4.64004 12 3.34291 12 0.75H11.9981C5.78578 0.751011 0.75 5.78736 0.75 12H6.61956V8.69474L9.92477 12H11.9699C11.98 11.9899 11.99 11.9799 12 11.9699C12 11.2119 12 10.5357 12 9.92481L8.69479 6.61955H12Z" fill="#F0F0F0"/>
<path d="M6.441 2.2168C4.68147 3.21871 3.21871 4.68147 2.2168 6.441V11.9994H5.1516V5.15164L11.9994 5.1516C11.9994 4.22598 11.9994 3.34417 11.9994 2.2168H6.441Z" fill="#D80027"/>
<path d="M11.9976 10.6141L8.00063 6.61721H6.61719L11.9975 11.9976H11.9976C11.9976 11.9976 11.9976 11.0437 11.9976 10.6141Z" fill="#D80027"/>
<path d="M7.53197 13.9551L8.1494 15.2461L9.54365 14.9239L8.91928 16.2115L10.0405 17.1007L8.64449 17.4153L8.6484 18.8464L7.53197 17.9511L6.41558 18.8464L6.41949 17.4153L5.02344 17.1007L6.1447 16.2115L5.52024 14.9239L6.91458 15.2461L7.53197 13.9551Z" fill="#F0F0F0"/>
<path d="M17.5882 16.4004L17.8969 17.0459L18.5941 16.8848L18.2819 17.5286L18.8425 17.9732L18.1445 18.1305L18.1464 18.846L17.5882 18.3984L17.03 18.846L17.032 18.1305L16.334 17.9732L16.8946 17.5286L16.5824 16.8848L17.2795 17.0459L17.5882 16.4004Z" fill="#F0F0F0"/>
<path d="M14.7211 9.5498L15.0298 10.1954L15.7269 10.0342L15.4147 10.678L15.9753 11.1226L15.2773 11.2799L15.2792 11.9954L14.7211 11.5478L14.1629 11.9954L14.1648 11.2799L13.4668 11.1226L14.0274 10.678L13.7152 10.0342L14.4124 10.1954L14.7211 9.5498Z" fill="#F0F0F0"/>
<path d="M17.5882 5.63867L17.8969 6.28423L18.5941 6.12308L18.2819 6.76692L18.8425 7.21147L18.1445 7.36884L18.1464 8.08436L17.5882 7.63669L17.03 8.08436L17.032 7.36884L16.334 7.21147L16.8945 6.76692L16.5824 6.12308L17.2795 6.28423L17.5882 5.63867Z" fill="#F0F0F0"/>
<path d="M20.099 8.57227L20.4077 9.21782L21.1048 9.05663L20.7926 9.70047L21.3533 10.1451L20.6552 10.3024L20.6572 11.0179L20.099 10.5703L19.5408 11.0179L19.5427 10.3024L18.8447 10.1451L19.4053 9.70047L19.0932 9.05663L19.7903 9.21782L20.099 8.57227Z" fill="#F0F0F0"/>
<path d="M18.3079 12L18.5507 12.7473H19.3366L18.7008 13.2092L18.9437 13.9565L18.3079 13.4947L17.6722 13.9565L17.915 13.2092L17.2793 12.7473H18.0651L18.3079 12Z" fill="#F0F0F0"/>
</svg>
