<svg width="24" height="24" viewBox="0 0 24 24" fill="none" xmlns="http://www.w3.org/2000/svg">
<circle cx="12" cy="12" r="12" fill="#D4D4D4"/>
<path d="M12 23.25C18.2132 23.25 23.25 18.2132 23.25 12C23.25 5.7868 18.2132 0.75 12 0.75C5.7868 0.75 0.75 5.7868 0.75 12C0.75 18.2132 5.7868 23.25 12 23.25Z" fill="#F0F0F0"/>
<path d="M0.75 12C0.75 5.78684 5.78684 0.75 12 0.75C18.2132 0.75 23.25 5.78684 23.25 12" fill="#D80027"/>
<path d="M7.59438 6.61918C7.59438 4.98011 8.74631 3.61086 10.2846 3.2749C10.0481 3.22331 9.80289 3.19531 9.55086 3.19531C7.65985 3.19531 6.12695 4.72821 6.12695 6.61922C6.12695 8.51023 7.65985 10.0431 9.55086 10.0431C9.8028 10.0431 10.0481 10.0151 10.2846 9.96351C8.74631 9.62754 7.59438 8.2583 7.59438 6.61918Z" fill="#F0F0F0"/>
<path d="M11.9954 3.44336L12.2382 4.19065H13.024L12.3883 4.65256L12.6311 5.39985L11.9954 4.93803L11.3597 5.39985L11.6025 4.65256L10.9668 4.19065H11.7525L11.9954 3.44336Z" fill="#F0F0F0"/>
<path d="M10.0892 4.90918L10.332 5.65651H11.1178L10.4821 6.11838L10.7249 6.86567L10.0892 6.40385L9.45342 6.86567L9.6963 6.11838L9.06055 5.65651H9.84633L10.0892 4.90918Z" fill="#F0F0F0"/>
<path d="M13.9016 4.90918L14.1445 5.65651H14.9303L14.2945 6.11838L14.5374 6.86567L13.9016 6.40385L13.2659 6.86567L13.5088 6.11838L12.873 5.65651H13.6588L13.9016 4.90918Z" fill="#F0F0F0"/>
<path d="M13.1702 7.10645L13.413 7.85378H14.1988L13.5631 8.31564L13.8059 9.06293L13.1702 8.60111L12.5345 9.06293L12.7773 8.31564L12.1416 7.85378H12.9273L13.1702 7.10645Z" fill="#F0F0F0"/>
<path d="M10.8255 7.10645L11.0683 7.85378H11.8541L11.2184 8.31564L11.4613 9.06293L10.8255 8.60111L10.1897 9.06293L10.4326 8.31564L9.79688 7.85378H10.5827L10.8255 7.10645Z" fill="#F0F0F0"/>
</svg>
