<svg width="24" height="24" viewBox="0 0 24 24" fill="none" xmlns="http://www.w3.org/2000/svg">
<circle cx="12" cy="12" r="12" fill="#D4D4D4"/>
<path d="M1.44727 15.9118C3.03681 20.1958 7.16042 23.2488 11.9975 23.2488C16.8346 23.2488 20.9582 20.1958 22.5478 15.9118L11.9975 14.9336L1.44727 15.9118Z" fill="#FFDA44"/>
<path d="M11.9975 0.75C7.16042 0.75 3.03681 3.80297 1.44727 8.08698L11.9975 9.0652L22.5478 8.08693C20.9582 3.80297 16.8346 0.75 11.9975 0.75Z" fill="black"/>
<path d="M1.44974 8.08887C0.997544 9.3076 0.75 10.6258 0.75 12.0019C0.75 13.378 0.997544 14.6962 1.44974 15.9149H22.5503C23.0025 14.6962 23.25 13.378 23.25 12.0019C23.25 10.6258 23.0025 9.3076 22.5503 8.08887H1.44974Z" fill="#D80027"/>
</svg>
