<svg width="24" height="24" viewBox="0 0 24 24" fill="none" xmlns="http://www.w3.org/2000/svg">
<circle cx="12" cy="12" r="12" fill="#D4D4D4"/>
<path d="M12 23.25C18.2132 23.25 23.25 18.2132 23.25 12C23.25 5.7868 18.2132 0.75 12 0.75C5.7868 0.75 0.75 5.7868 0.75 12C0.75 18.2132 5.7868 23.25 12 23.25Z" fill="#F0F0F0"/>
<path d="M11.999 0.75C7.53857 0.75 3.68457 3.34717 1.86523 7.10889H22.1328C20.3135 3.34717 16.4595 0.75 11.999 0.75Z" fill="#FF9811"/>
<path d="M11.9989 23.6236C16.6081 23.6236 20.5905 20.9398 22.4705 17.0527H1.52734C3.40732 20.9398 7.3898 23.6236 11.9989 23.6236Z" fill="#6DA544"/>
</svg>
