<svg xmlns="http://www.w3.org/2000/svg" viewBox="0 0 900 600">
  <rect width="900" height="600" fill="#ffffff"/>
  <rect width="900" height="600" fill="#cd212a"/>
  <rect width="900" height="300" fill="#003478"/>
  <g fill="#ffffff">
    <circle cx="450" cy="300" r="120"/>
  </g>
  <g fill="#cd212a">
    <path d="M 450,180 A 120,120 0 0,1 450,420 A 60,60 0 0,1 450,300 A 60,60 0 0,0 450,180 Z"/>
  </g>
  <g fill="#003478">
    <path d="M 450,180 A 120,120 0 0,0 450,420 A 60,60 0 0,0 450,300 A 60,60 0 0,1 450,180 Z"/>
  </g>
  <g fill="#000000">
    <rect x="540" y="190" width="60" height="10"/>
    <rect x="540" y="210" width="60" height="10"/>
    <rect x="540" y="230" width="60" height="10"/>
    <rect x="550" y="250" width="40" height="10"/>
    <rect x="550" y="270" width="40" height="10"/>
    <rect x="540" y="290" width="60" height="10"/>
    
    <rect x="300" y="360" width="60" height="10"/>
    <rect x="310" y="380" width="40" height="10"/>
    <rect x="310" y="400" width="40" height="10"/>
    <rect x="300" y="420" width="60" height="10"/>
    <rect x="300" y="440" width="60" height="10"/>
    <rect x="300" y="460" width="60" height="10"/>
    
    <rect x="540" y="360" width="60" height="10"/>
    <rect x="550" y="380" width="40" height="10"/>
    <rect x="550" y="400" width="40" height="10"/>
    <rect x="540" y="420" width="60" height="10"/>
    <rect x="540" y="440" width="60" height="10"/>
    <rect x="540" y="460" width="60" height="10"/>
    
    <rect x="300" y="190" width="60" height="10"/>
    <rect x="310" y="210" width="40" height="10"/>
    <rect x="310" y="230" width="40" height="10"/>
    <rect x="300" y="250" width="60" height="10"/>
    <rect x="300" y="270" width="60" height="10"/>
    <rect x="300" y="290" width="60" height="10"/>
  </g>
</svg>
