<svg width="24" height="24" viewBox="0 0 24 24" fill="none" xmlns="http://www.w3.org/2000/svg">
<circle cx="12" cy="12" r="12" fill="#D4D4D4"/>
<path d="M0.75 12.0026C0.75 13.3787 0.997544 14.6969 1.44974 15.9156L12 16.8939L22.5503 15.9156C23.0025 14.6969 23.25 13.3787 23.25 12.0026C23.25 10.6265 23.0025 9.30833 22.5503 8.08959L12 7.11133L1.44974 8.08959C0.997544 9.30833 0.75 10.6265 0.75 12.0026Z" fill="#FFDA44"/>
<path d="M22.5488 8.08698C20.9592 3.80301 16.8356 0.75 11.9985 0.75C7.1614 0.75 3.03779 3.80301 1.44824 8.08698H22.5488Z" fill="#D80027"/>
<path d="M1.44824 15.9111C3.03779 20.1951 7.1614 23.2481 11.9985 23.2481C16.8356 23.2481 20.9592 20.1951 22.5488 15.9111H1.44824Z" fill="#D80027"/>
</svg>
