<svg width="24" height="24" viewBox="0 0 24 24" fill="none" xmlns="http://www.w3.org/2000/svg">
<circle cx="12" cy="12" r="12" fill="#D4D4D4"/>
<path d="M12 23.25C18.2132 23.25 23.25 18.2132 23.25 12C23.25 5.7868 18.2132 0.75 12 0.75C5.7868 0.75 0.75 5.7868 0.75 12C0.75 18.2132 5.7868 23.25 12 23.25Z" fill="#F0F0F0"/>
<path d="M1.13965 14.9336C1.79057 17.3488 3.22516 19.4421 5.15427 20.9243V14.9336H1.13965Z" fill="#D80027"/>
<path d="M11.0225 23.206C11.3449 23.2338 11.671 23.2488 12.0007 23.2488C17.1985 23.2488 21.5722 19.7235 22.8632 14.9336H11.0225V23.206Z" fill="#D80027"/>
<path d="M22.8632 9.0652C21.5722 4.27534 17.1985 0.75 12.0007 0.75C11.671 0.75 11.3449 0.765029 11.0225 0.792803V9.0652H22.8632Z" fill="#D80027"/>
<path d="M5.15427 3.07324C3.22516 4.55552 1.79057 6.64876 1.13965 9.06395H5.15427V3.07324Z" fill="#D80027"/>
<path d="M23.1548 10.5347H9.5544L9.55436 1.01953C8.5147 1.25007 7.52905 1.62374 6.61956 2.12001V10.5347V10.5347H0.845229C0.782607 11.0151 0.75 11.5048 0.75 12.0021C0.75 12.4995 0.782607 12.9892 0.845229 13.4695H6.61951H6.61956V21.8842C7.52905 22.3804 8.5147 22.7542 9.55436 22.9847V13.4696V13.4695H23.1548C23.2173 12.9892 23.25 12.4995 23.25 12.0021C23.25 11.5048 23.2173 11.0151 23.1548 10.5347Z" fill="#0052B4"/>
</svg>
