<svg width="24" height="24" viewBox="0 0 24 24" fill="none" xmlns="http://www.w3.org/2000/svg">
<circle cx="12" cy="12" r="12" fill="#D4D4D4"/>
<path d="M12.0002 23.2943C18.2377 23.2943 23.2943 18.2377 23.2943 12.0002C23.2943 5.7626 18.2377 0.706055 12.0002 0.706055C5.7626 0.706055 0.706055 5.7626 0.706055 12.0002C0.706055 18.2377 5.7626 23.2943 12.0002 23.2943Z" fill="#F0F0F0"/>
<path d="M3.04036 5.12402C2.1532 6.27827 1.48424 7.60864 1.09473 9.05389H6.97023L3.04036 5.12402Z" fill="#0052B4"/>
<path d="M22.9057 9.05385C22.5162 7.60864 21.8472 6.27827 20.9601 5.12402L17.0303 9.05385H22.9057Z" fill="#0052B4"/>
<path d="M1.09473 14.9463C1.48429 16.3915 2.15324 17.7219 3.04036 18.8761L6.97009 14.9463H1.09473Z" fill="#0052B4"/>
<path d="M18.8751 3.0404C17.7209 2.15324 16.3906 1.48429 14.9453 1.09473V6.97018L18.8751 3.0404Z" fill="#0052B4"/>
<path d="M5.12402 20.959C6.27827 21.8462 7.60864 22.5151 9.05385 22.9047V17.0293L5.12402 20.959Z" fill="#0052B4"/>
<path d="M9.0538 1.09473C7.6086 1.48429 6.27823 2.15324 5.12402 3.04036L9.0538 6.97014V1.09473Z" fill="#0052B4"/>
<path d="M14.9453 22.9047C16.3905 22.5151 17.7209 21.8462 18.8751 20.9591L14.9453 17.0293V22.9047Z" fill="#0052B4"/>
<path d="M17.0303 14.9463L20.9601 18.8761C21.8472 17.7219 22.5162 16.3915 22.9057 14.9463H17.0303Z" fill="#0052B4"/>
<path d="M23.1987 10.527H13.4734H13.4733V0.801658C12.9911 0.738878 12.4995 0.706055 12.0002 0.706055C11.5008 0.706055 11.0092 0.738878 10.527 0.801658V10.527V10.527H0.801658C0.738878 11.0092 0.706055 11.5009 0.706055 12.0002C0.706055 12.4995 0.738878 12.9911 0.801658 13.4733H10.527H10.527V23.1987C11.0092 23.2615 11.5008 23.2943 12.0002 23.2943C12.4995 23.2943 12.9911 23.2615 13.4733 23.1987V13.4734V13.4733H23.1987C23.2615 12.9911 23.2943 12.4995 23.2943 12.0002C23.2943 11.5009 23.2615 11.0092 23.1987 10.527Z" fill="#D80027"/>
<path d="M14.9453 14.9454L19.9851 19.9852C20.2169 19.7535 20.438 19.5112 20.649 19.2601L16.3342 14.9453H14.9453V14.9454Z" fill="#D80027"/>
<path d="M9.05354 14.9463H9.05345L4.01367 19.9861C4.24538 20.2179 4.48763 20.439 4.73875 20.65L9.05354 16.3351V14.9463Z" fill="#D80027"/>
<path d="M9.05332 9.05363V9.05354L4.01349 4.01367C3.7817 4.24538 3.56058 4.48763 3.34961 4.73875L7.66445 9.05358L9.05332 9.05363Z" fill="#D80027"/>
<path d="M14.9453 9.05336L19.9852 4.01345C19.7535 3.78165 19.5112 3.56054 19.2601 3.34961L14.9453 7.66445V9.05336Z" fill="#D80027"/>
</svg>
