<svg width="24" height="24" viewBox="0 0 24 24" fill="none" xmlns="http://www.w3.org/2000/svg">
<circle cx="12" cy="12" r="12" fill="#D4D4D4"/>
<path d="M12 23.25C18.2132 23.25 23.25 18.2132 23.25 12C23.25 5.7868 18.2132 0.75 12 0.75C5.7868 0.75 0.75 5.7868 0.75 12C0.75 18.2132 5.7868 23.25 12 23.25Z" fill="#D80027"/>
<path d="M6.90625 7.59473L7.87744 10.583H11.0195L8.47949 12.4331L9.45068 15.4214L6.90625 13.5757L4.36182 15.4214L5.3374 12.4331L2.79297 10.583H5.93506L6.90625 7.59473Z" fill="#FFDA44"/>
<path d="M14.0894 18.1724L13.3467 17.2583L12.248 17.6846L12.8853 16.6958L12.1426 15.7773L13.2808 16.0806L13.9224 15.0918L13.9839 16.2695L15.1265 16.5728L14.0234 16.9946L14.0894 18.1724Z" fill="#FFDA44"/>
<path d="M15.5659 15.4917L15.9175 14.3667L14.9551 13.6855L16.1328 13.668L16.48 12.543L16.8623 13.6592L18.04 13.646L17.0952 14.3491L17.4731 15.4653L16.5107 14.7842L15.5659 15.4917Z" fill="#FFDA44"/>
<path d="M17.5522 9.00488L17.0337 10.064L17.8774 10.8857L16.7129 10.7187L16.1943 11.7734L15.9922 10.6133L14.8232 10.4463L15.8691 9.89697L15.667 8.73242L16.5107 9.5542L17.5522 9.00488Z" fill="#FFDA44"/>
<path d="M14.1167 5.79785L14.0288 6.97119L15.123 7.41504L13.9761 7.69629L13.8926 8.87402L13.2729 7.87207L12.126 8.15332L12.8862 7.25244L12.2622 6.25488L13.3564 6.69873L14.1167 5.79785Z" fill="#FFDA44"/>
</svg>
