<svg width="28" height="28" viewBox="0 0 28 28" fill="none" xmlns="http://www.w3.org/2000/svg">
<path d="M9.61717 22.8661L12.7874 15.2127L10.2415 14.1582L6.58902 22.9759C6.43514 23.3474 6.78328 23.7303 7.16768 23.6123L9.23877 22.9768C9.30022 22.9579 9.35936 22.9522 9.42024 22.9581L9.61717 22.8661Z" fill="#FFE07D"/>
<path d="M12.6515 15.1562L9.41992 22.9578C9.57633 22.9717 9.72065 23.0625 9.79792 23.2082L10.813 25.1221C11.0014 25.4774 11.5183 25.4528 11.6722 25.0813L15.3247 16.2636L12.6515 15.1562Z" fill="#FFD064"/>
<path d="M15.4201 15.1274L12.6758 16.2642L16.3283 25.082C16.4822 25.4535 16.9991 25.478 17.1875 25.1228L18.2026 23.2088C18.2338 23.1499 18.2761 23.0999 18.3256 23.0603L18.5741 22.7462L15.4201 15.1274Z" fill="#FFE07D"/>
<path d="M21.4121 22.976L17.7595 14.1582L15.0957 15.2616L18.3261 23.0603C18.4459 22.9646 18.6082 22.9295 18.7623 22.9768L20.8334 23.6123C21.2179 23.7304 21.566 23.3475 21.4121 22.976Z" fill="#FFD064"/>
<path d="M14.9172 2.94466C15.2992 3.24774 15.8063 3.34251 16.272 3.19793C16.9269 2.99455 17.6355 3.26911 17.9824 3.86057C18.2292 4.28117 18.6677 4.55275 19.1542 4.58612C19.8383 4.63304 20.3999 5.14505 20.5098 5.82191C20.5879 6.30326 20.8988 6.71489 21.3404 6.92177C21.9614 7.21268 22.3001 7.89296 22.1581 8.56377C22.057 9.04081 22.1982 9.537 22.5352 9.88941C23.0091 10.385 23.0792 11.1417 22.7045 11.7159C22.4379 12.1242 22.3903 12.6379 22.5773 13.0883C22.8402 13.7216 22.6322 14.4525 22.0753 14.8526C21.6793 15.137 21.4493 15.5988 21.461 16.0863C21.4774 16.7718 21.0194 17.3782 20.3556 17.5501C19.8835 17.6723 19.5023 18.0199 19.337 18.4786C19.1047 19.1238 18.4585 19.5239 17.7774 19.4443C17.2931 19.3877 16.8121 19.574 16.4922 19.9422C16.0425 20.4598 15.2955 20.5994 14.6892 20.2792C14.258 20.0515 13.7421 20.0515 13.3109 20.2792C12.7046 20.5995 11.9576 20.4598 11.5078 19.9422C11.188 19.574 10.707 19.3877 10.2226 19.4443C9.54157 19.5239 8.89546 19.1238 8.66307 18.4786C8.49782 18.0199 8.11663 17.6723 7.64452 17.5501C6.98068 17.3783 6.52271 16.7718 6.5391 16.0863C6.55074 15.5988 6.3208 15.137 5.92476 14.8526C5.36783 14.4525 5.15988 13.7216 5.4228 13.0883C5.60977 12.6379 5.56218 12.1242 5.29563 11.7159C4.92083 11.1417 4.99095 10.385 5.46487 9.88941C5.8019 9.537 5.94307 9.04081 5.84207 8.56377C5.70002 7.89296 6.03873 7.21264 6.65969 6.92177C7.10128 6.71489 7.41213 6.30326 7.49029 5.82191C7.60013 5.14505 8.16177 4.63309 8.84587 4.58612C9.33238 4.55275 9.77094 4.28117 10.0177 3.86057C10.3646 3.26911 11.0733 2.9946 11.7281 3.19793C12.1938 3.34256 12.7009 3.24774 13.0829 2.94466C13.6201 2.51845 14.3801 2.51845 14.9172 2.94466Z" fill="#E8AE4D"/>
<path d="M18.0262 11.5377C18.0262 8.52931 16.0854 5.97437 13.3877 5.05615C10.0796 5.36488 7.49023 8.14886 7.49023 11.5377C7.49023 14.9265 10.0796 17.7105 13.3877 18.0192C16.0855 17.101 18.0262 14.5461 18.0262 11.5377Z" fill="#FFE07D"/>
<path d="M14.0007 5.02783C13.5023 5.02783 13.0171 5.08404 12.5508 5.1901C15.4482 5.84914 17.6109 8.44082 17.6109 11.5378C17.6109 14.6348 15.4482 17.2265 12.5508 17.8855C13.0171 17.9916 13.5023 18.0478 14.0007 18.0478C17.596 18.0478 20.5106 15.1331 20.5106 11.5378C20.5106 7.94246 17.596 5.02783 14.0007 5.02783Z" fill="#FFD064"/>
<path d="M14.1799 14.0363L16.4268 15.5487C16.5151 15.6082 16.6127 15.6169 16.6982 15.5906C16.7776 15.4827 16.8539 15.3724 16.9271 15.2598C16.9253 15.2383 16.9214 15.2164 16.915 15.194L16.1709 12.5898C16.135 12.4641 16.1788 12.3292 16.2818 12.2486L17.9977 10.9054C17.9692 10.5943 17.9199 10.2893 17.8512 9.99167L15.5213 9.90809C15.3907 9.90343 15.2759 9.82003 15.2311 9.69726L14.3023 7.15294C14.1995 6.87155 13.8015 6.87155 13.6988 7.15294L12.77 9.69717C12.7252 9.81994 12.6105 9.90334 12.4798 9.908L9.77311 10.0051C9.47372 10.0158 9.35077 10.3943 9.58662 10.579L11.7193 12.2485C11.8223 12.3291 11.8661 12.464 11.8302 12.5897L11.0861 15.194C11.0038 15.482 11.3258 15.7159 11.5743 15.5487L13.8212 14.0362C13.9297 13.9633 14.0715 13.9633 14.1799 14.0363Z" fill="#AA7926"/>
<path d="M16.4268 15.5486C16.6753 15.7159 16.9972 15.4819 16.9149 15.1939L16.78 14.7217C16.6352 14.9794 16.4732 15.226 16.2959 15.4605L16.4268 15.5486Z" fill="#E5A32E"/>
<path d="M18.2277 10.005L17.4219 9.97607C17.5203 10.3756 17.5816 10.7897 17.6024 11.2144L18.4142 10.5789C18.6501 10.3943 18.5271 10.0158 18.2277 10.005Z" fill="#E5A32E"/>
</svg>
