<svg width="40" height="40" viewBox="0 0 40 40" fill="none" xmlns="http://www.w3.org/2000/svg">
<circle opacity="0.24" cx="20" cy="20" r="19.5" fill="#404040" stroke="white"/>
<path d="M20 19.6484C22.7651 19.6486 25.0066 21.9652 25.0068 24.8242C25.0068 27.6826 22.7651 29.9999 20 30C17.2339 30 14.9922 27.6827 14.9922 24.8242C14.9924 21.9651 17.2341 19.6484 20 19.6484ZM19.0967 23.8418L17.0771 24.1465L18.5391 25.6182L18.1943 27.6992L20 26.7168L21.8057 27.6992L21.4619 25.6182L22.9238 24.1465L20.9033 23.8418L20 21.9512L19.0967 23.8418ZM17.6055 10L20 13.3008L22.3945 10H27L20 19.6484L13 10H17.6055Z" fill="white"/>
</svg>
