<svg width="26" height="26" viewBox="0 0 26 26" fill="none" xmlns="http://www.w3.org/2000/svg">
<path d="M13.0004 25.5994C19.9592 25.5994 25.6004 19.9582 25.6004 12.9994C25.6004 6.04063 19.9592 0.399414 13.0004 0.399414C6.0416 0.399414 0.400391 6.04063 0.400391 12.9994C0.400391 19.9582 6.0416 25.5994 13.0004 25.5994Z" fill="url(#paint0_linear_76_5554)"/>
<path opacity="0.4" d="M13.1271 25.2907C6.16828 25.2907 0.527063 19.6496 0.527063 12.6907C0.527063 11.0227 0.858751 9.43411 1.44737 7.97705C0.777047 9.51655 0.400391 11.2132 0.400391 12.9995C0.400391 19.9583 6.04161 25.5995 13.0003 25.5995C18.2911 25.5995 22.8128 22.3348 24.68 17.7132C22.7391 22.1711 18.2996 25.2907 13.1271 25.2907Z" fill="url(#paint1_linear_76_5554)"/>
<path opacity="0.3" d="M13.5387 24.6707C6.57988 24.6707 0.938663 19.0295 0.938663 12.0708C0.938663 9.97773 1.45694 8.00849 2.35994 6.27148C1.12542 8.21961 0.400391 10.5226 0.400391 12.9996C0.400391 19.9584 6.04161 25.5995 13.0003 25.5995C17.8661 25.5995 22.0798 22.837 24.1791 18.7989C21.9454 22.3237 18.0204 24.6707 13.5387 24.6707Z" fill="url(#paint2_linear_76_5554)"/>
<path d="M12.9999 2.62549C7.27062 2.62549 2.62598 7.27007 2.62598 12.9995C2.62598 18.7288 7.27062 23.3734 12.9999 23.3734C18.7293 23.3734 23.3739 18.7288 23.3739 12.9995C23.3739 7.27007 18.7293 2.62549 12.9999 2.62549ZM12.9999 22.4546C7.77798 22.4546 3.54477 18.2214 3.54477 12.9994C3.54477 7.77749 7.77798 3.54428 12.9999 3.54428C18.2219 3.54428 22.4551 7.77749 22.4551 12.9994C22.4551 18.2214 18.2219 22.4546 12.9999 22.4546Z" fill="url(#paint3_linear_76_5554)"/>
<g opacity="0.4">
<path d="M3.37109 13.308C3.37109 18.53 7.6043 22.7632 12.8263 22.7632C16.4583 22.7632 19.6077 20.7127 21.1915 17.7085C19.5586 20.5422 16.5058 22.4545 13.0005 22.4545C7.77852 22.4545 3.54531 18.2213 3.54531 12.9993C3.54531 11.4094 3.94207 9.91368 4.63529 8.59863C3.83561 9.98631 3.37109 11.5914 3.37109 13.308Z" fill="url(#paint4_linear_76_5554)"/>
<path d="M12.826 2.93422C18.5553 2.93422 23.2 7.5788 23.2 13.3082C23.2 15.0566 22.763 16.7014 21.999 18.1467C22.8693 16.6287 23.3741 14.8746 23.3741 12.9994C23.3741 7.27002 18.7295 2.62549 13.0002 2.62549C9.01924 2.62549 5.56645 4.87036 3.82715 8.16086C5.61579 5.04088 8.97187 2.93422 12.826 2.93422Z" fill="url(#paint5_linear_76_5554)"/>
</g>
<path opacity="0.4" d="M12.6841 1.00108C19.6428 1.00108 25.284 6.64229 25.284 13.601C25.284 15.6223 24.7963 17.5256 23.9504 19.2185C24.9956 17.3825 25.6007 15.2633 25.6007 12.9994C25.6007 6.04063 19.9595 0.399414 13.0007 0.399414C8.06321 0.399414 3.80083 3.24629 1.73438 7.38189C3.90202 3.57417 7.98924 1.00108 12.6841 1.00108Z" fill="#FFCF8B"/>
<g opacity="0.3">
<path d="M22.4552 12.9991C22.4552 7.77715 18.2219 3.54395 12.9999 3.54395C8.73499 3.54395 5.13234 6.36892 3.9541 10.249C5.19607 6.47611 8.74277 3.74975 12.9313 3.74975C18.1533 3.74975 22.3865 7.98301 22.3865 13.205C22.3865 14.1619 22.2416 15.0845 21.9772 15.9551C22.2836 15.0243 22.4552 14.0325 22.4552 12.9991Z" fill="white"/>
<path d="M13.0002 23.3729C7.27086 23.3729 2.62622 18.7283 2.62622 12.999C2.62622 11.9469 2.78565 10.9325 3.07685 9.97559C2.7437 10.9927 2.55762 12.0763 2.55762 13.2048C2.55762 18.9341 7.20226 23.5787 12.9316 23.5787C17.6088 23.5787 21.5604 20.4821 22.8549 16.2281C21.4965 20.375 17.6011 23.3729 13.0002 23.3729Z" fill="white"/>
</g>
<path opacity="0.4" d="M12.6825 8.11279L14.7877 7.4577C15.0082 7.3891 15.2463 7.48772 15.3538 7.69223L16.3791 9.64406C16.4243 9.72996 16.4944 9.80007 16.5803 9.84521L18.5321 10.8706C18.7366 10.978 18.8353 11.2162 18.7666 11.4368L18.1115 13.5419C18.0828 13.6346 18.0828 13.7338 18.1115 13.8265L18.7666 15.9317C18.8353 16.1523 18.7367 16.3904 18.5321 16.4978L16.5803 17.5233C16.4944 17.5683 16.4243 17.6386 16.3791 17.7244L15.3538 19.6762C15.2463 19.8807 15.0082 19.9794 14.7877 19.9107L12.6825 19.2557C12.5898 19.2268 12.4905 19.2268 12.3979 19.2557L10.2927 19.9107C10.0721 19.9794 9.83407 19.8807 9.72661 19.6762L8.70125 17.7244C8.65611 17.6385 8.58595 17.5683 8.49999 17.5233L6.54822 16.4978C6.34371 16.3904 6.24503 16.1522 6.31369 15.9317L6.96878 13.8265C6.99756 13.7338 6.99756 13.6346 6.96878 13.5419L6.31369 11.4368C6.24503 11.2162 6.34365 10.978 6.54822 10.8706L8.49999 9.84521C8.58595 9.80007 8.65606 9.7299 8.70125 9.64406L9.72661 7.69223C9.83407 7.48778 10.0722 7.3891 10.2927 7.4577L12.3979 8.11279C12.4906 8.14163 12.5898 8.14163 12.6825 8.11279Z" fill="url(#paint6_linear_76_5554)"/>
<path opacity="0.4" d="M13.0477 7.73288L15.1529 7.07785C15.3735 7.00919 15.6115 7.10781 15.719 7.31232L16.7444 9.26415C16.7896 9.35005 16.8597 9.42022 16.9456 9.4653L18.8974 10.4908C19.1019 10.5982 19.2005 10.8363 19.1319 11.0569L18.4768 13.1621C18.4481 13.2547 18.4481 13.354 18.4768 13.4466L19.1319 15.5518C19.2005 15.7724 19.1019 16.0105 18.8974 16.118L16.9456 17.1433C16.8597 17.1885 16.7896 17.2586 16.7444 17.3445L15.719 19.2963C15.6115 19.5008 15.3734 19.5994 15.1529 19.5308L13.0477 18.8758C12.9551 18.847 12.8558 18.847 12.7632 18.8758L10.6579 19.5308C10.4374 19.5994 10.1993 19.5008 10.0918 19.2963L9.06637 17.3445C9.02129 17.2586 8.95107 17.1885 8.86522 17.1433L6.91345 16.118C6.70894 16.0105 6.61027 15.7724 6.67892 15.5518L7.33396 13.4466C7.36285 13.354 7.36285 13.2548 7.33396 13.1621L6.67892 11.0569C6.61027 10.8363 6.70888 10.5981 6.91345 10.4908L8.86522 9.4653C8.95112 9.42022 9.02129 9.34999 9.06637 9.26415L10.0918 7.31232C10.1993 7.10787 10.4374 7.00919 10.6579 7.07785L12.7632 7.73288C12.8558 7.76172 12.955 7.76172 13.0477 7.73288Z" fill="url(#paint7_linear_76_5554)"/>
<path d="M13.1424 7.42773L15.2476 6.77265C15.4682 6.70405 15.7063 6.80266 15.8137 7.00717L16.8391 8.959C16.8842 9.0449 16.9544 9.11501 17.0403 9.16015L18.992 10.1855C19.1966 10.293 19.2952 10.5311 19.2266 10.7517L18.5715 12.8569C18.5427 12.9496 18.5427 13.0488 18.5715 13.1414L19.2266 15.2466C19.2952 15.4672 19.1966 15.7053 18.992 15.8127L17.0403 16.8381C16.9544 16.8832 16.8842 16.9534 16.8391 17.0393L15.8137 18.9911C15.7063 19.1956 15.4681 19.2942 15.2476 19.2256L13.1424 18.5706C13.0498 18.5418 12.9505 18.5418 12.8579 18.5706L10.7526 19.2256C10.5321 19.2943 10.294 19.1957 10.1865 18.9911L9.16113 17.0393C9.11599 16.9534 9.04582 16.8833 8.95997 16.8382L7.00815 15.8127C6.80369 15.7053 6.70502 15.4671 6.77362 15.2466L7.42871 13.1414C7.45749 13.0488 7.45749 12.9496 7.42871 12.8569L6.77362 10.7517C6.70502 10.5311 6.80364 10.293 7.00815 10.1855L8.95997 9.16015C9.04588 9.11501 9.11599 9.04485 9.16113 8.959L10.1865 7.00717C10.294 6.80272 10.5321 6.70405 10.7526 6.77265L12.8579 7.42773C12.9505 7.45652 13.0497 7.45652 13.1424 7.42773Z" fill="url(#paint8_linear_76_5554)"/>
<g opacity="0.2">
<path d="M9.3658 8.65862L10.3095 6.8623C10.2607 6.90212 10.2173 6.94899 10.1865 7.00762L9.26758 8.75684C9.30045 8.72346 9.34379 8.7005 9.3658 8.65862Z" fill="#FFEF5C"/>
<path d="M19.1969 15.5127L17.2451 16.5381C17.1592 16.5832 17.0891 16.6534 17.044 16.7393L16.9375 16.9419C16.972 16.9069 16.9965 16.862 17.0405 16.839L18.9923 15.8136C19.1225 15.7451 19.203 15.622 19.2316 15.4858C19.2191 15.494 19.2103 15.5057 19.1969 15.5127Z" fill="#FFEF5C"/>
<path d="M15.4522 18.9253L13.3471 18.2702C13.2545 18.2414 13.1552 18.2414 13.0625 18.2702L10.9573 18.9253C10.7367 18.9939 10.4986 18.8953 10.3911 18.6907L9.36576 16.739C9.32062 16.653 9.25045 16.5829 9.16455 16.5378L7.21278 15.5124C7.00827 15.405 6.90965 15.1668 6.97825 14.9463L7.63334 12.8411C7.66212 12.7484 7.66212 12.6492 7.63334 12.5565L6.97825 10.4513C6.95333 10.3712 6.9572 10.2906 6.97349 10.2129C6.79552 10.3286 6.70945 10.546 6.77363 10.7522L7.42872 12.8574C7.4575 12.9501 7.4575 13.0493 7.42872 13.1419L6.77363 15.2471C6.70503 15.4677 6.80359 15.7058 7.00816 15.8132L8.95992 16.8386C9.04588 16.8837 9.116 16.9539 9.16113 17.0397L10.1865 18.9916C10.294 19.196 10.5322 19.2947 10.7527 19.2261L12.8579 18.5711C12.9505 18.5422 13.0498 18.5422 13.1425 18.5711L15.2476 19.2261C15.4682 19.2947 15.7062 19.1961 15.8138 18.9916L15.8955 18.8361C15.7741 18.9352 15.6096 18.9743 15.4522 18.9253Z" fill="#FFEF5C"/>
</g>
<g opacity="0.2">
<path d="M6.91453 10.5921L8.8663 9.56671C8.9522 9.52157 9.02232 9.45141 9.06745 9.36545L10.0929 7.41368C10.2004 7.20917 10.4385 7.11055 10.6591 7.17915L12.7643 7.83424C12.8569 7.86302 12.9561 7.86302 13.0488 7.83424L15.154 7.17915C15.3746 7.11055 15.6127 7.20911 15.7201 7.41368L16.7456 9.36545C16.7907 9.45141 16.8609 9.52152 16.9468 9.56671L18.8985 10.5921C19.0512 10.6723 19.1445 10.8254 19.1536 10.9897L19.2276 10.7517C19.2963 10.5311 19.1977 10.293 18.9931 10.1856L17.0413 9.16021C16.9554 9.11507 16.8853 9.0449 16.8402 8.95905L15.8147 7.00717C15.7072 6.80272 15.4691 6.70405 15.2485 6.77265L13.1434 7.42768C13.0507 7.45657 12.9514 7.45657 12.8588 7.42768L10.7536 6.77265C10.533 6.70405 10.2949 6.80266 10.1875 7.00717L9.16204 8.959C9.1169 9.0449 9.04673 9.11501 8.96083 9.16015L7.00912 10.1856C6.8162 10.287 6.72279 10.5045 6.76983 10.714C6.80942 10.6656 6.85624 10.6226 6.91453 10.5921Z" fill="#FFD28B"/>
<path d="M18.5723 13.1409C18.5599 13.1011 18.5554 13.0598 18.5536 13.0186L18.4776 13.2629C18.4489 13.3555 18.4489 13.4547 18.4776 13.5474L19.1327 15.6526C19.1366 15.6652 19.1347 15.6778 19.1375 15.6904C19.2371 15.5689 19.2764 15.4039 19.2273 15.2461L18.5723 13.1409Z" fill="#FFD28B"/>
<path d="M7.35327 13.3862L6.77423 15.2472C6.75687 15.303 6.7506 15.36 6.75368 15.4157L7.33468 13.5485C7.35115 13.4957 7.35557 13.4409 7.35327 13.3862Z" fill="#FFD28B"/>
</g>
<path opacity="0.2" d="M18.8116 13.9133L18.2178 14.2253C18.1319 14.2705 18.0618 14.3406 18.0167 14.4265L16.9913 16.3782C16.8838 16.5828 16.6457 16.6814 16.4251 16.6128L14.3199 15.9577C14.2272 15.929 14.1281 15.929 14.0354 15.9577L11.9302 16.6128C11.7096 16.6814 11.4715 16.5828 11.3641 16.3782L10.3386 14.4265C10.2935 14.3406 10.2233 14.2705 10.1374 14.2253L8.18567 13.2C7.98116 13.0925 7.88254 12.8543 7.95114 12.6339L8.60617 10.5286C8.63507 10.436 8.63507 10.3368 8.60617 10.2441L8.36616 9.47266L7.00816 10.1861C6.80364 10.2936 6.70503 10.5317 6.77363 10.7522L7.42872 12.8575C7.4575 12.9501 7.4575 13.0493 7.42872 13.1419L6.77363 15.2472C6.70503 15.4677 6.80359 15.7058 7.00816 15.8133L8.95992 16.8387C9.04588 16.8838 9.116 16.954 9.16113 17.0398L10.1865 18.9916C10.294 19.1961 10.5322 19.2947 10.7527 19.2261L12.8579 18.5711C12.9505 18.5422 13.0498 18.5422 13.1425 18.5711L15.2476 19.2261C15.4682 19.2947 15.7062 19.1962 15.8138 18.9916L16.8392 17.0398C16.8843 16.9539 16.9545 16.8838 17.0403 16.8387L18.9921 15.8133C19.1966 15.7058 19.2953 15.4677 19.2266 15.2472L18.8116 13.9133Z" fill="url(#paint9_linear_76_5554)"/>
<g opacity="0.1">
<path d="M7.05863 24.1095C10.8494 18.4666 16.5709 9.68153 20.817 3.12841C18.668 1.42438 15.9561 0.399414 13.0005 0.399414C12.4011 0.399414 11.8162 0.45575 11.2392 0.536614L4.30371 22.1023C5.12562 22.8878 6.04811 23.5679 7.05863 24.1095Z" fill="#FFFBD9"/>
<path d="M25.5306 11.6789C25.2654 9.13422 24.2429 6.8156 22.6924 4.95068L8.20703 24.6498C9.20686 25.0617 10.2729 25.3414 11.3825 25.484L25.5306 11.6789Z" fill="#FFFBD9"/>
</g>
<defs>
<linearGradient id="paint0_linear_76_5554" x1="2.83152" y1="24.0732" x2="22.6811" y2="2.45736" gradientUnits="userSpaceOnUse">
<stop stop-color="#FFB345"/>
<stop offset="0.2513" stop-color="#D47100"/>
<stop offset="0.9249" stop-color="#FFB345"/>
</linearGradient>
<linearGradient id="paint1_linear_76_5554" x1="7.91917" y1="19.3419" x2="6.42308" y2="21.0834" gradientUnits="userSpaceOnUse">
<stop stop-color="#FFB345"/>
<stop offset="0.2513" stop-color="#D47100"/>
<stop offset="0.9249" stop-color="#FFB345"/>
</linearGradient>
<linearGradient id="paint2_linear_76_5554" x1="3.51511" y1="23.48" x2="16.031" y2="9.8505" gradientUnits="userSpaceOnUse">
<stop stop-color="#FFB345"/>
<stop offset="0.2513" stop-color="#D47100"/>
<stop offset="0.9249" stop-color="#FFB345"/>
</linearGradient>
<linearGradient id="paint3_linear_76_5554" x1="16.7711" y1="8.27701" x2="4.32306" y2="23.8651" gradientUnits="userSpaceOnUse">
<stop offset="0.2513" stop-color="#D47100"/>
<stop offset="0.9249" stop-color="#FFB345"/>
</linearGradient>
<linearGradient id="paint4_linear_76_5554" x1="12.5179" y1="13.7837" x2="5.77641" y2="22.2257" gradientUnits="userSpaceOnUse">
<stop offset="0.2513" stop-color="#D47100"/>
<stop offset="0.9249" stop-color="#FFB345"/>
</linearGradient>
<linearGradient id="paint5_linear_76_5554" x1="17.8203" y1="6.8625" x2="10.4305" y2="16.1164" gradientUnits="userSpaceOnUse">
<stop offset="0.2513" stop-color="#D47100"/>
<stop offset="0.9249" stop-color="#FFB345"/>
</linearGradient>
<linearGradient id="paint6_linear_76_5554" x1="10.5332" y1="17.4069" x2="8.57766" y2="21.0341" gradientUnits="userSpaceOnUse">
<stop offset="0.2513" stop-color="#D47100"/>
<stop offset="0.9249" stop-color="#FFB345"/>
</linearGradient>
<linearGradient id="paint7_linear_76_5554" x1="9.03008" y1="19.4365" x2="16.2013" y2="8.08893" gradientUnits="userSpaceOnUse">
<stop offset="0.2513" stop-color="#D47100"/>
<stop offset="0.9249" stop-color="#FFB345"/>
</linearGradient>
<linearGradient id="paint8_linear_76_5554" x1="9.12484" y1="19.1314" x2="16.2961" y2="7.78378" gradientUnits="userSpaceOnUse">
<stop stop-color="#FFB345"/>
<stop offset="0.2513" stop-color="#D47100"/>
<stop offset="0.9249" stop-color="#FFB345"/>
</linearGradient>
<linearGradient id="paint9_linear_76_5554" x1="9.23248" y1="18.9616" x2="14.0789" y2="11.2926" gradientUnits="userSpaceOnUse">
<stop stop-color="#FFB345"/>
<stop offset="0.2513" stop-color="#D47100"/>
<stop offset="0.9249" stop-color="#FFB345"/>
</linearGradient>
</defs>
</svg>
