<svg width="40" height="40" viewBox="0 0 40 40" fill="none" xmlns="http://www.w3.org/2000/svg">
<circle opacity="0.24" cx="20" cy="20" r="19.5" fill="#404040" stroke="white"/>
<g clip-path="url(#clip0_313_5010)">
<path d="M26.1377 10C27.1645 10 28 10.7886 28 11.7578V28.2422C28 29.2114 27.1645 30 26.1377 30H13.8623C12.8355 30 12 29.2114 12 28.2422V11.7578C12 10.7886 12.8355 10 13.8623 10H26.1377ZM13.8623 11.1719C13.52 11.1719 13.2412 11.4347 13.2412 11.7578V28.2422C13.2412 28.5653 13.52 28.8281 13.8623 28.8281H26.1377C26.48 28.8281 26.7587 28.5653 26.7588 28.2422V11.7578C26.7588 11.4347 26.48 11.1719 26.1377 11.1719H13.8623ZM17.0645 24.5947C17.4069 24.595 17.6844 24.8573 17.6846 25.1807V26.9668C17.6844 27.2901 17.4069 27.5525 17.0645 27.5527H14.8848C14.5421 27.5527 14.2638 27.2903 14.2637 26.9668V25.1807C14.2638 24.8572 14.542 24.5947 14.8848 24.5947H17.0645ZM25.1152 24.5947C25.4578 24.5949 25.7353 24.8573 25.7354 25.1807V26.9668C25.7352 27.2901 25.4577 27.5525 25.1152 27.5527H18.9102C18.5675 27.5527 18.2892 27.2903 18.2891 26.9668V25.1807C18.2892 24.8572 18.5674 24.5947 18.9102 24.5947H25.1152ZM15.5049 26.3809H16.4434V25.7666H15.5049V26.3809ZM19.5303 26.3809H24.4941V25.7666H19.5303V26.3809ZM17.0645 21.1709C17.407 21.1711 17.6846 21.4334 17.6846 21.7568V23.542C17.6846 23.8654 17.407 24.1277 17.0645 24.1279H14.8848C14.542 24.1279 14.2637 23.8656 14.2637 23.542V21.7568C14.2637 21.4332 14.542 21.1709 14.8848 21.1709H17.0645ZM21.0898 21.1709C21.4324 21.1711 21.71 21.4334 21.71 21.7568V23.542C21.71 23.8654 21.4324 24.1277 21.0898 24.1279H18.9102C18.5674 24.1279 18.2891 23.8656 18.2891 23.542V21.7568C18.2891 21.4332 18.5674 21.1709 18.9102 21.1709H21.0898ZM25.1152 21.1709C25.4578 21.1711 25.7354 21.4334 25.7354 21.7568V23.542C25.7354 23.8654 25.4578 24.1277 25.1152 24.1279H22.9355C22.5927 24.1279 22.3145 23.8656 22.3145 23.542V21.7568C22.3145 21.4332 22.5927 21.1709 22.9355 21.1709H25.1152ZM15.5049 22.9561H16.4434V22.3428H15.5049V22.9561ZM19.5303 22.9561H20.4688V22.3428H19.5303V22.9561ZM23.5557 22.9561H24.4941V22.3428H23.5557V22.9561ZM17.0645 17.7461C17.4069 17.7463 17.6844 18.0087 17.6846 18.332V20.1182C17.6844 20.4415 17.4069 20.7039 17.0645 20.7041H14.8848C14.5421 20.7041 14.2638 20.4416 14.2637 20.1182V18.332C14.2638 18.0085 14.542 17.7461 14.8848 17.7461H17.0645ZM21.0898 17.7461C21.4323 17.7463 21.7098 18.0087 21.71 18.332V20.1182C21.7098 20.4415 21.4323 20.7039 21.0898 20.7041H18.9102C18.5675 20.7041 18.2892 20.4416 18.2891 20.1182V18.332C18.2892 18.0085 18.5674 17.7461 18.9102 17.7461H21.0898ZM25.1152 17.7461C25.4577 17.7463 25.7352 18.0087 25.7354 18.332V20.1182C25.7352 20.4415 25.4577 20.7039 25.1152 20.7041H22.9355C22.5928 20.7041 22.3146 20.4416 22.3145 20.1182V18.332C22.3146 18.0085 22.5928 17.7461 22.9355 17.7461H25.1152ZM15.5049 19.5322H16.4434V18.918H15.5049V19.5322ZM19.5303 19.5322H20.4688V18.918H19.5303V19.5322ZM23.5557 19.5322H24.4941V18.918H23.5557V19.5322ZM25.1416 12.3965C25.7575 12.3967 26.2588 12.8697 26.2588 13.4512V15.2383C26.2588 15.8197 25.7575 16.2928 25.1416 16.293H15.0244C14.4084 16.2929 13.9072 15.8198 13.9072 15.2383V13.4512C13.9072 12.8696 14.4084 12.3965 15.0244 12.3965H25.1416ZM15.1484 13.5684V15.1211H25.0166V13.5684H15.1484Z" fill="white"/>
</g>
<defs>
<clipPath id="clip0_313_5010">
<rect width="24" height="24" fill="white" transform="translate(8 8)"/>
</clipPath>
</defs>
</svg>
