<svg width="22" height="20" viewBox="0 0 22 20" fill="none" xmlns="http://www.w3.org/2000/svg">
<path d="M10.873 0.612305H5.88559C5.70619 0.612305 5.53388 0.698274 5.40558 0.851837L0.706287 6.47571C0.556129 6.65544 0.489027 6.89666 0.501455 7.13196L9.18515 10.2474L10.873 0.612305Z" fill="#FF5F66"/>
<path d="M21.2887 6.48629L16.7314 1.12968L16.4908 0.846751C16.3629 0.696305 16.1924 0.612305 16.0151 0.612305H10.9375L13.3308 9.17319L21.499 7.13196C21.5078 6.89932 21.4385 6.66237 21.2887 6.48629Z" fill="#FA184B"/>
<path d="M0.500977 7.13184C0.512789 7.355 0.596051 7.57288 0.749983 7.72763L10.4851 19.1974C10.5868 19.2997 10.7066 19.3601 10.8299 19.3803L8.00846 7.13184H0.500977Z" fill="#FA184B"/>
<path d="M13.8745 7.13184V7.1425L11.0117 19.3805C11.1352 19.3605 11.2553 19.3 11.3572 19.1976L21.2492 7.74363C21.407 7.5851 21.491 7.36054 21.4996 7.13184H13.8745Z" fill="#D3003C"/>
<path d="M14.8541 7.13206L10.9061 5.74609L7.11816 7.13206L10.8305 19.3805C10.8906 19.3904 10.9515 19.3904 11.0116 19.3807L14.8605 7.14272L14.8541 7.13206Z" fill="#FF5F66"/>
<path d="M10.9062 7.13184V19.3871C10.9415 19.3881 10.9767 19.3861 11.0117 19.3805L14.8606 7.1425L14.8542 7.13184H10.9062Z" fill="#FA184B"/>
<path d="M14.8541 7.13196L10.938 0.612305H10.8732L7.11816 7.13196H14.8541Z" fill="#FA184B"/>
<path d="M10.9062 7.13196H14.8542L10.9381 0.612305H10.9062V7.13196Z" fill="#D3003C"/>
</svg>
