<svg width="28" height="28" viewBox="0 0 28 28" fill="none" xmlns="http://www.w3.org/2000/svg">
<path d="M18.9956 7.59085H18.9952C17.2559 7.27931 15.7828 7.7167 14.5754 8.90267C13.9831 9.74196 13.9887 10.6024 14.4693 11.4798C15.7329 11.7951 17.0352 11.7832 18.3735 11.4668L18.9756 9.74807C19.222 9.04414 19.225 8.28587 18.9956 7.59085Z" fill="#00C8FB"/>
<path d="M11.5126 15.6306C11.2495 13.3696 10.066 11.8013 8.09555 10.8254C5.97435 10.2945 4.46556 10.6787 3.67578 12.1372C3.86229 12.8446 4.27818 13.4792 4.8691 13.9346L11.1462 18.7741C11.3825 18.9564 11.6331 19.1013 11.892 19.211L12.3556 18.0507L11.5126 15.6306Z" fill="#00C8FB"/>
<path d="M8.0957 10.8257L11.5127 15.6309L14.4685 11.4801L14.5746 8.90299C12.0798 8.64954 9.92018 9.29045 8.0957 10.8257Z" fill="#60DAFD"/>
<path d="M16.0553 3.77537V3.77578C16.7638 5.70206 16.2699 7.41106 14.574 8.90283C12.2434 8.55101 10.7494 7.06765 9.83398 4.80764L13.772 3.63898C14.5468 3.40874 15.3518 3.47162 16.0553 3.77537Z" fill="#60DAFD"/>
<path d="M6.87211 5.68694L5.44814 6.14491C4.87466 6.40915 4.39716 6.8259 4.05859 7.3365C4.46205 9.31931 5.74602 10.5484 8.09644 10.8255C9.48837 9.01848 10.0235 7.00163 9.83518 4.80762L6.87211 5.68694Z" fill="#60DAFD"/>
<path d="M8.50593 20.3083C9.0361 20.5981 9.0361 21.3598 8.50593 21.6499L8.12192 21.8598C7.99361 21.9299 7.88827 22.0356 7.81776 22.1639L7.60791 22.5479C7.31774 23.0781 6.55652 23.0781 6.26635 22.5479L6.0565 22.1639C5.9864 22.0356 5.88061 21.9299 5.75235 21.8598L5.36833 21.6499C4.83816 21.3598 4.83816 20.5981 5.36833 20.3083L5.75235 20.0981C5.88065 20.028 5.9864 19.9226 6.0565 19.7943L6.26635 19.4103C6.55652 18.8802 7.31774 18.8802 7.60791 19.4103L7.81776 19.7943C7.88827 19.9226 7.99365 20.028 8.12192 20.0981L8.50593 20.3083Z" fill="#FBD354"/>
<path d="M23.5888 10.2993C23.9473 10.4951 23.9473 11.0101 23.5888 11.2059L23.3292 11.3482C23.2426 11.3953 23.1712 11.4667 23.1241 11.5534L22.9818 11.8129C22.7859 12.1715 22.271 12.1715 22.0752 11.8129L21.9333 11.5534C21.8857 11.4667 21.8144 11.3953 21.7277 11.3482L21.4681 11.2059C21.1096 11.0101 21.1096 10.4951 21.4681 10.2993L21.7277 10.1574C21.8144 10.1099 21.8857 10.0385 21.9333 9.95182L22.0752 9.69225C22.271 9.3337 22.7859 9.3337 22.9818 9.69225L23.1241 9.95182C23.1712 10.0385 23.2426 10.1099 23.3292 10.1574L23.5888 10.2993Z" fill="#FBE582"/>
<path d="M14.5745 8.9028L8.0957 10.8255L9.83449 4.80762L14.5745 8.9028Z" fill="#00C8FB"/>
<path d="M8.09639 10.8259L3.67666 12.1377C3.6121 11.8943 3.57469 11.6424 3.56665 11.3858L3.50168 9.29318C3.47916 8.57949 3.68433 7.90063 4.05859 7.33691L8.09639 10.8259Z" fill="#10ACFB"/>
<path d="M18.9954 7.59111H18.995L14.5752 8.90293L16.0565 3.77588C16.6781 4.04435 17.2197 4.50146 17.5906 5.1119L18.6772 6.90122C18.8102 7.12042 18.9168 7.35197 18.9954 7.59111Z" fill="#10ACFB"/>
<path d="M12.4457 16.3214L11.5131 15.6313C11.4922 15.8947 11.4981 16.1621 11.5327 16.4297L11.8925 19.2117C12.3189 19.3923 12.7676 19.4769 13.2112 19.4732L13.3648 18.7865C13.5731 17.8553 13.2127 16.8889 12.4457 16.3214Z" fill="#10ACFB"/>
<path d="M18.2551 11.403C17.0685 10.7599 15.6349 10.7877 14.4688 11.4799C14.0895 12.1252 14.0428 12.7023 14.3981 13.1968L17.9462 12.6853L18.373 11.4669L18.2551 11.403Z" fill="#10ACFB"/>
<path d="M13.6346 12.148C12.7738 13.0643 12.5405 13.3126 12.5402 13.313C12.5442 13.3087 12.543 13.31 12.539 13.3142C11.9367 13.9567 11.5807 14.7724 11.5127 15.6308L12.981 17.6957L14.3978 13.1969L14.4685 11.48C14.1629 11.6614 13.8814 11.8855 13.6346 12.148Z" fill="#00C8FB"/>
<path d="M7.17424 4.50612C7.57569 4.72573 7.57569 5.3018 7.17424 5.52141C6.94347 5.64763 6.87981 5.68204 6.87222 5.68709C6.78005 5.73976 6.70441 5.81708 6.65343 5.91056L6.49456 6.20114C6.27495 6.60259 5.69847 6.60259 5.47882 6.20114C5.47644 6.19679 5.30941 5.89132 5.31995 5.91056C5.26683 5.81326 5.18697 5.7334 5.09012 5.68032L4.79913 5.52145C4.39768 5.30184 4.39768 4.72577 4.79913 4.50616L5.09012 4.34729C5.18697 4.29417 5.26683 4.21431 5.31995 4.11706L5.47882 3.82648C5.69843 3.42503 6.27491 3.42503 6.49456 3.82648L6.65343 4.11706C6.70655 4.21435 6.78641 4.29421 6.88367 4.34729L7.17424 4.50612Z" fill="#FBD354"/>
<path d="M23.8482 20.4671C23.1781 19.2775 22.1167 18.7702 20.7534 18.7891C19.2763 19.0742 18.1879 19.9798 17.6617 21.4776C17.2758 22.3369 17.4895 23.1141 18.4645 23.6458L22.6728 21.6213C23.1859 21.3745 23.5967 20.9662 23.8482 20.4671Z" fill="#AC77F2"/>
<path d="M14.8896 24.1881C15.5766 24.5607 16.4326 24.6227 17.2185 24.2447L18.464 23.6455C18.1659 23.0255 17.9379 22.3068 17.7902 21.5171C16.2829 21.755 15.4114 22.7605 14.8896 24.1881Z" fill="#9D5CF2"/>
<path d="M17.7608 17.166C16.931 18.7246 16.9374 20.2169 17.7909 21.5174L20.7536 18.7891C19.9541 17.8198 18.9431 17.3077 17.7608 17.166Z" fill="#BE96F2"/>
<path d="M17.7603 17.1661C17.3868 16.5952 16.853 16.3563 16.2169 16.3291C15.2036 16.5127 14.2336 23.4596 14.8898 24.1886L17.7903 21.5175C17.5472 20.2171 17.5221 18.7248 17.7603 17.1661Z" fill="#AC77F2"/>
<path d="M16.2171 16.329L14.89 24.1881C14.2027 23.8159 13.6844 23.1324 13.5726 22.2679C12.953 17.4757 13.819 24.1745 12.7965 16.2657C12.7235 15.7007 12.8416 15.134 13.1223 14.651C14.4253 14.63 15.4792 15.1417 16.2171 16.329Z" fill="#8E41F2"/>
<path d="M24.3206 16.8202C23.5012 18.2808 22.2879 18.8845 20.7531 18.7888C19.7598 17.2797 19.73 15.6817 20.4047 14.0186L23.1622 15.5135C23.7047 15.8079 24.1057 16.2765 24.3206 16.8202Z" fill="#BE96F2"/>
<path d="M20.4053 14.0189C19.5269 13.9834 18.8097 14.4618 18.1873 15.2425C17.5407 15.8806 17.3979 16.519 17.7609 17.1661L20.7536 18.7892L20.4053 14.0189Z" fill="#AC77F2"/>
<path d="M18.9588 13.2344C18.2861 13.7397 18.0742 14.4276 18.1868 15.2421L20.4048 14.0186L18.9588 13.2344Z" fill="#BE96F2"/>
<path d="M17.6472 12.5231C17.1047 12.2291 16.4934 12.1489 15.9199 12.2648C15.6046 13.6612 15.6625 15.0199 16.2164 16.3286C16.9193 16.4184 17.5729 16.0264 18.1863 15.242C18.3978 14.5238 18.6586 13.8505 18.9582 13.2343C18.8241 13.1615 19.4439 13.4977 17.6472 12.5231Z" fill="#AC77F2"/>
<path d="M15.9213 12.2651L16.2178 16.3289L13.123 14.6509C13.2199 14.4848 13.3359 14.3285 13.4697 14.1858C13.5816 14.0666 13.0642 14.6174 14.5644 13.0205C14.9378 12.6232 15.4149 12.3675 15.9213 12.2651Z" fill="#9D5CF2"/>
<path d="M18.1866 15.2422L16.2168 16.3288L17.7602 17.1658C17.8591 16.5189 17.9987 15.8804 18.1866 15.2422Z" fill="#9D5CF2"/>
<path d="M24.3205 16.8203L20.7529 18.7889L23.8477 20.4669C23.9344 20.2953 24.0019 20.113 24.0482 19.9227L24.4276 18.3695C24.5567 17.8399 24.5112 17.3008 24.3205 16.8203Z" fill="#9D5CF2"/>
</svg>
