<svg width="28" height="28" viewBox="0 0 28 28" fill="none" xmlns="http://www.w3.org/2000/svg">
<path d="M26.1335 13.6112C26.5224 13.8445 26.5224 14.1556 26.1335 14.389L11.1224 23.1779C10.7335 23.4112 10.1891 23.4112 9.8002 23.1779L1.86686 18.5112C1.47797 18.2779 1.47797 17.9668 1.86686 17.7334L16.9558 8.94453C17.3446 8.7112 17.8891 8.7112 18.278 8.94453L26.1335 13.6112Z" fill="#F9A83D"/>
<path d="M10.889 17.6562L10.5779 23.334C10.2668 23.334 10.0334 23.334 9.80011 23.1784L1.86678 18.5118C1.63344 18.434 1.55566 18.2784 1.55566 18.1229C1.55566 18.0451 1.63344 17.9673 1.789 17.8896L6.30011 15.2451L10.889 17.6562Z" fill="#FFB961"/>
<path d="M26.4448 13.9224L25.2781 9.3335L10.8892 17.6557L10.5781 23.2557L26.4448 13.9224Z" fill="#F9A83D"/>
<path d="M10.889 17.6556L10.5779 23.2556L1.55566 18.1223V18.0445L2.72233 13.1445L6.37789 15.1668L10.889 17.6556Z" fill="#FFB961"/>
<path d="M25.0449 9.02223C25.356 9.17779 25.356 9.4889 25.0449 9.72223L11.356 17.6556C11.0449 17.8111 10.5004 17.8111 10.1893 17.6556L2.95599 13.4556C2.64488 13.3 2.64488 12.9889 2.95599 12.7556L16.6449 4.82223C16.956 4.66668 17.5004 4.66668 17.8115 4.82223L25.0449 9.02223Z" fill="#FFD475"/>
<g opacity="0.5">
<path d="M5.91194 14.1551L10.4231 16.3329C10.6564 16.4107 10.8897 16.4107 11.1231 16.3329L20.4564 11.5107C20.6119 11.4329 20.5342 11.2773 20.3786 11.2773C15.0119 12.5996 10.0342 13.6107 5.98972 13.844C5.83416 13.844 5.75638 14.0773 5.91194 14.1551Z" fill="#FFB961"/>
</g>
<g opacity="0.4">
<path d="M21.5444 7.46602C21.6222 7.54379 19.0555 7.31046 18.9 7.31046C15.4778 7.07713 11.7444 9.2549 8.08887 10.1882L17.0333 5.59935C17.1889 5.52157 17.3444 5.52157 17.5 5.59935C18.0444 5.83268 20.8444 7.1549 21.5444 7.46602Z" fill="white"/>
</g>
<g opacity="0.5">
<path d="M23.3331 10.7334C19.5998 13.2223 15.4776 15.6334 11.8998 17.5778C11.5109 17.8112 11.1998 18.2001 11.122 18.6667L10.6553 21.7778L10.5776 18.7445C10.5776 18.2001 10.2664 17.7334 9.79978 17.5001C8.94423 17.0334 8.16645 16.5667 7.31089 16.1001C6.14423 15.4778 5.05534 14.7778 3.88867 14.0778C5.13312 14.6223 6.29978 15.089 7.46645 15.7112C8.32201 16.1001 9.25534 16.5667 10.1109 16.9556C10.5776 17.189 11.122 17.189 11.5887 16.8778C16.3331 14.1556 20.7665 11.9001 23.3331 10.7334Z" fill="white"/>
</g>
<g opacity="0.4">
<path d="M25.6666 12.5222L25.1222 10.5C25.1222 10.3444 24.9666 10.3444 24.8888 10.4222L23.1777 11.5888C23.0999 11.6666 23.1777 11.7444 23.2555 11.7444C24.2666 11.5888 25.0444 11.9 25.5888 12.6777C25.6666 12.6 25.7444 12.6 25.6666 12.5222Z" fill="white"/>
</g>
<g opacity="0.4">
<path d="M5.05592 15.2442L3.26704 14.1553C3.18926 14.0775 3.0337 14.1553 3.0337 14.233L2.48926 16.333C2.48926 16.4108 2.56704 16.4886 2.64481 16.4108C3.26704 15.633 4.04481 15.2442 4.97815 15.3997C5.05592 15.3997 5.05592 15.3219 5.05592 15.2442Z" fill="white"/>
</g>
<path d="M11.667 18.0446C11.5115 18.0446 11.4337 18.2001 11.5115 18.3557C12.6781 19.7557 12.6781 19.9113 11.3559 18.5113C11.2781 18.4335 11.0448 18.4335 11.0448 18.589C10.8892 20.1446 10.7337 21.5446 10.6559 21.5446C10.5781 21.5446 10.5781 20.1446 10.5781 18.589C10.5781 18.4335 10.4226 18.3557 10.267 18.4335C8.78924 19.6001 8.78924 19.6001 10.1115 18.2779C10.1892 18.2001 10.1892 17.9668 10.0337 17.9668C8.47812 17.8113 7.07812 17.6557 7.07812 17.5779C7.07812 17.5001 8.47812 17.5001 10.0337 17.5001C10.1892 17.5001 10.267 17.3446 10.1892 17.189C9.72257 16.5668 9.2559 16.1001 9.33368 16.0224C9.41146 16.0224 9.80035 16.4113 10.3448 16.9557C10.4226 17.0335 10.6559 17.0335 10.6559 16.8779C10.8115 15.3224 10.967 13.9224 11.0448 13.9224C11.1226 13.9224 11.1226 15.3224 11.1226 16.8779C11.1226 17.0335 11.2781 17.1113 11.4337 17.0335C12.9115 15.789 12.9115 15.9446 11.5892 17.189C11.5115 17.2668 11.5115 17.5001 11.667 17.5001C15.6337 17.889 15.6337 18.0446 11.667 18.0446Z" fill="white"/>
<g opacity="0.4">
<path d="M16.6446 19.3671L11.6669 22.2449C11.4335 22.4005 11.2002 22.1671 11.2002 21.9338L11.4335 19.6782C11.4335 19.6005 11.5891 19.5227 11.5891 19.6005C12.2113 20.3782 14.7002 19.8338 16.5669 19.1338C16.6446 19.2116 16.7224 19.2893 16.6446 19.3671Z" fill="white"/>
</g>
<g opacity="0.4">
<path d="M7.15526 20.9999L9.79971 22.4777C9.95526 22.5555 10.033 22.4777 10.033 22.2444V19.7555C10.033 19.6777 9.87749 19.5999 9.87749 19.6777C9.41082 20.5333 8.63304 20.9999 7.23304 20.7666C7.15526 20.8444 7.07749 20.9222 7.15526 20.9999Z" fill="white"/>
</g>
</svg>
