<svg width="40" height="40" viewBox="0 0 40 40" fill="none" xmlns="http://www.w3.org/2000/svg">
<circle opacity="0.24" cx="20" cy="20" r="19.5" fill="#404040" stroke="white"/>
<path d="M19.693 23.4082C19.1212 23.4082 18.6582 23.8848 18.6582 24.4566C18.6582 25.0149 19.1075 25.5051 19.693 25.5051C20.2785 25.5051 20.7414 25.0149 20.7414 24.4566C20.7414 23.8848 20.2649 23.4082 19.693 23.4082Z" fill="white"/>
<path d="M19.8698 15.4688C18.0317 15.4688 17.1875 16.558 17.1875 17.2933C17.1875 17.8243 17.6368 18.0694 18.0045 18.0694C18.7397 18.0694 18.4402 17.021 19.829 17.021C20.5098 17.021 21.0545 17.3205 21.0545 17.9469C21.0545 18.6822 20.292 19.1043 19.8426 19.4855C19.4478 19.8259 18.9304 20.3842 18.9304 21.5552C18.9304 22.2632 19.1209 22.4674 19.6792 22.4674C20.3464 22.4674 20.4825 22.1679 20.4825 21.9092C20.4825 21.2011 20.4962 20.7927 21.2451 20.2072C21.6127 19.9212 22.7701 18.9954 22.7701 17.7154C22.7701 16.4355 21.6127 15.4688 19.8698 15.4688Z" fill="white"/>
<path d="M20 10C14.4733 10 10 14.4725 10 20V29.2188C10 29.6502 10.3498 30 10.7812 30H20C25.5267 30 30 25.5275 30 20C30 14.4733 25.5275 10 20 10ZM20 28.4375H11.5625V20C11.5625 15.3368 15.3362 11.5625 20 11.5625C24.6632 11.5625 28.4375 15.3362 28.4375 20C28.4375 24.6632 24.6638 28.4375 20 28.4375Z" fill="white"/>
</svg>
