<svg width="24" height="24" viewBox="0 0 24 24" fill="none" xmlns="http://www.w3.org/2000/svg">
<g clip-path="url(#clip0_957_15059)">
<path d="M24 12C24 11.3807 23.8021 10.7931 23.4285 10.3014C23.1879 9.98405 23.1078 9.58111 23.2083 9.19683C23.3656 8.59856 23.3236 7.97995 23.0866 7.40784C22.8495 6.83569 22.4419 6.36848 21.9085 6.05723C21.5648 5.85609 21.3366 5.51447 21.2824 5.12095C21.1988 4.50806 20.9232 3.95264 20.4853 3.51469C20.0475 3.07678 19.492 2.80116 18.88 2.71777C18.4856 2.66344 18.144 2.4352 17.9433 2.09245C17.6317 1.55813 17.1645 1.15041 16.5922 0.913406C16.249 0.771234 15.8876 0.699141 15.5182 0.699141C15.2774 0.699141 15.0368 0.730312 14.8043 0.791531C14.6978 0.819375 14.588 0.833531 14.478 0.833531C14.1983 0.833531 13.9216 0.740531 13.6995 0.57225C13.207 0.197859 12.6194 0 12 0L9.1875 12L12 24C12.6194 24 13.207 23.8021 13.6986 23.4285C13.9215 23.2595 14.1982 23.1666 14.4778 23.1666C14.5878 23.1666 14.6976 23.1807 14.8032 23.2083C15.0367 23.2698 15.2773 23.3009 15.5181 23.3009C15.8875 23.3009 16.2489 23.2288 16.5922 23.0866C17.1643 22.8496 17.6315 22.4419 17.9428 21.9085C18.1439 21.5648 18.4855 21.3366 18.879 21.2824C19.492 21.1989 20.0475 20.9233 20.4854 20.4853C20.9232 20.0474 21.1988 19.492 21.2822 18.8801C21.3366 18.4856 21.5648 18.144 21.9076 17.9434C22.4419 17.6317 22.8496 17.1645 23.0866 16.5923C23.3235 16.0202 23.3656 15.4016 23.2086 14.8042C23.1078 14.419 23.188 14.016 23.4278 13.6995C23.8021 13.2069 24 12.6193 24 12Z" fill="#0F9AF0"/>
<path d="M10.3014 0.571547C10.0785 0.740484 9.8018 0.833484 9.52209 0.833484C9.41217 0.833484 9.30239 0.819328 9.19687 0.791766C8.96325 0.730266 8.72269 0.699094 8.48184 0.699094C8.11247 0.699094 7.75111 0.771188 7.4078 0.913359C6.83564 1.15041 6.36844 1.55808 6.05719 2.09152C5.85605 2.43516 5.51442 2.66339 5.12095 2.71758C4.50802 2.8012 3.95259 3.07683 3.51469 3.51469C3.07678 3.95264 2.80116 4.50806 2.71781 5.11997C2.66344 5.51442 2.4352 5.85605 2.09245 6.05667C1.55813 6.36839 1.15041 6.83559 0.913453 7.40775C0.676453 7.97986 0.634359 8.59847 0.791484 9.1958C0.892219 9.58106 0.812063 9.98395 0.572156 10.3005C0.197859 10.7931 0 11.3807 0 12C0 12.6193 0.197859 13.2069 0.571547 13.6986C0.812063 14.016 0.892219 14.4189 0.791719 14.8032C0.634359 15.4014 0.676453 16.02 0.913406 16.5921C1.15041 17.1644 1.55813 17.6316 2.09152 17.9427C2.43516 18.1439 2.66344 18.4855 2.71763 18.879C2.80116 19.4919 3.07678 20.0474 3.51469 20.4853C3.95264 20.9232 4.50806 21.1988 5.11997 21.2822C5.51442 21.3365 5.85605 21.5647 6.05667 21.9075C6.36839 22.4418 6.83559 22.8495 7.40775 23.0865C7.75106 23.2287 8.11247 23.3009 8.48189 23.3009C8.72269 23.3009 8.9632 23.2697 9.1958 23.2085C9.30234 23.1806 9.41212 23.1665 9.52209 23.1665C9.8017 23.1665 10.0785 23.2594 10.3005 23.4277C10.793 23.8021 11.3807 24 12 24V0C11.3807 0 10.7931 0.197859 10.3014 0.571547Z" fill="#13BDF7"/>
<path d="M12 2.85938L9.98364 12L12 21.1406C17.0482 21.1406 21.1406 17.0483 21.1406 12C21.1406 6.95175 17.0482 2.85938 12 2.85938Z" fill="#085AAE"/>
<path d="M2.85938 12C2.85938 17.0483 6.95175 21.1406 12 21.1406V2.85938C6.95175 2.85938 2.85938 6.95175 2.85938 12Z" fill="#0A77E8"/>
<path d="M12 7.69141L10.5938 12.6133L18.3957 11.207L16.583 7.69141H12Z" fill="#B2F5FF"/>
<path d="M12 7.69141H7.41701L5.60431 11.207L12 12.6133V7.69141Z" fill="white"/>
<path d="M12 18.5586L18.3957 11.207H12L10.5938 14.8828L12 18.5586Z" fill="#18E0FF"/>
<path d="M5.60431 11.207L12 18.5586V11.207H5.60431Z" fill="#B2F5FF"/>
</g>
<defs>
<clipPath id="clip0_957_15059">
<rect width="24" height="24" fill="white"/>
</clipPath>
</defs>
</svg>
