<svg width="24" height="24" viewBox="0 0 24 24" fill="none" xmlns="http://www.w3.org/2000/svg">
<g clip-path="url(#clip0_957_14981)">
<path d="M12 24C11.4698 24 10.9439 23.8857 10.4638 23.6678C9.94373 23.7541 9.40622 23.7283 8.89406 23.5911C8.38191 23.4538 7.90355 23.2073 7.49625 22.8727C6.97158 22.8214 6.45905 22.6574 6 22.3923C5.54081 22.1271 5.14252 21.7653 4.83577 21.3367C4.34208 21.1512 3.88941 20.8601 3.51469 20.4852C3.1402 20.1109 2.84906 19.6582 2.66339 19.1643C2.23467 18.8575 1.87275 18.4591 1.60767 18C1.3425 17.5409 1.17853 17.0284 1.12734 16.5037C0.792516 16.0965 0.546047 15.618 0.408797 15.1058C0.271641 14.5937 0.245859 14.0562 0.332016 13.5361C0.114188 13.056 0 12.5302 0 12C0 11.4698 0.114188 10.944 0.332016 10.4639C0.245859 9.94373 0.271641 9.40627 0.408797 8.8942C0.546 8.38191 0.792516 7.9035 1.12734 7.4963C1.17853 6.97167 1.3425 6.45914 1.60767 5.99995C1.8728 5.54086 2.23467 5.14252 2.66339 4.83567C2.84906 4.3418 3.14025 3.88912 3.51492 3.51459C3.88945 3.13987 4.34208 2.84878 4.83581 2.66334C5.14256 2.23467 5.54086 1.87289 5.99991 1.60767C6.45905 1.34259 6.97158 1.17858 7.4963 1.12725C7.90355 0.792563 8.38195 0.546141 8.89397 0.408891C9.40631 0.271594 9.94383 0.245813 10.4639 0.332109C10.9439 0.114281 11.4698 0 12 0C12.5302 0 13.056 0.114281 13.5361 0.332156C14.0562 0.245859 14.5937 0.271687 15.1059 0.408891C15.618 0.546187 16.0964 0.792609 16.5037 1.1273C17.0283 1.17862 17.5409 1.34264 18 1.60767C18.4591 1.87284 18.8574 2.23477 19.1642 2.66334C19.6579 2.84878 20.1105 3.13992 20.4853 3.51478C20.8597 3.88913 21.1509 4.3418 21.3366 4.83567C21.7653 5.14252 22.1273 5.54086 22.3923 5.99995C22.6575 6.45909 22.8214 6.97163 22.8726 7.4963C23.2075 7.90355 23.454 8.38195 23.5912 8.8942C23.7283 9.40627 23.7541 9.94378 23.6679 10.4639C23.8858 10.944 24 11.4699 24 12C24 12.5301 23.8858 13.056 23.668 13.5361C23.7541 14.0563 23.7284 14.5937 23.5912 15.1058C23.454 15.6181 23.2075 16.0965 22.8727 16.5037C22.8215 17.0284 22.6575 17.5409 22.3923 18.0001C22.1273 18.4591 21.7654 18.8575 21.3367 19.1643C21.1509 19.6582 20.8598 20.1109 20.4851 20.4854C20.1106 20.8601 19.658 21.1512 19.1642 21.3367C18.8575 21.7653 18.4592 22.1271 18.0001 22.3923C17.541 22.6574 17.0284 22.8214 16.5037 22.8727C16.0965 23.2075 15.6181 23.4539 15.1061 23.5911C14.5937 23.7284 14.0563 23.7541 13.5362 23.6679C13.056 23.8857 12.5302 24 12 24Z" fill="#FFC800"/>
<path d="M12 0C12.5302 0 13.056 0.114281 13.5361 0.332156C14.0562 0.245859 14.5937 0.271687 15.1059 0.408891C15.618 0.546187 16.0964 0.792609 16.5037 1.1273C17.0283 1.17862 17.5409 1.34264 18 1.60767C18.4591 1.87284 18.8574 2.23477 19.1642 2.66334C19.6579 2.84878 20.1105 3.13992 20.4853 3.51478C20.8597 3.88913 21.1509 4.3418 21.3366 4.83567C21.7653 5.14252 22.1272 5.54086 22.3923 5.99995C22.6575 6.45909 22.8214 6.97163 22.8726 7.4963C23.2075 7.90355 23.454 8.38195 23.5912 8.8942C23.7283 9.40627 23.7541 9.94378 23.6679 10.4639C23.8858 10.944 24 11.4699 24 12C24 12.5301 23.8858 13.056 23.668 13.5361C23.7541 14.0563 23.7284 14.5937 23.5912 15.1058C23.454 15.6181 23.2075 16.0965 22.8727 16.5037C22.8215 17.0284 22.6575 17.5409 22.3923 18.0001C22.1273 18.4591 21.7654 18.8575 21.3367 19.1643C21.1509 19.6582 20.8598 20.1109 20.4851 20.4854C20.1106 20.8601 19.658 21.1512 19.1642 21.3367C18.8575 21.7653 18.4592 22.1271 18.0001 22.3923C17.541 22.6574 17.0284 22.8214 16.5037 22.8727C16.0965 23.2075 15.6181 23.4539 15.1061 23.5911C14.5937 23.7284 14.0563 23.7541 13.5362 23.6679C13.056 23.8857 12.5302 24 12 24V0Z" fill="#FFA400"/>
<path d="M12 20.9877C16.9636 20.9877 20.9875 16.9638 20.9875 12.0002C20.9875 7.03653 16.9636 3.0127 12 3.0127C7.03635 3.0127 3.01251 7.03653 3.01251 12.0002C3.01251 16.9638 7.03635 20.9877 12 20.9877Z" fill="#194E57"/>
<path d="M12 3.0127C16.9557 3.0127 20.9875 7.04451 20.9875 12.0002C20.9875 16.9559 16.9557 20.9877 12 20.9877V3.0127Z" fill="#003540"/>
<path d="M15.7656 16.4689H8.23439C7.91175 16.4689 7.6305 16.2493 7.55227 15.9363L6.04603 9.91135C5.97947 9.64496 6.07402 9.36418 6.28823 9.19238C6.50241 9.02049 6.79701 8.98918 7.04264 9.11194L9.47273 10.327L11.3971 7.11966C11.5242 6.90788 11.7531 6.77832 12 6.77832C12.247 6.77832 12.4759 6.90793 12.603 7.11966L14.5274 10.327L16.9575 9.11194C17.2029 8.98913 17.4976 9.02049 17.7119 9.19238C17.9261 9.36418 18.0207 9.64496 17.9541 9.91135L16.4478 15.9363C16.3695 16.2493 16.0882 16.4689 15.7656 16.4689Z" fill="#FFE66F"/>
<path d="M15.7656 16.4689C16.0883 16.4689 16.3695 16.2493 16.4477 15.9363L17.954 9.91135C18.0206 9.64496 17.926 9.36418 17.7119 9.19238C17.4976 9.02049 17.2029 8.98913 16.9575 9.11194L14.5273 10.327L12.6029 7.11966C12.4758 6.90788 12.2469 6.77832 12 6.77832V16.4689H15.7656Z" fill="#FFC800"/>
</g>
<defs>
<clipPath id="clip0_957_14981">
<rect width="24" height="24" fill="white"/>
</clipPath>
</defs>
</svg>
