<svg width="24" height="24" viewBox="0 0 24 24" fill="none" xmlns="http://www.w3.org/2000/svg">
<g clip-path="url(#clip0_957_15150)">
<path d="M12 23.294C18.2376 23.294 23.2941 18.2375 23.2941 11.9999C23.2941 5.76236 18.2376 0.705811 12 0.705811C5.76242 0.705811 0.705872 5.76236 0.705872 11.9999C0.705872 18.2375 5.76242 23.294 12 23.294Z" fill="#8C4CD1"/>
<path d="M21.7482 6.29285C19.5847 9.33523 16.0235 11.3188 12 11.3188C7.97647 11.3188 4.4153 9.33523 2.25177 6.29285C4.21412 2.95051 7.84588 0.705811 12 0.705811C16.1541 0.705811 19.7859 2.95051 21.7482 6.29285Z" fill="#9C68E1"/>
<path d="M12 3.83838V11.5587L14.5085 8.92114L12 3.83838Z" fill="#FF9F00"/>
<path d="M11.9999 3.83838V11.5587L9.49146 8.92114L11.9999 3.83838Z" fill="#FED110"/>
<path d="M20.1176 9.7362L14.5085 8.92114L12 11.5587L20.1176 9.7362Z" fill="#FED110"/>
<path d="M20.1176 9.73608L16.0588 13.6925L12 11.5586L20.1176 9.73608Z" fill="#FF9F00"/>
<path d="M3.88232 9.7362L9.49148 8.92114L12 11.5587L3.88232 9.7362Z" fill="#FF9F00"/>
<path d="M3.88232 9.73608L7.94115 13.6925L12 11.5586L3.88232 9.73608Z" fill="#FED110"/>
<path d="M12 11.5588L16.0588 13.6927L17.017 19.2792L12 11.5588Z" fill="#FED110"/>
<path d="M17.017 19.2792L12 16.6416V11.5588L17.017 19.2792Z" fill="#FF9F00"/>
<path d="M12 11.5588L7.94113 13.6927L6.98297 19.2792L12 11.5588Z" fill="#FF9F00"/>
<path d="M6.98297 19.2792L12 16.6416V11.5588L6.98297 19.2792Z" fill="#FED110"/>
<g opacity="0.3">
<path d="M12 20.6912C15.6792 20.6912 18.6617 20.5082 18.6617 20.2825C18.6617 20.0568 15.6792 19.8738 12 19.8738C8.32077 19.8738 5.3382 20.0568 5.3382 20.2825C5.3382 20.5082 8.32077 20.6912 12 20.6912Z" fill="#20273A"/>
</g>
</g>
<defs>
<clipPath id="clip0_957_15150">
<rect width="24" height="24" fill="white"/>
</clipPath>
</defs>
</svg>
