<svg width="28" height="28" viewBox="0 0 28 28" fill="none" xmlns="http://www.w3.org/2000/svg">
<path d="M10.4818 13.929C10.793 13.929 11.0747 13.8033 11.2796 13.6002C11.4872 13.3945 11.616 13.1093 11.616 12.7938C11.616 12.167 11.1081 11.6587 10.4818 11.6587C9.85547 11.6587 9.34766 12.167 9.34766 12.7938C9.34766 12.9413 9.37665 13.0818 9.42783 13.2112C9.59412 13.6314 10.0028 13.929 10.4818 13.929Z" fill="#FAFAFA"/>
<path d="M18.5534 13.2112C18.6046 13.0819 18.6335 12.9413 18.6335 12.7938C18.6335 12.167 18.1257 11.6587 17.4994 11.6587C16.8731 11.6587 16.3652 12.167 16.3652 12.7938C16.3652 13.1093 16.494 13.3945 16.7016 13.6003C16.9065 13.8033 17.1882 13.929 17.4994 13.929C17.9784 13.929 18.3871 13.6314 18.5534 13.2112Z" fill="#FAFAFA"/>
<path d="M16.3063 18.1152H11.6279V19.2504H16.3063V18.1152Z" fill="#FAFAFA"/>
<path d="M24.5 8.90182C24.5 8.22591 24.0784 7.38079 23.211 6.31822C22.6145 5.58747 22.0257 5.02699 22.001 5.00351L21.6109 4.63338L21.2208 5.00344C21.2028 5.02046 20.8878 5.32064 20.4888 5.76257C18.7006 4.34654 16.4427 3.5 13.9908 3.5C8.20617 3.5 3.5 8.21023 3.5 14C3.5 19.7897 8.20617 24.5 13.9908 24.5C19.7754 24.5 24.4816 19.7897 24.4816 14C24.4816 12.8213 24.2864 11.6872 23.9269 10.6286C24.2867 10.1464 24.5 9.54858 24.5 8.90182ZM23.3474 14C23.3474 19.1638 19.1501 23.3648 13.9908 23.3648C11.4208 23.3648 9.08961 22.3222 7.39695 20.6376C6.721 19.9649 6.14719 19.1896 5.7004 18.3375C5.01991 17.04 4.63415 15.5644 4.63415 14C4.63415 8.8362 8.83152 4.63515 13.9908 4.63515C16.1665 4.63515 18.1712 5.38229 19.7621 6.63365C19.73 6.67594 19.6983 6.71787 19.6677 6.7593C19.0326 7.6179 18.7216 8.32226 18.7216 8.90175C18.7216 10.4963 20.0178 11.7935 21.6109 11.7935C21.9899 11.7935 22.3517 11.7193 22.6837 11.586C22.7897 11.5433 22.8929 11.4953 22.9923 11.4408C23.2236 12.2546 23.3474 13.1131 23.3474 14ZM21.6109 10.6584C20.6432 10.6584 19.8558 9.87039 19.8558 8.90175C19.8558 8.28643 20.7844 7.08026 21.6111 6.21663C22.4375 7.07941 23.3658 8.28494 23.3658 8.90175C23.3658 9.87039 22.5785 10.6584 21.6109 10.6584Z" fill="#FAFAFA"/>
</svg>
