<svg width="24" height="24" viewBox="0 0 24 24" fill="none" xmlns="http://www.w3.org/2000/svg">
<g clip-path="url(#clip0_957_14990)">
<path d="M23.7723 12.9604C24.0759 12.359 24.0759 11.641 23.7723 11.0396L23.4578 10.4168C23.3893 10.281 23.3654 10.1298 23.3886 9.97949L23.4951 9.29005C23.5981 8.62427 23.3762 7.94134 22.9015 7.46322L22.4101 6.96809C22.3029 6.86013 22.2334 6.72371 22.2091 6.57356L22.0974 5.88491C21.9907 5.22729 21.5768 4.6519 20.9883 4.34133L20.3836 3.98472C20.3719 3.97783 20.36 3.97127 20.3479 3.96508C20.2127 3.89556 20.1045 3.78731 20.0349 3.65202L19.7159 3.03163C19.4151 2.44658 18.8017 2.01393 18.115 1.90255L17.4264 1.79088C17.2763 1.76651 17.1398 1.69703 17.0319 1.58991L16.5367 1.09839C16.0586 0.623788 15.3758 0.402051 14.71 0.504809L14.0205 0.611365C13.8701 0.634616 13.719 0.610661 13.5832 0.542125L12.9604 0.227708C12.359 -0.0758793 11.641 -0.0759262 11.0396 0.227708L10.4168 0.542125C10.2811 0.610615 10.13 0.634523 9.97952 0.611411L9.29007 0.504856C8.62416 0.401863 7.94137 0.623834 7.46325 1.09844L6.96807 1.58987C6.86016 1.69703 6.72374 1.76651 6.57359 1.79088L5.88489 1.90255C5.1983 2.01393 4.58489 2.44653 4.28407 3.03163L3.96506 3.65202C3.89549 3.78727 3.78725 3.89556 3.65196 3.96508L3.03151 4.28413C2.44647 4.58496 2.01382 5.19837 1.90248 5.88495L1.79077 6.57365C1.76644 6.7238 1.69692 6.86017 1.58976 6.96814L1.09837 7.46327C0.62377 7.94139 0.401892 8.62427 0.504791 9.29005L0.611394 9.97954C0.634646 10.1298 0.610691 10.281 0.542107 10.4168L0.227691 11.0396C-0.0758968 11.6409 -0.0758968 12.359 0.227691 12.9604L0.542107 13.5832C0.610644 13.7189 0.634599 13.8701 0.611394 14.0204L0.504791 14.7099C0.401892 15.3757 0.623817 16.0586 1.09837 16.5367L1.58985 17.0319C1.69701 17.1399 1.76654 17.2762 1.79087 17.4264L1.90258 18.115C2.01392 18.8017 2.44656 19.4151 3.03161 19.7159L3.652 20.0349C3.78729 20.1045 3.89554 20.2127 3.96511 20.348L4.28412 20.9685C4.58499 21.5535 5.1984 21.9861 5.88498 22.0975L6.57363 22.2092C6.72379 22.2336 6.8602 22.303 6.96812 22.4102L7.4633 22.9017C7.94151 23.3763 8.62435 23.598 9.29007 23.4952L9.97957 23.3886C10.1298 23.3654 10.2811 23.3894 10.4168 23.4579L11.0396 23.7723C11.3403 23.9241 11.6702 24 12 24C12.3299 24 12.6597 23.9241 12.9604 23.7723L13.5832 23.4579C13.719 23.3894 13.8702 23.3655 14.0205 23.3886L14.7099 23.4952C15.3757 23.598 16.0586 23.3762 16.5367 22.9016L17.0319 22.4101C17.1398 22.303 17.2762 22.2335 17.4264 22.2091L18.115 22.0974C18.7726 21.9907 19.3481 21.5768 19.6586 20.9882L20.0153 20.3836C20.0221 20.3719 20.0287 20.36 20.0349 20.3479C20.1044 20.2127 20.2127 20.1044 20.3479 20.0349L20.9683 19.7159C21.5675 19.4078 21.9896 18.8269 22.0974 18.1619L22.2091 17.4733C22.2335 17.3231 22.3029 17.1867 22.4101 17.0787C22.4176 17.0712 22.9139 16.5242 22.9139 16.5242C23.38 16.0467 23.5972 15.3699 23.4951 14.7099L23.3886 14.0205C23.3653 13.8702 23.3893 13.7189 23.4578 13.5832L23.7723 12.9604Z" fill="url(#paint0_linear_957_14990)"/>
<path d="M12 3.51489C7.34163 3.51489 3.51495 7.3426 3.51495 12C3.51495 16.6584 7.34266 20.485 12 20.485C16.6584 20.485 20.4851 16.6573 20.4851 12C20.4851 7.34157 16.6573 3.51489 12 3.51489ZM16.9013 10.061L15.4949 15.6864C15.4167 15.9994 15.1354 16.2191 14.8128 16.2191H9.18729C8.86463 16.2191 8.58335 15.9994 8.50511 15.6864L7.09875 10.061C7.01591 9.72957 7.18322 9.38656 7.49539 9.2478C7.80751 9.10909 8.17424 9.2148 8.36471 9.49837C8.55715 9.78123 9.25325 10.5936 9.89048 10.5936C10.0069 10.5936 10.3677 10.3225 10.7394 9.48463C11.0728 8.73293 11.2968 7.76568 11.2968 7.07769C11.2968 6.68934 11.6117 6.3745 12 6.3745C12.3884 6.3745 12.7032 6.68934 12.7032 7.07769C12.7032 7.76568 12.9272 8.73293 13.2607 9.48463C13.6324 10.3225 13.9931 10.5936 14.1096 10.5936C14.7657 10.5936 15.48 9.72971 15.6353 9.49837C15.8258 9.21484 16.1926 9.10913 16.5047 9.2478C16.8168 9.38656 16.9841 9.72957 16.9013 10.061Z" fill="url(#paint1_linear_957_14990)"/>
</g>
<defs>
<linearGradient id="paint0_linear_957_14990" x1="12" y1="24" x2="12" y2="1.71661e-05" gradientUnits="userSpaceOnUse">
<stop stop-color="#FD5900"/>
<stop offset="1" stop-color="#FFDE00"/>
</linearGradient>
<linearGradient id="paint1_linear_957_14990" x1="12" y1="20.485" x2="12" y2="3.51489" gradientUnits="userSpaceOnUse">
<stop stop-color="#FFE59A"/>
<stop offset="1" stop-color="#FFFFD5"/>
</linearGradient>
<clipPath id="clip0_957_14990">
<rect width="24" height="24" fill="white"/>
</clipPath>
</defs>
</svg>
