<svg width="26" height="26" viewBox="0 0 26 26" fill="none" xmlns="http://www.w3.org/2000/svg">
<path d="M13 25.25C12.4588 25.25 11.9219 25.1333 11.4318 24.9109C10.9009 24.999 10.3522 24.9726 9.82936 24.8326C9.30653 24.6924 8.8182 24.4408 8.40242 24.0992C7.86682 24.0468 7.34361 23.8794 6.875 23.6088C6.40625 23.3381 5.99965 22.9687 5.68651 22.5312C5.18254 22.3419 4.72044 22.0447 4.33791 21.662C3.95562 21.2799 3.65842 20.8177 3.46888 20.3136C3.03123 20.0003 2.66177 19.5937 2.39117 19.125C2.12047 18.6563 1.95308 18.1331 1.90083 17.5975C1.55903 17.1818 1.30742 16.6934 1.16731 16.1705C1.0273 15.6478 1.00098 15.0991 1.08893 14.5681C0.866566 14.078 0.75 13.5412 0.75 13C0.75 12.4588 0.866566 11.922 1.08893 11.4319C1.00098 10.9009 1.0273 10.3522 1.16731 9.8295C1.30738 9.30653 1.55903 8.81816 1.90083 8.40247C1.95308 7.86692 2.12047 7.34371 2.39117 6.87495C2.66181 6.40629 3.03123 5.99965 3.46888 5.68642C3.65842 5.18225 3.95567 4.72015 4.33815 4.33781C4.72048 3.95529 5.18254 3.65813 5.68656 3.46883C5.9997 3.03123 6.40629 2.66191 6.8749 2.39117C7.34361 2.12056 7.86682 1.95313 8.40247 1.90073C8.8182 1.55907 9.30658 1.30752 9.82926 1.16741C10.3523 1.02725 10.901 1.00093 11.4319 1.08903C11.9219 0.866662 12.4588 0.75 13 0.75C13.5412 0.75 14.078 0.866662 14.5681 1.08908C15.0991 1.00098 15.6478 1.02735 16.1706 1.16741C16.6934 1.30757 17.1817 1.55912 17.5975 1.90078C18.1331 1.95318 18.6563 2.12061 19.125 2.39117C19.5937 2.66186 20.0003 3.03132 20.3134 3.46883C20.8175 3.65813 21.2795 3.95534 21.6621 4.33801C22.0443 4.72015 22.3415 5.18225 22.5311 5.68642C22.9688 5.99965 23.3382 6.40629 23.6088 6.87495C23.8795 7.34366 24.0469 7.86687 24.0991 8.40247C24.441 8.8182 24.6926 9.30658 24.8326 9.8295C24.9727 10.3522 24.999 10.9009 24.911 11.4319C25.1334 11.922 25.25 12.4588 25.25 13C25.25 13.5412 25.1334 14.078 24.9111 14.5681C24.999 15.0991 24.9727 15.6478 24.8327 16.1705C24.6926 16.6935 24.441 17.1818 24.0992 17.5975C24.0469 18.1331 23.8795 18.6563 23.6088 19.1251C23.3383 19.5937 22.9688 20.0003 22.5312 20.3136C22.3416 20.8178 22.0444 21.2799 21.6619 21.6622C21.2796 22.0447 20.8175 22.3419 20.3135 22.5312C20.0003 22.9687 19.5938 23.3381 19.1251 23.6088C18.6564 23.8794 18.1332 24.0469 17.5976 24.0993C17.1818 24.441 16.6935 24.6925 16.1708 24.8326C15.6478 24.9727 15.0991 24.999 14.5682 24.911C14.078 25.1333 13.5412 25.25 13 25.25Z" fill="#FFC800"/>
<path d="M13 0.75C13.5412 0.75 14.078 0.866662 14.5681 1.08908C15.0991 1.00098 15.6478 1.02735 16.1706 1.16741C16.6934 1.30757 17.1817 1.55912 17.5975 1.90078C18.1331 1.95318 18.6563 2.12061 19.125 2.39117C19.5937 2.66186 20.0003 3.03132 20.3134 3.46883C20.8175 3.65813 21.2795 3.95534 21.6621 4.33801C22.0443 4.72015 22.3415 5.18225 22.5311 5.68642C22.9688 5.99965 23.3382 6.40629 23.6088 6.87495C23.8795 7.34366 24.0469 7.86687 24.0991 8.40247C24.441 8.8182 24.6926 9.30658 24.8326 9.8295C24.9727 10.3522 24.999 10.9009 24.911 11.4319C25.1334 11.922 25.25 12.4588 25.25 13C25.25 13.5412 25.1334 14.078 24.9111 14.5681C24.999 15.0991 24.9727 15.6478 24.8327 16.1705C24.6926 16.6935 24.441 17.1818 24.0992 17.5975C24.0469 18.1331 23.8795 18.6563 23.6088 19.1251C23.3383 19.5937 22.9688 20.0003 22.5312 20.3136C22.3416 20.8178 22.0444 21.2799 21.6619 21.6622C21.2796 22.0447 20.8175 22.3419 20.3135 22.5312C20.0003 22.9687 19.5938 23.3381 19.1251 23.6088C18.6564 23.8794 18.1332 24.0469 17.5976 24.0993C17.1818 24.441 16.6935 24.6925 16.1708 24.8326C15.6478 24.9727 15.0991 24.999 14.5682 24.911C14.078 25.1333 13.5412 25.25 13 25.25V0.75Z" fill="#FFA400"/>
<path d="M12.9999 22.1746C18.067 22.1746 22.1746 18.067 22.1746 12.9999C22.1746 7.93286 18.067 3.8252 12.9999 3.8252C7.93286 3.8252 3.8252 7.93286 3.8252 12.9999C3.8252 18.067 7.93286 22.1746 12.9999 22.1746Z" fill="#194E57"/>
<path d="M13 3.8252C18.059 3.8252 22.1747 7.941 22.1747 12.9999C22.1747 18.0588 18.059 22.1746 13 22.1746V3.8252Z" fill="#003540"/>
<path d="M16.8439 17.5624H9.15578C8.82642 17.5624 8.53931 17.3382 8.45945 17.0187L6.92183 10.8682C6.85388 10.5963 6.9504 10.3097 7.16908 10.1343C7.38772 9.95881 7.68846 9.92684 7.93921 10.0522L10.4199 11.2925L12.3844 8.01838C12.5142 7.80218 12.7478 7.66992 12.9999 7.66992C13.252 7.66992 13.4856 7.80223 13.6154 8.01838L15.5799 11.2925L18.0606 10.0522C18.3112 9.92679 18.612 9.95881 18.8307 10.1343C19.0494 10.3097 19.1459 10.5963 19.0779 10.8682L17.5403 17.0187C17.4604 17.3382 17.1733 17.5624 16.8439 17.5624Z" fill="#FFE66F"/>
<path d="M16.8441 17.5624C17.1734 17.5624 17.4605 17.3382 17.5404 17.0187L19.0781 10.8682C19.1461 10.5963 19.0495 10.3097 18.8309 10.1343C18.6121 9.95881 18.3113 9.92679 18.0607 10.0522L15.58 11.2925L13.6155 8.01838C13.4857 7.80218 13.2521 7.66992 13 7.66992V17.5624H16.8441Z" fill="#FFC800"/>
</svg>
