<svg width="40" height="40" viewBox="0 0 40 40" fill="none" xmlns="http://www.w3.org/2000/svg">
<circle opacity="0.24" cx="20" cy="20" r="19.5" fill="#404040" stroke="white"/>
<path d="M19.7852 10.0355C19.9239 9.98785 20.0761 9.98785 20.2148 10.0355C21.6561 10.531 23.1438 10.9452 24.6377 11.265C25.8838 11.5317 27.1601 11.7382 28.4297 11.8792C28.7546 11.9152 29 12.1826 29 12.5003V18.7386C28.9998 23.165 26.3282 27.2234 22.1943 29.0784L20.2695 29.9427C20.1842 29.9808 20.0919 30.0003 20 30.0003C19.908 30.0003 19.8158 29.9808 19.7305 29.9427L17.8057 29.0784C13.6718 27.2233 11.0002 23.165 11 18.7386V12.5003C11 12.1826 11.2454 11.9153 11.5703 11.8792C12.8399 11.7382 14.1163 11.5316 15.3623 11.265C16.8563 10.9452 18.344 10.531 19.7852 10.0355ZM20 11.2874C18.5762 11.7678 17.1092 12.1707 15.6377 12.4857C14.5353 12.7215 13.4105 12.9124 12.2861 13.054V18.7386C12.2863 22.6791 14.6638 26.2924 18.3438 27.9437L20 28.6868L21.6562 27.9437C25.3362 26.2924 27.7137 22.6792 27.7139 18.7386V13.054C26.5895 12.9124 25.4647 12.7215 24.3623 12.4857C22.8908 12.1707 21.4239 11.7678 20 11.2874ZM20 14.3753C21.4179 14.3753 22.5713 15.4968 22.5713 16.8753V17.5003L22.7021 17.5062C23.3499 17.5701 23.8564 18.1039 23.8564 18.7503V23.1253C23.8563 23.8145 23.2802 24.3753 22.5713 24.3753H17.4287C16.7198 24.3753 16.1428 23.8145 16.1426 23.1253V18.7503C16.1426 18.1041 16.6493 17.5703 17.2969 17.5062L17.4287 17.5003V16.8753C17.4287 15.4969 18.5822 14.3754 20 14.3753ZM17.4287 23.1253H22.5723L22.5713 18.7503H17.4287V23.1253ZM20 15.6253C19.291 15.6254 18.7148 16.186 18.7148 16.8753V17.5003H21.2861V16.8753C21.2861 16.1859 20.7091 15.6253 20 15.6253Z" fill="white"/>
</svg>
