<svg width="40" height="40" viewBox="0 0 40 40" fill="none" xmlns="http://www.w3.org/2000/svg">
<circle opacity="0.24" cx="20" cy="20" r="19.5" fill="#404040" stroke="white"/>
<path d="M22.2222 30L22.3457 29.375L22.8148 27.0913C23.5679 26.8029 24.2469 26.3972 24.8642 25.9135L27.1605 26.6827L27.7778 26.875L28.0988 26.3221L29.679 23.6778L30 23.125L29.5309 22.7163L27.7531 21.2019C27.8179 20.8083 27.9012 20.4147 27.9012 20C27.9012 19.5853 27.8179 19.1917 27.7531 18.7981L29.5309 17.2837L30 16.875L29.679 16.3222L28.0988 13.6778L27.7778 13.125L27.1605 13.3173L24.8642 14.0865C24.2469 13.6028 23.5679 13.1971 22.8148 12.9086L22.3457 10.625L22.2222 10H17.7778L17.6543 10.625L17.1852 12.9086C16.4321 13.1971 15.7531 13.6028 15.1358 14.0865L12.8395 13.3173L12.2221 13.125L11.9012 13.6778L10.3209 16.3222L10 16.875L10.4691 17.2837L12.2469 18.7981C12.1821 19.1917 12.0987 19.5853 12.0987 20C12.0987 20.4147 12.1821 20.8083 12.2469 21.2019L10.4691 22.7163L10 23.125L10.3209 23.6778L11.9012 26.3221L12.2221 26.875L12.8395 26.6827L15.1358 25.9135C15.7531 26.3972 16.4321 26.8029 17.1852 27.0913L17.6543 29.375L17.7778 30H22.2222ZM20.9383 28.4615H19.0617L18.6666 26.4663L18.5679 26.0096L18.1234 25.8654C17.2253 25.5919 16.4104 25.1292 15.7284 24.5192L15.3826 24.2068L14.9383 24.3509L12.9382 25.024L12 23.4615L13.5802 22.0914L13.9506 21.8029L13.8271 21.3462C13.7253 20.9075 13.679 20.4598 13.679 20C13.679 19.5402 13.7253 19.0925 13.8271 18.6538L13.9259 18.1971L13.5802 17.9086L12 16.5385L12.9382 14.976L14.9383 15.6491L15.3826 15.7932L15.7284 15.4808C16.4104 14.8708 17.2253 14.4081 18.1234 14.1346L18.5679 13.9904L18.6666 13.5337L19.0617 11.5385H20.9383L21.3333 13.5337L21.4321 13.9904L21.8765 14.1346C22.7747 14.4081 23.5895 14.8708 24.2716 15.4808L24.6173 15.7932L25.0617 15.6491L27.0617 14.976L28 16.5385L26.4197 17.9086L26.0494 18.1971L26.1728 18.6538C26.2747 19.0925 26.321 19.5402 26.321 20C26.321 20.4598 26.2747 20.9075 26.1728 21.3462L26.0494 21.8029L26.4197 22.0914L28 23.4615L27.0617 25.024L25.0617 24.3509L24.6173 24.2068L24.2716 24.5192C23.5895 25.1292 22.7747 25.5919 21.8765 25.8654L21.4321 26.0096L21.3333 26.4663L20.9383 28.4615ZM20 23.8462C22.1728 23.8462 23.9506 22.1154 23.9506 20C23.9506 17.8846 22.1728 16.1538 20 16.1538C17.8271 16.1538 16.0494 17.8846 16.0494 20C16.0494 22.1154 17.8271 23.8462 20 23.8462ZM20 22.3077C18.6821 22.3077 17.6296 21.2831 17.6296 20C17.6296 18.7169 18.6821 17.6923 20 17.6923C21.3179 17.6923 22.3704 18.7169 22.3704 20C22.3704 21.2831 21.3179 22.3077 20 22.3077Z" fill="white"/>
</svg>
