<svg width="26" height="26" viewBox="0 0 26 26" fill="none" xmlns="http://www.w3.org/2000/svg">
<path d="M13.0006 25.2498C6.24617 25.2498 0.750977 19.7546 0.750977 13.0002C0.750977 6.24576 6.24617 0.750977 13.0006 0.750977C19.7551 0.750977 25.2502 6.24576 25.2502 13.0002C25.2502 19.7546 19.7547 25.2498 13.0006 25.2498Z" fill="white"/>
<path d="M19.2073 4.37157C19.7302 4.37157 20.2471 4.39845 20.757 4.44732C18.7052 2.58491 15.983 1.44824 13.0002 1.44824C6.63066 1.44824 1.44824 6.63025 1.44824 13.0002C1.44824 15.2736 2.11126 17.3942 3.24997 19.1833C3.86168 10.9016 10.7693 4.37157 19.2073 4.37157Z" fill="#E0E0E0"/>
<path d="M13.0008 24.5518C19.3704 24.5518 24.5528 19.3697 24.5528 12.9998C24.5528 9.61297 23.0875 6.56216 20.758 4.44684C20.2481 4.39797 19.7313 4.37109 19.2083 4.37109C10.7707 4.37109 3.86268 10.9015 3.25098 19.1828C5.30236 22.4071 8.905 24.5518 13.0008 24.5518Z" fill="#B5B5B5"/>
<path d="M13.0008 22.1368C18.0467 22.1368 22.1373 18.0463 22.1373 13.0003C22.1373 7.95433 18.0467 3.86377 13.0008 3.86377C7.95482 3.86377 3.86426 7.95433 3.86426 13.0003C3.86426 18.0463 7.95482 22.1368 13.0008 22.1368Z" fill="#9E9E9E"/>
<path d="M18.4967 11.7671L14.6986 11.2152L13.0003 7.77344L11.3016 11.2152L7.50391 11.7671L10.2521 14.4456L9.60334 18.2283L13.0003 16.4424L16.3973 18.2283L15.7485 14.4456L18.4967 11.7671Z" fill="#F6F6F6"/>
<path d="M19.5545 5.30384C19.7552 5.50462 20.4077 5.81455 20.7119 5.95302C20.773 5.98071 20.773 6.06705 20.7119 6.09475C20.4077 6.23321 19.7557 6.54273 19.5545 6.74392C19.3537 6.9447 19.0438 7.59714 18.9053 7.90136C18.8776 7.96245 18.7913 7.96245 18.7636 7.90136C18.6251 7.59714 18.3156 6.94511 18.1144 6.74392C17.9136 6.54314 17.2612 6.23321 16.9569 6.09475C16.8959 6.06705 16.8959 5.98071 16.9569 5.95302C17.2612 5.81455 17.9132 5.50503 18.1144 5.30384C18.3152 5.10306 18.6251 4.45063 18.7636 4.1464C18.7913 4.08531 18.8776 4.08531 18.9053 4.1464C19.0434 4.45063 19.3533 5.10265 19.5545 5.30384Z" fill="white"/>
<path d="M18.4974 11.7671L14.6993 11.2148L13.001 7.77344V16.4424L16.398 18.2283L15.7492 14.4456L18.4974 11.7671Z" fill="#E0E0E0"/>
</svg>
