<svg width="32" height="32" viewBox="0 0 32 32" fill="none" xmlns="http://www.w3.org/2000/svg">
<path d="M16.0002 31.0588C24.317 31.0588 31.0591 24.3167 31.0591 16C31.0591 7.68323 24.317 0.941162 16.0002 0.941162C7.68347 0.941162 0.941406 7.68323 0.941406 16C0.941406 24.3167 7.68347 31.0588 16.0002 31.0588Z" fill="#8C4CD1"/>
<path d="M28.9982 8.39055C26.1135 12.4471 21.3653 15.0918 16.0006 15.0918C10.6359 15.0918 5.88764 12.4471 3.00293 8.39055C5.6194 3.9341 10.4617 0.941162 16.0006 0.941162C21.5394 0.941162 26.3818 3.9341 28.9982 8.39055Z" fill="#9C68E1"/>
<path d="M16 5.11792V15.4117L19.3447 11.8949L16 5.11792Z" fill="#FF9F00"/>
<path d="M15.9999 5.11792V15.4117L12.6553 11.8949L15.9999 5.11792Z" fill="#FED110"/>
<path d="M26.8235 12.982L19.3447 11.8953L16 15.412L26.8235 12.982Z" fill="#FED110"/>
<path d="M26.8235 12.9824L21.4118 18.2576L16 15.4125L26.8235 12.9824Z" fill="#FF9F00"/>
<path d="M5.17676 12.982L12.6556 11.8953L16.0003 15.412L5.17676 12.982Z" fill="#FF9F00"/>
<path d="M5.17676 12.9824L10.5885 18.2576L16.0003 15.4125L5.17676 12.9824Z" fill="#FED110"/>
<path d="M16 15.4124L21.4118 18.2575L22.6893 25.7061L16 15.4124Z" fill="#FED110"/>
<path d="M22.6893 25.7061L16 22.1894V15.4124L22.6893 25.7061Z" fill="#FF9F00"/>
<path d="M15.9999 15.4124L10.5881 18.2575L9.31055 25.7061L15.9999 15.4124Z" fill="#FF9F00"/>
<path d="M9.31055 25.7061L15.9999 22.1894V15.4124L9.31055 25.7061Z" fill="#FED110"/>
<g opacity="0.3">
<path d="M16.0005 27.5882C20.9061 27.5882 24.8829 27.3442 24.8829 27.0432C24.8829 26.7423 20.9061 26.4983 16.0005 26.4983C11.0949 26.4983 7.11816 26.7423 7.11816 27.0432C7.11816 27.3442 11.0949 27.5882 16.0005 27.5882Z" fill="#20273A"/>
</g>
</svg>
