<svg width="40" height="40" viewBox="0 0 40 40" fill="none" xmlns="http://www.w3.org/2000/svg">
<circle opacity="0.24" cx="20" cy="20" r="19.5" fill="#404040" stroke="white"/>
<path d="M19.999 10C24.9325 10 28.998 13.8087 28.998 18.5869V20.1348C28.9981 20.1411 28.999 20.1479 28.999 20.1543V22.9561C28.9992 22.9624 29 22.9692 29 22.9756V24.543C28.9997 26.724 27.1499 28.4277 24.9502 28.4277H22.2695C21.9422 29.3551 21.0281 29.9951 19.999 29.9951C18.7107 29.9949 17.5999 28.993 17.5996 27.6777C17.5996 26.3623 18.7105 25.3606 19.999 25.3604C21.0286 25.3604 21.9435 25.9998 22.2705 26.9277H24.9502C26.1589 26.9277 27.1261 26.1539 27.4111 25.1514C27.155 25.2407 26.8817 25.293 26.5986 25.293C25.3103 25.2927 24.1995 24.2908 24.1992 22.9756V20.1543C24.1992 18.8388 25.3101 17.8371 26.5986 17.8369C26.9032 17.8369 27.1972 17.8942 27.4697 17.9971C27.1535 14.3885 23.9637 11.5 19.999 11.5C16.0345 11.5001 12.8436 14.3886 12.5273 17.9971C12.8 17.894 13.0945 17.837 13.3994 17.8369C14.6881 17.8369 15.7998 18.8387 15.7998 20.1543V22.9756C15.7995 24.291 14.6879 25.293 13.3994 25.293C12.1111 25.2927 11.0003 24.2908 11 22.9756V18.5869C11 13.8088 15.0657 10.0001 19.999 10ZM19.999 26.8604C19.4656 26.8606 19.0996 27.2622 19.0996 27.6777C19.0999 28.0931 19.4658 28.4949 19.999 28.4951C20.5325 28.4951 20.8991 28.0932 20.8994 27.6777C20.8994 27.2621 20.5327 26.8604 19.999 26.8604ZM13.3994 19.3369C12.866 19.3371 12.5 19.7388 12.5 20.1543V22.9756C12.5003 23.391 12.8662 23.7927 13.3994 23.793C13.9329 23.793 14.2995 23.3911 14.2998 22.9756V20.1543C14.2998 19.7386 13.9331 19.3369 13.3994 19.3369ZM26.5986 19.3369C26.0652 19.3371 25.6992 19.7388 25.6992 20.1543V22.9756C25.6995 23.391 26.0654 23.7927 26.5986 23.793C27.1321 23.793 27.4987 23.3911 27.499 22.9756V20.1729C27.4989 20.1667 27.4981 20.1605 27.498 20.1543V20.1348C27.487 19.726 27.1241 19.3369 26.5986 19.3369Z" fill="white"/>
</svg>
