<svg width="800" height="800" viewBox="0 0 800 800" fill="none" xmlns="http://www.w3.org/2000/svg">
<circle cx="400" cy="400" r="400" fill="#000000"/>
<path d="M574.286 253.143C546.857 266.286 366.857 334.857 366.857 334.857L264 371.429C264 371.429 250.857 375.714 252.571 384C254.286 392.286 264 396.571 264 396.571L325.714 415.714C325.714 415.714 352 506.857 356.286 522.857C360.571 538.857 366.857 541.714 366.857 541.714C366.857 541.714 372 545.714 378.286 541.714L420 504L486.857 554.857C486.857 554.857 498.857 562.857 510.857 556.571L574.286 253.143Z" fill="white"/>
<path d="M420 504L356.286 522.857C356.286 522.857 360.571 538.857 366.857 541.714C373.143 544.571 466.857 480 466.857 480L420 504Z" fill="#000000"/>
</svg>
