<svg width="40" height="40" viewBox="0 0 40 40" fill="none" xmlns="http://www.w3.org/2000/svg">
<circle opacity="0.24" cx="20" cy="20" r="19.5" fill="#404040" stroke="white"/>
<path d="M25.2511 21.4974C26.4932 21.4974 27.5 22.5045 27.5 23.7467V24.3222C27.5 25.2166 27.1805 26.0816 26.5989 26.7611C25.0295 28.5949 22.6422 29.5 19.4967 29.5C16.3508 29.5 13.9647 28.5946 12.3983 26.7601C11.8185 26.081 11.5 25.2174 11.5 24.3245V23.7467C11.5 22.5045 12.5069 21.4974 13.749 21.4974H25.2511ZM25.2511 22.9977H13.749C13.3353 22.9977 13.0001 23.333 13.0001 23.7467V24.3245C13.0001 24.8602 13.1912 25.3784 13.539 25.7858C14.7924 27.2538 16.7583 27.9997 19.4967 27.9997C22.2351 27.9997 24.2028 27.2537 25.4593 25.7855C25.8082 25.3779 25.9999 24.8589 25.9999 24.3222V23.7467C25.9999 23.333 25.6647 22.9977 25.2511 22.9977ZM19.4967 9.5C22.2582 9.5 24.4969 11.739 24.4969 14.5009C24.4969 17.2628 22.2582 19.5017 19.4967 19.5017C16.7352 19.5017 14.4966 17.2628 14.4966 14.5009C14.4966 11.739 16.7352 9.5 19.4967 9.5ZM19.4967 11.0003C17.5637 11.0003 15.9966 12.5675 15.9966 14.5009C15.9966 16.4342 17.5637 18.0015 19.4967 18.0015C21.4298 18.0015 22.9968 16.4342 22.9968 14.5009C22.9968 12.5675 21.4298 11.0003 19.4967 11.0003Z" fill="white"/>
</svg>
